<?xml version="1.0" encoding="UTF-8" standalone="no"?>
<svg xmlns:xlink="http://www.w3.org/1999/xlink" height="819.05px" width="660.5px" xmlns="http://www.w3.org/2000/svg">
  <g transform="matrix(1.0, 0.0, 0.0, 1.0, 0.0, 0.0)">
    <path d="M659.95 270.25 Q659.2 294.8 659.2 306.15 L659.05 370.65 Q658.6 401.7 656.1 425.85 650.5 480.45 626.2 565.65 616.05 601.15 604.65 629.4 590.05 665.7 571.7 694.65 570.35 696.85 567.4 704.25 L561.15 718.8 Q551.1 739.85 535.05 755.1 487.0 800.75 381.05 802.6 L378.1 802.9 Q320.5 802.2 317.8 801.2 L317.75 801.2 308.35 806.4 Q293.75 813.9 279.6 816.6 267.5 818.9 247.4 819.05 219.9 818.75 200.7 818.75 136.85 818.75 96.35 809.0 33.05 793.75 33.05 756.4 L33.15 747.15 Q33.75 739.05 36.35 732.75 40.15 723.65 47.95 718.9 27.1 715.55 22.55 714.1 18.1 712.7 15.0 710.35 12.3 708.35 8.55 704.0 2.55 697.05 0.85 680.8 0.05 673.5 0.05 655.65 L0.0 639.95 Q0.1 634.45 1.05 630.55 1.95 626.8 4.95 619.35 L13.55 598.25 Q18.15 586.8 19.95 583.55 25.05 574.2 32.3 569.75 52.45 557.3 81.55 555.75 88.75 555.35 95.1 555.7 L95.85 554.5 Q80.3 552.75 68.05 549.8 21.05 538.35 21.05 509.25 20.4 502.8 20.4 499.6 20.35 493.95 23.55 490.5 26.25 487.6 30.8 486.3 L39.25 484.65 Q50.45 482.45 55.8 473.25 63.1 460.6 67.0 454.8 74.45 443.7 82.05 436.5 111.35 408.75 147.2 388.65 157.7 382.75 165.4 379.6 132.2 372.75 112.65 354.35 108.9 353.9 107.55 352.65 106.9 352.0 106.9 351.2 L107.05 350.4 Q107.05 349.7 107.6 349.15 98.25 338.6 93.7 325.6 90.05 315.25 90.05 306.0 90.05 290.75 96.5 273.15 L97.5 270.5 Q90.2 267.7 80.75 263.2 57.1 250.9 53.45 249.15 42.3 243.6 38.65 230.9 36.95 225.1 36.95 215.65 36.95 195.4 42.45 180.9 48.2 165.75 61.75 151.7 74.7 138.35 99.2 121.5 119.0 107.85 158.95 83.65 188.55 65.7 213.1 52.4 236.65 39.6 273.95 21.15 300.0 8.15 322.65 3.25 342.2 -0.95 362.95 0.3 376.75 1.15 401.55 5.65 430.95 11.0 445.2 12.65 461.3 17.6 471.65 22.05 484.65 27.65 501.7 37.65 567.75 77.1 603.85 111.75 636.35 143.05 649.35 175.35 659.75 201.2 660.45 237.25 660.65 248.55 659.95 270.25 M523.05 67.0 Q510.95 56.7 495.1 48.8 444.5 23.65 359.45 23.65 322.75 23.65 291.25 31.55 264.2 38.4 236.65 52.3 217.75 61.85 187.1 81.35 148.95 105.55 133.95 114.15 83.05 143.4 67.0 164.35 58.9 174.95 55.7 187.35 52.95 198.0 52.95 214.15 52.95 224.9 63.9 233.75 71.85 240.2 87.95 246.95 L105.2 254.1 Q107.75 249.5 110.65 245.15 113.55 240.8 116.2 237.6 103.15 233.0 96.75 227.35 92.05 223.3 92.05 220.25 92.05 217.6 110.25 206.25 119.65 200.35 131.95 193.15 L127.9 190.85 Q125.55 189.5 125.2 187.4 124.95 186.05 125.05 184.3 L125.2 181.0 Q125.2 176.45 125.55 174.7 126.05 172.4 127.8 170.4 L144.45 156.65 Q146.3 155.15 155.15 144.2 L163.7 133.65 Q164.95 133.65 165.95 134.65 166.95 135.65 168.2 135.65 172.3 135.65 175.9 133.25 L180.35 129.6 Q182.0 128.3 182.5 129.95 183.05 131.8 183.2 139.65 280.65 139.25 310.25 166.0 319.5 174.4 322.25 185.8 L322.25 185.9 322.3 185.85 322.35 185.75 339.0 172.0 Q340.85 170.5 349.7 159.55 L358.25 149.0 Q359.5 149.0 360.5 150.0 361.5 151.0 362.75 151.0 366.85 151.0 370.45 148.6 L374.9 144.95 Q376.55 143.65 377.05 145.3 377.6 147.15 377.75 155.0 475.2 154.6 504.8 181.35 515.0 190.65 517.25 203.5 518.05 207.9 517.95 213.45 L517.75 221.35 Q517.75 236.05 516.75 245.75 516.55 247.75 514.8 251.75 513.15 255.4 511.5 257.75 L510.55 260.45 Q509.6 262.5 506.5 263.75 L504.85 264.9 502.75 266.5 477.75 266.8 Q485.8 276.0 492.05 302.8 L493.6 309.7 495.9 305.3 Q514.25 270.55 521.7 259.15 524.55 254.9 530.15 250.25 538.4 243.4 550.2 238.15 563.8 232.1 567.8 230.65 575.75 227.75 581.3 228.0 587.55 228.25 593.6 232.4 599.75 236.65 607.7 246.15 614.9 255.25 617.5 260.2 619.95 264.8 619.85 268.55 619.85 269.95 618.5 276.55 617.2 282.95 617.2 289.65 L617.55 296.6 Q617.75 303.0 617.25 307.75 615.7 322.65 607.2 322.65 599.7 322.65 599.7 305.95 599.7 300.7 600.45 294.3 L601.2 288.65 Q601.2 282.7 598.15 269.15 594.05 251.15 588.7 251.15 558.5 251.15 538.45 267.3 523.2 279.65 512.5 302.9 506.55 315.85 498.75 338.5 L498.35 339.55 498.75 343.85 499.05 349.55 Q499.25 353.9 498.9 357.4 497.85 368.0 491.3 375.8 471.8 399.0 404.25 399.0 338.35 399.0 307.2 369.7 303.45 369.25 302.1 368.0 301.45 367.35 301.45 366.55 L301.6 365.75 Q301.6 365.05 302.15 364.5 L297.8 359.15 296.75 360.45 Q277.25 383.65 209.7 383.65 193.8 383.65 179.95 381.95 178.3 383.15 175.6 384.55 164.9 389.6 156.8 393.8 121.95 411.75 88.8 441.75 81.85 448.05 74.85 459.15 L63.3 477.0 Q62.35 478.3 61.15 481.5 60.05 484.6 58.75 486.2 54.45 491.5 40.05 492.75 31.85 493.5 29.7 500.95 29.05 503.05 29.05 509.4 29.05 524.35 59.05 537.8 69.1 542.3 80.5 545.7 89.85 548.5 92.05 548.5 L103.6 548.5 103.65 548.45 Q107.4 546.85 110.0 547.3 111.5 547.55 112.25 548.45 196.45 548.15 198.45 547.5 L200.2 546.0 Q200.65 545.6 202.3 544.95 L204.95 543.75 Q205.7 543.4 210.95 539.25 L216.35 534.55 220.95 530.25 229.75 520.85 Q237.7 512.75 240.2 512.75 242.4 512.75 243.5 514.55 244.2 515.7 244.2 516.65 L240.7 525.5 Q237.2 534.5 237.2 536.5 237.2 539.0 240.2 540.3 244.8 542.25 257.3 542.25 266.75 542.25 275.8 535.95 266.2 523.15 266.2 520.75 266.2 509.75 282.75 529.05 L283.25 529.6 283.3 529.55 Q288.4 524.35 293.4 517.1 299.25 508.5 304.2 498.05 307.8 490.4 309.2 485.75 315.0 466.95 318.75 444.2 320.2 435.55 320.8 433.4 321.75 429.75 323.2 429.75 326.5 429.75 327.15 436.6 327.5 440.1 327.2 443.75 327.2 447.1 323.55 461.9 318.7 481.75 311.75 498.55 301.45 523.35 288.9 536.4 L311.2 564.5 322.8 578.6 Q329.9 587.55 331.95 592.25 334.0 597.15 336.35 606.0 L340.2 620.0 Q352.25 657.55 355.95 677.2 360.2 699.65 360.2 730.25 360.2 751.2 358.9 758.45 355.9 775.55 344.7 783.5 L341.25 785.95 Q357.3 786.0 368.1 786.2 L408.2 783.15 Q420.25 782.25 425.35 779.8 433.1 775.95 449.2 772.65 481.55 765.85 494.0 761.1 504.0 757.25 517.2 747.65 532.3 736.6 542.05 717.65 L549.85 701.4 Q554.65 691.45 559.2 684.65 577.25 657.5 591.0 622.3 600.45 598.1 611.7 558.65 625.1 512.25 632.65 475.45 630.35 481.2 627.7 486.6 603.15 536.65 555.2 536.65 535.1 536.65 530.2 532.7 528.65 531.4 528.75 529.8 L529.2 528.15 Q529.2 524.3 533.8 525.15 L539.45 526.5 547.25 527.85 Q572.4 530.45 598.7 505.65 603.5 501.0 606.8 494.2 610.45 485.65 613.2 480.15 616.85 472.85 621.7 456.9 627.2 438.8 627.2 430.65 627.2 414.2 614.4 402.5 605.05 393.95 586.2 386.3 565.7 378.75 558.0 375.1 545.2 369.05 545.2 362.15 545.2 355.9 560.5 358.95 575.8 362.0 594.2 371.9 615.0 383.1 627.9 397.25 637.7 408.0 641.25 418.9 643.05 397.55 643.3 369.75 L643.2 306.65 643.2 230.15 Q643.2 210.95 636.95 192.45 630.65 173.8 617.2 153.65 589.3 111.6 534.2 77.15 529.15 72.2 523.05 67.0 M357.7 165.95 L354.25 168.75 Q342.2 177.6 336.9 181.9 327.75 189.45 327.75 195.75 327.75 198.75 333.25 201.9 338.75 205.05 338.75 208.0 338.75 210.7 322.9 220.9 L322.2 230.4 Q322.0 232.4 320.25 236.4 318.6 240.05 316.95 242.4 L316.35 244.25 318.85 245.1 319.3 244.8 Q325.1 241.3 325.7 247.4 L329.3 248.55 Q361.25 258.75 375.75 258.75 498.75 258.5 500.25 257.75 L502.25 256.25 503.2 255.2 504.0 254.0 505.65 251.75 507.0 249.5 Q509.1 244.65 509.5 239.75 509.9 236.0 509.85 229.05 L509.75 221.0 Q510.2 212.15 510.05 207.9 509.85 200.5 507.15 195.35 499.9 181.65 468.25 171.75 460.5 169.3 448.15 168.7 441.95 168.35 424.6 168.4 392.1 168.5 376.75 163.5 367.8 160.6 361.95 163.2 359.95 164.1 357.7 165.95 M468.8 275.0 Q465.15 268.5 464.8 266.9 L438.25 267.0 Q361.4 267.0 321.2 256.15 L320.55 256.95 Q313.0 266.95 309.2 272.9 303.9 281.1 300.3 289.05 305.7 287.5 313.75 287.5 347.8 294.25 359.1 307.95 363.45 313.2 364.9 320.05 365.75 324.2 365.75 331.75 365.75 361.2 349.25 367.75 342.95 370.25 332.25 370.35 L322.0 370.1 Q351.65 390.75 404.75 390.75 467.55 390.75 485.0 369.8 490.7 362.95 491.3 354.0 L491.35 351.5 Q488.35 354.65 485.2 354.65 479.4 354.65 477.75 349.55 477.2 347.95 477.15 345.9 L477.2 343.9 Q477.2 341.45 488.0 320.45 484.75 306.45 477.75 291.75 474.6 285.15 468.8 275.0 M345.3 307.0 Q340.15 301.75 334.6 298.5 329.05 295.25 325.25 295.25 305.85 295.25 299.8 298.1 L302.2 312.15 303.85 310.75 Q307.75 308.15 313.2 309.35 318.75 310.6 322.5 315.25 326.75 320.55 326.75 328.25 326.75 335.1 323.25 342.55 317.9 354.0 307.1 354.0 L304.8 353.9 Q308.25 358.35 312.55 362.45 L323.85 362.05 Q348.3 360.7 355.25 349.75 357.4 346.3 357.75 340.85 L357.75 332.1 Q357.75 319.65 345.3 307.0 M291.3 242.7 Q286.6 238.65 286.6 235.6 286.6 232.95 304.8 221.6 L315.3 215.15 315.3 213.7 315.2 205.65 Q315.65 196.8 315.5 192.55 315.3 185.15 312.6 180.0 305.35 166.3 273.7 156.4 265.95 153.95 253.6 153.35 247.4 153.0 230.05 153.05 197.55 153.15 182.2 148.15 173.25 145.25 167.4 147.85 165.4 148.75 163.15 150.6 L159.7 153.4 Q147.65 162.25 142.35 166.55 133.2 174.1 133.2 180.4 133.2 183.4 138.7 186.55 144.2 189.7 144.2 192.65 144.2 195.65 124.4 208.05 L103.55 220.4 101.55 220.9 Q106.6 223.8 124.3 229.75 L124.75 229.45 Q130.55 225.95 131.15 232.05 L134.75 233.2 Q166.7 243.4 181.2 243.4 263.4 243.25 291.3 242.85 L291.45 242.85 291.3 242.7 M126.0 241.6 Q118.45 251.6 114.65 257.55 L114.35 258.05 Q122.95 262.6 122.95 266.65 122.95 270.1 120.4 272.4 153.45 279.15 164.55 292.6 168.9 297.85 170.35 304.7 171.2 308.85 171.2 316.4 171.2 345.85 154.7 352.4 148.4 354.9 137.7 355.0 L127.45 354.75 Q157.1 375.4 210.2 375.4 273.0 375.4 290.45 354.45 L292.8 351.2 Q290.1 346.3 288.25 340.95 284.6 330.6 284.6 321.35 284.6 307.75 289.75 292.25 287.05 284.45 283.2 276.4 280.05 269.8 274.25 259.65 270.6 253.15 270.25 251.55 L243.7 251.65 Q166.85 251.65 126.65 240.8 L126.0 241.6 M103.4 289.8 Q103.5 291.5 99.65 291.65 98.05 299.05 98.05 306.15 98.05 315.15 102.45 325.3 L103.1 326.7 Q103.3 324.3 105.05 318.15 L107.05 311.5 Q107.05 310.25 106.05 307.95 105.05 305.65 105.05 304.4 105.05 298.3 109.3 295.4 113.2 292.8 118.65 294.0 124.2 295.25 127.95 299.9 132.2 305.2 132.2 312.9 132.2 319.75 128.7 327.2 123.35 338.65 112.55 338.65 L110.25 338.55 Q113.7 343.0 118.0 347.1 L129.3 346.7 Q153.75 345.35 160.7 334.4 162.85 330.95 163.2 325.5 L163.2 316.75 Q163.2 304.3 150.75 291.65 145.6 286.4 140.05 283.15 134.5 279.9 130.7 279.9 102.8 279.9 102.45 285.8 102.4 287.25 103.4 289.8 M105.75 273.7 L106.75 273.45 105.95 273.25 105.75 273.7 M323.2 210.45 Q324.8 209.5 326.5 208.5 L323.2 206.65 323.2 210.45 M296.1 236.25 Q299.25 238.05 307.45 241.1 L307.7 240.9 308.65 239.85 309.45 238.65 311.1 236.4 312.45 234.15 Q314.25 230.05 314.8 225.9 L298.1 235.75 296.1 236.25 M310.75 252.95 L306.2 251.25 283.2 251.45 Q289.8 259.0 295.2 278.4 299.5 268.95 305.2 260.5 308.1 256.15 310.75 252.95 M292.6 321.5 Q292.6 330.15 296.65 339.85 L296.75 338.65 296.6 332.4 296.2 328.5 Q296.2 318.35 294.05 307.8 292.6 314.8 292.6 321.5 M228.35 537.8 L229.2 534.0 223.6 538.95 Q218.3 543.9 215.45 546.0 210.9 549.25 204.95 552.75 202.2 555.4 201.7 555.5 200.2 555.9 143.55 556.75 126.0 556.75 111.0 555.8 L109.7 557.55 Q105.45 563.0 99.1 563.0 L97.3 562.8 96.1 562.9 Q67.85 565.65 57.05 567.5 51.45 568.5 45.45 570.95 37.3 574.25 34.55 578.25 24.2 593.25 19.3 604.5 9.6 627.15 8.5 633.15 7.8 636.7 7.85 642.1 L8.05 655.9 Q8.05 674.4 8.7 680.45 10.5 697.25 17.3 702.75 18.8 704.0 37.7 708.45 56.55 712.85 61.8 713.25 L66.9 713.8 69.55 713.75 Q75.55 713.75 77.35 715.55 L77.7 716.05 85.7 718.3 Q100.45 721.5 147.45 721.5 169.45 721.5 210.6 710.15 L237.85 702.3 Q250.45 698.75 253.7 698.75 256.25 698.75 257.45 700.55 258.2 701.65 258.2 702.65 258.2 703.75 245.05 708.1 231.7 712.5 213.95 717.25 167.4 729.75 148.2 729.75 99.15 729.75 81.8 726.45 77.8 725.65 69.65 723.25 65.6 722.05 61.45 721.2 46.7 725.2 43.8 736.0 41.05 746.1 41.05 756.65 41.05 780.95 88.55 798.0 104.15 803.6 122.4 807.5 136.45 810.5 140.2 810.5 261.2 809.75 263.2 809.25 L269.45 808.5 271.3 808.05 272.95 807.5 280.7 805.5 294.15 803.1 303.7 801.5 Q310.35 799.45 316.35 795.95 316.9 794.65 318.25 792.7 320.65 789.4 322.7 788.4 325.4 787.05 329.55 786.0 L337.7 778.75 Q347.0 771.05 350.3 754.75 352.2 745.35 352.2 730.4 352.2 701.5 348.25 679.05 344.2 655.85 333.45 625.0 331.95 620.65 329.85 611.95 327.75 603.45 326.2 599.1 320.9 584.2 307.2 572.5 298.0 564.7 281.85 543.9 L281.2 543.05 Q270.45 550.75 258.2 550.75 234.15 550.75 229.4 543.4 227.85 541.05 228.35 537.8" fill="#000000" fill-rule="evenodd" stroke="none"/>
    <path d="M523.05 67.0 Q529.15 72.2 534.2 77.15 589.3 111.6 617.2 153.65 630.65 173.8 636.95 192.45 643.2 210.95 643.2 230.15 L643.2 306.65 643.3 369.75 Q643.05 397.55 641.25 418.9 637.7 408.0 627.9 397.25 615.0 383.1 594.2 371.9 575.8 362.0 560.5 358.95 545.2 355.9 545.2 362.15 545.2 369.05 558.0 375.1 565.7 378.75 586.2 386.3 605.05 393.95 614.4 402.5 627.2 414.2 627.2 430.65 627.2 438.8 621.7 456.9 616.85 472.85 613.2 480.15 610.45 485.65 606.8 494.2 603.5 501.0 598.7 505.65 572.4 530.45 547.25 527.85 L539.45 526.5 533.8 525.15 Q529.2 524.3 529.2 528.15 L528.75 529.8 Q528.65 531.4 530.2 532.7 535.1 536.65 555.2 536.65 603.15 536.65 627.7 486.6 630.35 481.2 632.65 475.45 625.1 512.25 611.7 558.65 600.45 598.1 591.0 622.3 577.25 657.5 559.2 684.65 554.65 691.45 549.85 701.4 L542.05 717.65 Q532.3 736.6 517.2 747.65 504.0 757.25 494.0 761.1 481.55 765.85 449.2 772.65 433.1 775.95 425.35 779.8 420.25 782.25 408.2 783.15 L368.1 786.2 Q357.3 786.0 341.25 785.95 L344.7 783.5 Q355.9 775.55 358.9 758.45 360.2 751.2 360.2 730.25 360.2 699.65 355.95 677.2 352.25 657.55 340.2 620.0 L336.35 606.0 Q334.0 597.15 331.95 592.25 329.9 587.55 322.8 578.6 L311.2 564.5 288.9 536.4 Q301.45 523.35 311.75 498.55 318.7 481.75 323.55 461.9 327.2 447.1 327.2 443.75 327.5 440.1 327.15 436.6 326.5 429.75 323.2 429.75 321.75 429.75 320.8 433.4 320.2 435.55 318.75 444.2 315.0 466.95 309.2 485.75 307.8 490.4 304.2 498.05 299.25 508.5 293.4 517.1 288.4 524.35 283.3 529.55 L283.25 529.6 282.75 529.05 Q266.2 509.75 266.2 520.75 266.2 523.15 275.8 535.95 266.75 542.25 257.3 542.25 244.8 542.25 240.2 540.3 237.2 539.0 237.2 536.5 237.2 534.5 240.7 525.5 L244.2 516.65 Q244.2 515.7 243.5 514.55 242.4 512.75 240.2 512.75 237.7 512.75 229.75 520.85 L220.95 530.25 216.35 534.55 210.95 539.25 Q205.7 543.4 204.95 543.75 L202.3 544.95 Q200.65 545.6 200.2 546.0 L198.45 547.5 Q196.45 548.15 112.25 548.45 111.5 547.55 110.0 547.3 107.4 546.85 103.65 548.45 L103.6 548.5 92.05 548.5 Q89.85 548.5 80.5 545.7 69.1 542.3 59.05 537.8 29.05 524.35 29.05 509.4 29.05 503.05 29.7 500.95 31.85 493.5 40.05 492.75 54.45 491.5 58.75 486.2 60.05 484.6 61.15 481.5 62.35 478.3 63.3 477.0 L74.85 459.15 Q81.85 448.05 88.8 441.75 121.95 411.75 156.8 393.8 164.9 389.6 175.6 384.55 178.3 383.15 179.95 381.95 193.8 383.65 209.7 383.65 277.25 383.65 296.75 360.45 L297.8 359.15 302.15 364.5 Q301.6 365.05 301.6 365.75 L301.45 366.55 Q301.45 367.35 302.1 368.0 303.45 369.25 307.2 369.7 338.35 399.0 404.25 399.0 471.8 399.0 491.3 375.8 497.85 368.0 498.9 357.4 499.25 353.9 499.05 349.55 L498.75 343.85 498.35 339.55 498.75 338.5 Q506.55 315.85 512.5 302.9 523.2 279.65 538.45 267.3 558.5 251.15 588.7 251.15 594.05 251.15 598.15 269.15 601.2 282.7 601.2 288.65 L600.45 294.3 Q599.7 300.7 599.7 305.95 599.7 322.65 607.2 322.65 615.7 322.65 617.25 307.75 617.75 303.0 617.55 296.6 L617.2 289.65 Q617.2 282.95 618.5 276.55 619.85 269.95 619.85 268.55 619.95 264.8 617.5 260.2 614.9 255.25 607.7 246.15 599.75 236.65 593.6 232.4 587.55 228.25 581.3 228.0 575.75 227.75 567.8 230.65 563.8 232.1 550.2 238.15 538.4 243.4 530.15 250.25 524.55 254.9 521.7 259.15 514.25 270.55 495.9 305.3 L493.6 309.7 492.05 302.8 Q485.8 276.0 477.75 266.8 L502.75 266.5 504.85 264.9 506.5 263.75 Q509.6 262.5 510.55 260.45 L511.5 257.75 Q513.15 255.4 514.8 251.75 516.55 247.75 516.75 245.75 517.75 236.05 517.75 221.35 L517.95 213.45 Q518.05 207.9 517.25 203.5 515.0 190.65 504.8 181.35 475.2 154.6 377.75 155.0 377.6 147.15 377.05 145.3 376.55 143.65 374.9 144.95 L370.45 148.6 Q366.85 151.0 362.75 151.0 361.5 151.0 360.5 150.0 359.5 149.0 358.25 149.0 L349.7 159.55 Q340.85 170.5 339.0 172.0 L322.35 185.75 322.3 185.85 322.25 185.9 322.25 185.8 Q319.5 174.4 310.25 166.0 280.65 139.25 183.2 139.65 183.05 131.8 182.5 129.95 182.0 128.3 180.35 129.6 L175.9 133.25 Q172.3 135.65 168.2 135.65 166.95 135.65 165.95 134.65 164.95 133.65 163.7 133.65 L155.15 144.2 Q146.3 155.15 144.45 156.65 L127.8 170.4 Q126.05 172.4 125.55 174.7 125.2 176.45 125.2 181.0 L125.05 184.3 Q124.95 186.05 125.2 187.4 125.55 189.5 127.9 190.85 L131.95 193.15 Q119.65 200.35 110.25 206.25 92.05 217.6 92.05 220.25 92.05 223.3 96.75 227.35 103.15 233.0 116.2 237.6 113.55 240.8 110.65 245.15 107.75 249.5 105.2 254.1 L87.95 246.95 Q71.85 240.2 63.9 233.75 52.95 224.9 52.95 214.15 52.95 198.0 55.7 187.35 58.9 174.95 67.0 164.35 83.05 143.4 133.95 114.15 148.95 105.55 187.1 81.35 217.75 61.85 236.65 52.3 264.2 38.4 291.25 31.55 322.75 23.65 359.45 23.65 444.5 23.65 495.1 48.8 510.95 56.7 523.05 67.0" fill="#999933" fill-rule="evenodd" stroke="none"/>
    <path d="M228.35 537.8 Q227.85 541.05 229.4 543.4 234.15 550.75 258.2 550.75 270.45 550.75 281.2 543.05 L281.85 543.9 Q298.0 564.7 307.2 572.5 320.9 584.2 326.2 599.1 327.75 603.45 329.85 611.95 331.95 620.65 333.45 625.0 344.2 655.85 348.25 679.05 352.2 701.5 352.2 730.4 352.2 745.35 350.3 754.75 347.0 771.05 337.7 778.75 L329.55 786.0 Q325.4 787.05 322.7 788.4 320.65 789.4 318.25 792.7 316.9 794.65 316.35 795.95 310.35 799.45 303.7 801.5 L294.15 803.1 280.7 805.5 272.95 807.5 271.3 808.05 269.45 808.5 263.2 809.25 Q261.2 809.75 140.2 810.5 136.45 810.5 122.4 807.5 104.15 803.6 88.55 798.0 41.05 780.95 41.05 756.65 41.05 746.1 43.8 736.0 46.7 725.2 61.45 721.2 65.6 722.05 69.65 723.25 77.8 725.65 81.8 726.45 99.15 729.75 148.2 729.75 167.4 729.75 213.95 717.25 231.7 712.5 245.05 708.1 258.2 703.75 258.2 702.65 258.2 701.65 257.45 700.55 256.25 698.75 253.7 698.75 250.45 698.75 237.85 702.3 L210.6 710.15 Q169.45 721.5 147.45 721.5 100.45 721.5 85.7 718.3 L77.7 716.05 77.35 715.55 Q75.55 713.75 69.55 713.75 L66.9 713.8 61.8 713.25 Q56.55 712.85 37.7 708.45 18.8 704.0 17.3 702.75 10.5 697.25 8.7 680.45 8.05 674.4 8.05 655.9 L7.85 642.1 Q7.8 636.7 8.5 633.15 9.6 627.15 19.3 604.5 24.2 593.25 34.55 578.25 37.3 574.25 45.45 570.95 51.45 568.5 57.05 567.5 67.85 565.65 96.1 562.9 L97.3 562.8 99.1 563.0 Q105.45 563.0 109.7 557.55 L111.0 555.8 Q126.0 556.75 143.55 556.75 200.2 555.9 201.7 555.5 202.2 555.4 204.95 552.75 210.9 549.25 215.45 546.0 218.3 543.9 223.6 538.95 L229.2 534.0 228.35 537.8" fill="#996600" fill-rule="evenodd" stroke="none"/>
    <path d="M345.3 307.0 Q357.75 319.65 357.75 332.1 L357.75 340.85 Q357.4 346.3 355.25 349.75 348.3 360.7 323.85 362.05 L312.55 362.45 Q308.25 358.35 304.8 353.9 L307.1 354.0 Q317.9 354.0 323.25 342.55 326.75 335.1 326.75 328.25 326.75 320.55 322.5 315.25 318.75 310.6 313.2 309.35 307.75 308.15 303.85 310.75 L302.2 312.15 299.8 298.1 Q305.85 295.25 325.25 295.25 329.05 295.25 334.6 298.5 340.15 301.75 345.3 307.0 M103.4 289.8 Q102.4 287.25 102.45 285.8 102.8 279.9 130.7 279.9 134.5 279.9 140.05 283.15 145.6 286.4 150.75 291.65 163.2 304.3 163.2 316.75 L163.2 325.5 Q162.85 330.95 160.7 334.4 153.75 345.35 129.3 346.7 L118.0 347.1 Q113.7 343.0 110.25 338.55 L112.55 338.65 Q123.35 338.65 128.7 327.2 132.2 319.75 132.2 312.9 132.2 305.2 127.95 299.9 124.2 295.25 118.65 294.0 113.2 292.8 109.3 295.4 105.05 298.3 105.05 304.4 105.05 305.65 106.05 307.95 107.05 310.25 107.05 311.5 L105.05 318.15 Q103.3 324.3 103.1 326.7 L102.45 325.3 Q98.05 315.15 98.05 306.15 98.05 299.05 99.65 291.65 103.5 291.5 103.4 289.8" fill="#6699cc" fill-rule="evenodd" stroke="none"/>
    <path d="M357.7 165.95 Q359.95 164.1 361.95 163.2 367.8 160.6 376.75 163.5 392.1 168.5 424.6 168.4 441.95 168.35 448.15 168.7 460.5 169.3 468.25 171.75 499.9 181.65 507.15 195.35 509.85 200.5 510.05 207.9 510.2 212.15 509.75 221.0 L509.85 229.05 Q509.9 236.0 509.5 239.75 509.1 244.65 507.0 249.5 L505.65 251.75 504.0 254.0 503.2 255.2 502.25 256.25 500.25 257.75 Q498.75 258.5 375.75 258.75 361.25 258.75 329.3 248.55 L325.7 247.4 Q325.1 241.3 319.3 244.8 L318.85 245.1 316.35 244.25 316.95 242.4 Q318.6 240.05 320.25 236.4 322.0 232.4 322.2 230.4 L322.9 220.9 Q338.75 210.7 338.75 208.0 338.75 205.05 333.25 201.9 327.75 198.75 327.75 195.75 327.75 189.45 336.9 181.9 342.2 177.6 354.25 168.75 L357.7 165.95 M291.3 242.85 Q263.4 243.25 181.2 243.4 166.7 243.4 134.75 233.2 L131.15 232.05 Q130.55 225.95 124.75 229.45 L124.3 229.75 Q106.6 223.8 101.55 220.9 L103.55 220.4 124.4 208.05 Q144.2 195.65 144.2 192.65 144.2 189.7 138.7 186.55 133.2 183.4 133.2 180.4 133.2 174.1 142.35 166.55 147.65 162.25 159.7 153.4 L163.15 150.6 Q165.4 148.75 167.4 147.85 173.25 145.25 182.2 148.15 197.55 153.15 230.05 153.05 247.4 153.0 253.6 153.35 265.95 153.95 273.7 156.4 305.35 166.3 312.6 180.0 315.3 185.15 315.5 192.55 315.65 196.8 315.2 205.65 L315.3 213.7 315.3 215.15 304.8 221.6 Q286.6 232.95 286.6 235.6 286.6 238.65 291.3 242.7 L291.3 242.85" fill="#333300" fill-rule="evenodd" stroke="none"/>
  </g>
</svg>
