<?xml version="1.0" encoding="UTF-8" standalone="no"?>
<svg xmlns:xlink="http://www.w3.org/1999/xlink" height="636.75px" width="929.1px" xmlns="http://www.w3.org/2000/svg">
  <g transform="matrix(1.0, 0.0, 0.0, 1.0, 0.0, 0.0)">
    <path d="M509.15 417.25 Q510.7 416.5 511.7 415.4 513.0 413.95 513.0 412.75 513.0 411.2 512.2 410.1 510.55 407.75 506.0 407.75 501.95 407.75 479.35 416.75 453.75 426.9 440.5 429.75 424.4 433.15 385.8 438.6 L347.75 443.5 Q334.2 443.5 326.95 440.7 L322.35 438.75 Q320.0 437.85 317.5 437.75 277.35 436.4 225.65 435.5 L181.25 434.0 Q163.6 432.25 154.65 430.5 144.95 428.6 139.0 425.5 L142.9 421.4 Q144.0 420.1 144.0 419.5 144.0 416.4 141.95 415.05 140.55 414.15 136.95 413.65 L130.7 412.55 Q127.15 411.5 125.0 409.0 122.65 406.2 119.85 401.65 L115.0 393.25 Q113.05 389.95 106.9 375.7 101.3 362.75 101.0 362.75 98.0 362.75 97.3 365.0 97.0 365.8 97.0 369.1 97.0 376.05 109.65 396.4 122.6 417.2 130.0 421.0 127.25 428.0 135.9 433.1 142.45 436.9 149.5 437.5 159.0 438.35 162.95 439.6 167.1 440.9 172.15 441.4 191.8 443.4 304.25 445.25 304.05 445.25 304.0 446.45 L304.0 448.25 Q304.1 449.0 304.5 449.75 305.0 452.0 303.75 452.8 L327.0 451.75 Q368.35 451.75 425.1 440.2 459.0 433.35 485.25 425.5 L491.95 425.5 Q489.0 427.4 489.0 428.5 489.0 429.8 489.5 430.75 490.55 432.75 493.5 432.75 497.9 432.75 512.9 425.5 L530.0 425.5 Q530.3 430.15 534.75 432.6 540.5 435.75 553.5 435.75 571.35 435.75 583.85 431.15 L596.1 426.4 Q604.7 423.3 614.5 421.0 625.25 418.45 633.7 417.75 L642.5 417.0 652.5 415.4 Q664.6 415.75 674.0 415.35 L679.2 415.1 676.15 417.0 Q668.95 421.2 661.35 422.5 L646.9 425.9 Q634.3 428.8 603.35 433.25 580.35 436.6 570.35 439.05 563.65 440.7 549.2 445.8 540.4 441.5 540.05 448.8 522.9 454.0 499.75 457.65 456.65 464.5 401.1 464.5 378.45 464.5 363.15 463.4 L257.35 456.5 220.65 454.1 182.85 451.25 Q151.55 447.8 124.45 439.25 103.25 432.6 93.75 426.25 76.45 414.8 64.45 395.25 53.0 376.65 53.0 362.1 63.25 275.75 80.75 269.0 L101.05 260.9 Q113.8 255.9 124.55 252.45 154.95 242.65 193.35 237.5 L218.05 234.15 231.0 232.3 Q206.95 243.45 195.3 255.65 186.2 265.2 182.7 277.1 180.0 286.35 180.0 300.5 L180.45 310.2 Q181.5 321.3 184.5 330.5 193.95 359.75 219.0 359.75 223.7 359.75 225.3 359.0 227.0 358.15 227.0 355.6 217.25 353.25 207.5 345.3 188.0 329.3 188.0 300.35 188.0 285.65 197.25 271.05 206.25 256.8 222.3 245.25 232.7 237.8 244.7 232.45 L338.0 234.0 Q346.9 234.15 355.05 236.2 365.1 238.75 370.0 239.25 L379.85 240.2 390.75 243.0 Q405.4 246.7 414.8 255.05 408.0 268.15 408.0 285.35 408.0 300.2 410.9 312.15 406.35 316.15 400.75 319.75 389.5 327.05 375.1 332.1 342.55 343.5 293.85 343.5 262.0 343.5 245.15 337.15 240.65 335.4 236.25 332.75 233.0 330.75 232.0 330.75 229.8 330.75 228.75 332.3 228.0 333.35 228.0 334.5 228.0 335.75 231.15 338.2 235.2 341.35 242.0 344.0 261.65 351.75 294.5 351.75 367.05 351.75 405.75 326.3 409.85 323.6 413.45 320.7 417.1 330.7 423.25 338.25 442.35 361.75 485.5 361.75 504.1 361.75 508.5 360.5 510.45 359.95 510.85 358.9 L511.0 356.6 Q511.0 354.7 506.9 354.05 L496.15 353.45 Q474.85 353.1 463.5 350.65 430.25 343.45 420.3 314.45 425.45 309.1 429.1 303.15 436.0 291.85 436.0 280.85 436.0 268.5 427.8 256.95 L424.9 253.2 Q428.3 247.65 432.85 243.5 L443.4 244.0 434.55 242.0 Q446.7 232.0 466.1 231.1 462.15 231.8 460.85 233.95 459.95 235.4 460.05 238.6 460.1 241.85 459.45 243.0 458.85 244.05 457.45 244.65 L472.15 245.25 542.85 247.75 Q565.0 264.75 565.0 299.1 565.0 321.5 504.5 329.55 L462.9 333.5 Q444.0 334.95 444.0 336.5 L443.35 337.3 Q443.0 338.1 444.5 338.75 449.15 340.75 470.5 340.75 516.15 340.75 544.75 329.0 573.0 317.45 573.0 299.35 573.0 268.6 552.35 247.7 578.6 247.1 624.45 242.5 L659.8 238.45 Q666.3 241.65 700.1 259.0 715.8 267.0 724.25 280.45 726.75 284.35 730.8 292.55 734.95 300.95 737.6 305.25 L747.3 320.15 Q752.35 327.65 754.25 331.0 759.85 340.95 759.85 352.85 759.85 359.85 747.45 372.6 734.2 386.2 721.35 390.0 711.45 392.95 702.6 398.25 698.6 400.7 692.8 405.0 L677.55 405.75 667.7 405.7 670.2 400.25 Q674.2 391.05 676.85 388.0 681.55 382.7 689.75 379.85 694.55 378.15 704.3 376.45 713.15 374.9 716.2 373.5 721.1 371.3 721.1 366.75 721.1 360.95 705.35 366.05 697.4 368.6 681.35 375.75 670.7 380.4 665.5 387.4 662.8 390.95 659.0 400.5 657.95 403.2 655.05 405.2 L631.1 403.55 Q600.55 401.05 585.2 401.25 559.25 401.6 536.5 407.75 528.9 409.7 510.8 416.85 L509.25 417.5 509.15 417.25 M671.85 351.45 Q665.4 351.7 651.6 351.35 621.65 350.55 600.95 354.1 596.95 354.8 587.65 358.1 579.05 361.15 566.0 363.0 523.5 368.85 394.15 368.85 297.1 368.85 226.4 364.4 L187.05 361.3 173.45 359.85 129.7 354.1 96.9 349.35 Q91.65 349.35 88.3 350.9 85.05 352.3 85.05 354.2 85.05 358.65 101.1 362.45 131.7 369.65 220.9 374.35 315.25 379.35 395.55 379.35 520.3 379.35 568.7 373.1 583.9 371.1 591.65 368.4 L599.3 365.6 Q609.1 363.75 631.75 363.35 L672.2 362.8 Q695.25 362.2 706.6 359.85 721.15 356.85 721.15 350.35 721.15 346.65 713.15 345.95 704.65 345.2 691.5 348.6 682.55 350.95 671.85 351.45 M426.4 239.85 L411.0 235.25 Q397.8 231.15 387.3 231.4 L380.95 231.7 Q375.1 229.7 372.0 229.25 L355.8 227.95 Q344.2 226.85 338.5 224.25 336.95 223.5 327.85 220.65 L363.5 219.0 Q364.45 219.75 366.0 219.75 L366.8 218.9 Q402.9 217.75 443.85 218.25 515.0 211.4 565.1 215.05 571.05 222.75 574.0 222.75 575.9 222.75 577.05 221.3 578.0 220.0 578.0 218.25 L577.25 216.1 Q596.0 218.05 611.5 221.65 L622.4 224.45 Q622.0 225.55 622.0 226.5 622.0 227.75 622.5 228.75 623.5 230.75 626.0 230.75 L630.65 226.95 Q637.75 229.25 644.95 232.05 L619.15 234.65 Q571.6 239.5 544.85 239.5 L542.95 239.5 Q521.05 222.8 490.5 220.4 474.75 219.15 460.2 222.5 445.2 226.0 433.8 233.9 429.8 236.7 426.4 239.85 M451.45 325.8 Q451.45 323.4 449.9 322.0 448.5 320.75 446.45 320.75 444.4 320.75 443.0 322.0 441.45 323.4 441.45 325.8 L441.95 328.05 Q443.1 330.8 446.45 330.8 449.05 330.8 450.45 328.8 451.45 327.35 451.45 325.8 M376.5 329.8 Q377.45 328.4 377.45 326.8 377.45 324.4 375.9 323.0 374.5 321.75 372.45 321.75 370.4 321.75 369.0 323.0 367.45 324.4 367.45 326.8 L368.0 329.05 Q369.2 331.8 372.45 331.8 L374.85 331.3 Q375.85 330.8 376.5 329.8 M416.0 285.6 Q415.85 273.05 420.7 261.5 428.0 271.25 428.0 281.1 428.0 289.7 422.0 299.25 420.1 302.25 417.8 305.05 416.0 296.15 416.0 285.6" fill="#00cc66" fill-rule="evenodd" stroke="none"/>
    <path d="M670.35 196.0 Q661.7 201.05 643.0 216.45 L635.45 222.85 Q647.95 226.6 659.25 230.75 L673.1 229.75 Q676.9 229.75 678.35 231.55 679.1 232.45 679.1 233.6 679.1 234.75 673.1 236.15 L681.95 240.0 Q687.4 236.95 703.4 231.4 724.5 224.1 732.85 222.25 L740.95 219.8 Q745.85 218.05 748.95 217.4 759.6 215.15 778.85 217.75 792.6 219.75 820.8 221.95 826.9 222.4 828.85 223.25 831.1 224.15 831.1 226.6 L831.0 228.75 Q830.75 229.6 829.4 230.0 L813.6 230.75 Q799.05 230.75 787.85 227.9 776.7 225.0 757.6 225.0 750.3 225.0 718.2 235.9 L691.6 244.7 Q709.7 254.0 718.85 263.25 727.45 277.5 738.4 291.4 L753.9 310.85 Q761.1 320.45 764.15 328.8 767.85 338.9 767.85 352.5 767.85 360.25 766.8 364.25 765.6 368.8 762.1 372.65 758.95 376.1 751.4 381.5 L732.35 394.75 Q728.65 397.3 719.55 401.0 L727.85 399.0 Q733.9 397.4 756.95 388.9 779.8 380.5 791.1 375.75 793.75 374.65 799.9 372.45 L809.1 369.0 Q821.1 364.0 833.45 363.35 842.05 362.85 855.3 364.65 L877.55 367.2 Q890.85 367.9 903.1 365.25 920.9 361.4 926.15 363.1 928.2 363.8 928.8 365.5 929.1 366.35 929.1 368.85 929.1 381.25 925.6 406.75 922.1 432.25 922.1 446.5 L922.1 523.5 914.1 523.25 914.1 412.25 Q918.55 387.25 920.85 371.25 L920.85 371.0 Q893.7 373.05 878.15 370.9 873.25 370.2 860.85 366.55 853.95 364.5 845.15 366.25 833.95 368.45 807.35 378.25 802.7 379.9 791.95 384.55 L778.35 390.25 Q763.3 396.1 745.25 401.95 730.75 406.65 726.1 407.75 710.35 411.7 694.65 413.65 L684.9 421.45 Q677.15 426.75 668.35 429.0 663.35 430.3 660.2 432.15 656.5 434.25 654.75 434.85 646.05 437.8 608.85 440.25 605.2 440.45 580.7 446.8 L559.5 452.55 Q575.3 464.75 594.25 487.5 606.3 504.3 610.85 511.6 619.7 525.8 622.5 536.25 624.65 544.25 636.85 583.85 648.0 621.85 648.0 632.6 648.0 634.05 647.0 635.3 645.8 636.75 644.0 636.75 638.85 636.75 630.15 600.6 620.5 557.15 616.25 542.5 612.8 530.7 606.2 518.6 599.35 506.0 590.25 495.25 569.7 471.1 551.75 459.4 L547.3 456.65 Q533.9 461.5 503.45 466.0 457.45 472.75 401.35 472.75 381.0 472.75 289.35 466.7 L259.7 464.7 Q258.25 475.2 250.1 502.4 L239.75 536.0 Q238.4 542.3 235.1 554.35 231.2 568.45 230.0 573.5 228.5 579.7 225.0 596.75 221.7 610.75 219.0 610.75 L216.9 610.4 215.5 609.5 215.25 608.45 Q215.0 607.55 215.0 606.1 215.0 592.0 222.45 566.65 L228.45 546.7 Q231.7 535.55 233.0 528.5 234.0 523.05 238.95 509.4 243.4 497.2 244.0 490.25 248.15 477.75 250.0 470.75 L250.7 465.75 250.95 464.1 169.35 458.0 Q127.05 454.25 108.45 446.5 101.2 443.45 95.5 438.95 L86.25 430.75 Q69.45 415.6 57.6 396.5 45.0 376.15 45.0 362.0 45.0 358.5 47.8 339.2 L51.0 318.5 Q53.4 307.5 58.85 291.0 63.5 276.8 63.5 275.75 63.5 274.5 62.25 273.9 61.0 273.25 61.0 272.0 61.0 269.0 88.0 245.75 90.85 245.75 92.2 247.55 93.0 248.65 93.0 249.6 93.0 251.75 90.85 253.15 L86.0 256.25 85.0 257.5 Q91.2 255.6 111.45 248.55 127.45 242.95 144.9 238.1 47.0 180.75 47.0 177.0 47.0 168.5 69.15 181.6 76.05 185.65 98.25 201.0 L129.55 220.9 150.0 234.0 Q150.0 235.65 149.3 236.9 167.85 232.05 184.85 230.05 L198.0 228.5 198.0 227.5 Q198.0 224.5 226.7 224.2 L239.85 220.85 Q236.5 216.35 231.75 207.8 220.05 186.7 217.5 184.0 201.3 166.8 178.05 153.45 166.4 146.75 158.0 143.5 158.0 137.8 163.55 137.75 168.85 137.7 178.3 142.7 198.55 153.55 223.5 178.5 230.85 188.1 249.05 218.3 264.0 214.05 274.85 213.75 L362.5 211.25 Q364.35 203.8 373.65 180.8 384.65 153.6 388.25 147.25 392.4 140.05 395.2 130.2 L399.75 113.5 402.65 105.3 Q404.7 99.6 405.0 97.0 405.5 92.8 407.45 88.85 409.3 85.15 411.5 83.35 413.85 81.5 415.3 82.85 417.0 84.35 417.0 89.65 417.0 92.8 407.75 118.35 399.0 142.3 393.5 155.25 L377.55 194.45 370.6 211.0 459.95 207.8 465.3 200.55 Q474.75 187.7 483.25 174.75 L495.65 156.8 Q503.85 145.05 508.0 138.0 511.8 131.5 516.15 125.35 512.95 118.05 510.25 111.25 492.6 66.8 458.75 0.25 L467.5 0.0 468.5 1.5 470.25 5.25 473.75 12.0 Q478.3 20.7 480.5 25.5 L487.2 39.45 493.75 53.25 506.1 80.7 Q513.65 97.6 517.5 108.0 519.15 112.45 521.6 117.85 535.25 100.0 553.3 84.85 564.75 75.25 572.25 72.0 580.0 68.65 580.0 73.65 580.0 74.5 572.75 80.8 560.05 91.85 555.05 96.5 537.8 112.35 525.9 126.95 535.5 146.35 553.0 175.3 L555.15 178.9 Q571.2 164.0 576.25 158.5 580.95 153.35 586.5 145.6 591.95 138.1 594.75 133.0 601.1 121.4 606.95 115.8 614.0 109.0 614.0 118.65 614.0 121.1 600.15 140.5 586.3 159.9 579.5 167.0 570.25 176.7 559.9 186.7 L570.5 204.1 573.2 208.65 Q599.0 212.7 625.05 219.9 629.65 213.85 641.4 204.9 659.3 191.2 684.05 177.8 709.65 163.9 726.7 159.05 746.1 153.55 746.1 162.6 746.1 163.85 741.15 165.15 L729.0 167.85 Q708.45 172.35 698.85 178.0 693.25 181.3 684.15 187.3 675.25 193.15 670.35 196.0 M509.25 417.5 L510.8 416.85 Q528.9 409.7 536.5 407.75 559.25 401.6 585.2 401.25 600.55 401.05 631.1 403.55 L655.05 405.2 Q657.95 403.2 659.0 400.5 662.8 390.95 665.5 387.4 670.7 380.4 681.35 375.75 697.4 368.6 705.35 366.05 721.1 360.95 721.1 366.75 721.1 371.3 716.2 373.5 713.15 374.9 704.3 376.45 694.55 378.15 689.75 379.85 681.55 382.7 676.85 388.0 674.2 391.05 670.2 400.25 L667.7 405.7 677.55 405.75 692.8 405.0 Q698.6 400.7 702.6 398.25 711.45 392.95 721.35 390.0 734.2 386.2 747.45 372.6 759.85 359.85 759.85 352.85 759.85 340.95 754.25 331.0 752.35 327.65 747.3 320.15 L737.6 305.25 Q734.95 300.95 730.8 292.55 726.75 284.35 724.25 280.45 715.8 267.0 700.1 259.0 666.3 241.65 659.8 238.45 L624.45 242.5 Q578.6 247.1 552.35 247.7 573.0 268.6 573.0 299.35 573.0 317.45 544.75 329.0 516.15 340.75 470.5 340.75 449.15 340.75 444.5 338.75 443.0 338.1 443.35 337.3 L444.0 336.5 Q444.0 334.95 462.9 333.5 L504.5 329.55 Q565.0 321.5 565.0 299.1 565.0 264.75 542.85 247.75 L472.15 245.25 457.45 244.65 Q458.85 244.05 459.45 243.0 460.1 241.85 460.05 238.6 459.95 235.4 460.85 233.95 462.15 231.8 466.1 231.1 446.7 232.0 434.55 242.0 L443.4 244.0 432.85 243.5 Q428.3 247.65 424.9 253.2 L427.8 256.95 Q436.0 268.5 436.0 280.85 436.0 291.85 429.1 303.15 425.45 309.1 420.3 314.45 430.25 343.45 463.5 350.65 474.85 353.1 496.15 353.45 L506.9 354.05 Q511.0 354.7 511.0 356.6 L510.85 358.9 Q510.45 359.95 508.5 360.5 504.1 361.75 485.5 361.75 442.35 361.75 423.25 338.25 417.1 330.7 413.45 320.7 409.85 323.6 405.75 326.3 367.05 351.75 294.5 351.75 261.65 351.75 242.0 344.0 235.2 341.35 231.15 338.2 228.0 335.75 228.0 334.5 228.0 333.35 228.75 332.3 229.8 330.75 232.0 330.75 233.0 330.75 236.25 332.75 240.65 335.4 245.15 337.15 262.0 343.5 293.85 343.5 342.55 343.5 375.1 332.1 389.5 327.05 400.75 319.75 406.35 316.15 410.9 312.15 408.0 300.2 408.0 285.35 408.0 268.15 414.8 255.05 405.4 246.7 390.75 243.0 L379.85 240.2 370.0 239.25 Q365.1 238.75 355.05 236.2 346.9 234.15 338.0 234.0 L244.7 232.45 Q232.7 237.8 222.3 245.25 206.25 256.8 197.25 271.05 188.0 285.65 188.0 300.35 188.0 329.3 207.5 345.3 217.25 353.25 227.0 355.6 227.0 358.15 225.3 359.0 223.7 359.75 219.0 359.75 193.95 359.75 184.5 330.5 181.5 321.3 180.45 310.2 L180.0 300.5 Q180.0 286.35 182.7 277.1 186.2 265.2 195.3 255.65 206.95 243.45 231.0 232.3 L218.05 234.15 193.35 237.5 Q154.95 242.65 124.55 252.45 113.8 255.9 101.05 260.9 L80.75 269.0 Q63.25 275.75 53.0 362.1 53.0 376.65 64.45 395.25 76.45 414.8 93.75 426.25 103.25 432.6 124.45 439.25 151.55 447.8 182.85 451.25 L220.65 454.1 257.35 456.5 363.15 463.4 Q378.45 464.5 401.1 464.5 456.65 464.5 499.75 457.65 522.9 454.0 540.05 448.8 540.4 441.5 549.2 445.8 563.65 440.7 570.35 439.05 580.35 436.6 603.35 433.25 634.3 428.8 646.9 425.9 L661.35 422.5 Q668.95 421.2 676.15 417.0 L679.2 415.1 674.0 415.35 Q664.6 415.75 652.5 415.4 L642.5 417.0 633.7 417.75 Q625.25 418.45 614.5 421.0 604.7 423.3 596.1 426.4 L583.85 431.15 Q571.35 435.75 553.5 435.75 540.5 435.75 534.75 432.6 530.3 430.15 530.0 425.5 L512.9 425.5 Q497.9 432.75 493.5 432.75 490.55 432.75 489.5 430.75 489.0 429.8 489.0 428.5 489.0 427.4 491.95 425.5 L485.25 425.5 Q459.0 433.35 425.1 440.2 368.35 451.75 327.0 451.75 L303.75 452.8 Q305.0 452.0 304.5 449.75 304.1 449.0 304.0 448.25 L304.0 446.45 Q304.05 445.25 304.25 445.25 191.8 443.4 172.15 441.4 167.1 440.9 162.95 439.6 159.0 438.35 149.5 437.5 142.45 436.9 135.9 433.1 127.25 428.0 130.0 421.0 122.6 417.2 109.65 396.4 97.0 376.05 97.0 369.1 97.0 365.8 97.3 365.0 98.0 362.75 101.0 362.75 101.3 362.75 106.9 375.7 113.05 389.95 115.0 393.25 L119.85 401.65 Q122.65 406.2 125.0 409.0 127.15 411.5 130.7 412.55 L136.95 413.65 Q140.55 414.15 141.95 415.05 144.0 416.4 144.0 419.5 144.0 420.1 142.9 421.4 L139.0 425.5 Q144.95 428.6 154.65 430.5 163.6 432.25 181.25 434.0 L225.65 435.5 Q277.35 436.4 317.5 437.75 320.0 437.85 322.35 438.75 L326.95 440.7 Q334.2 443.5 347.75 443.5 L385.8 438.6 Q424.4 433.15 440.5 429.75 453.75 426.9 479.35 416.75 501.95 407.75 506.0 407.75 510.55 407.75 512.2 410.1 513.0 411.2 513.0 412.75 513.0 413.95 511.7 415.4 510.7 416.5 509.15 417.25 507.6 418.05 505.5 418.5 L506.8 418.5 509.25 417.5 M671.85 351.45 Q682.55 350.95 691.5 348.6 704.65 345.2 713.15 345.95 721.15 346.65 721.15 350.35 721.15 356.85 706.6 359.85 695.25 362.2 672.2 362.8 L631.75 363.35 Q609.1 363.75 599.3 365.6 L591.65 368.4 Q583.9 371.1 568.7 373.1 520.3 379.35 395.55 379.35 315.25 379.35 220.9 374.35 131.7 369.65 101.1 362.45 85.05 358.65 85.05 354.2 85.05 352.3 88.3 350.9 91.65 349.35 96.9 349.35 L129.7 354.1 173.45 359.85 187.05 361.3 226.4 364.4 Q297.1 368.85 394.15 368.85 523.5 368.85 566.0 363.0 579.05 361.15 587.65 358.1 596.95 354.8 600.95 354.1 621.65 350.55 651.6 351.35 665.4 351.7 671.85 351.45 M512.75 145.25 Q495.35 173.6 486.65 186.65 478.1 199.5 472.55 206.5 L475.0 206.1 501.85 204.25 Q514.2 203.45 528.05 204.0 L544.7 188.5 547.05 186.4 543.65 180.35 Q529.95 155.6 520.2 134.3 516.05 139.9 512.75 145.25 M426.4 239.85 Q429.8 236.7 433.8 233.9 445.2 226.0 460.2 222.5 474.75 219.15 490.5 220.4 521.05 222.8 542.95 239.5 L544.85 239.5 Q571.6 239.5 619.15 234.65 L644.95 232.05 Q637.75 229.25 630.65 226.95 L626.0 230.75 Q623.5 230.75 622.5 228.75 622.0 227.75 622.0 226.5 622.0 225.55 622.4 224.45 L611.5 221.65 Q596.0 218.05 577.25 216.1 L578.0 218.25 Q578.0 220.0 577.05 221.3 575.9 222.75 574.0 222.75 571.05 222.75 565.1 215.05 515.0 211.4 443.85 218.25 402.9 217.75 366.8 218.9 L366.0 219.75 Q364.45 219.75 363.5 219.0 L327.85 220.65 Q336.95 223.5 338.5 224.25 344.2 226.85 355.8 227.95 L372.0 229.25 Q375.1 229.7 380.95 231.7 L387.3 231.4 Q397.8 231.15 411.0 235.25 L426.4 239.85 M411.5 242.35 Q415.75 244.75 419.35 247.75 421.15 245.3 423.25 243.0 L411.5 242.35 M416.0 285.6 Q416.0 296.15 417.8 305.05 420.1 302.25 422.0 299.25 428.0 289.7 428.0 281.1 428.0 271.25 420.7 261.5 415.85 273.05 416.0 285.6 M376.5 329.8 Q375.85 330.8 374.85 331.3 L372.45 331.8 Q369.2 331.8 368.0 329.05 L367.45 326.8 Q367.45 324.4 369.0 323.0 370.4 321.75 372.45 321.75 374.5 321.75 375.9 323.0 377.45 324.4 377.45 326.8 377.45 328.4 376.5 329.8 M451.45 325.8 Q451.45 327.35 450.45 328.8 449.05 330.8 446.45 330.8 443.1 330.8 441.95 328.05 L441.45 325.8 Q441.45 323.4 443.0 322.0 444.4 320.75 446.45 320.75 448.5 320.75 449.9 322.0 451.45 323.4 451.45 325.8 M559.2 206.65 L551.7 194.5 540.3 204.75 559.2 206.65 M497.25 232.05 L476.75 231.05 Q489.4 232.25 512.5 238.0 L526.85 238.85 Q514.25 233.85 497.25 232.05 M4.0 265.75 L1.9 265.4 0.5 264.5 0.25 263.65 Q0.0 262.95 0.0 261.5 0.0 258.3 4.0 258.0 8.0 257.65 8.0 261.6 8.0 262.95 7.0 264.25 5.8 265.75 4.0 265.75 M300.55 222.6 L276.1 225.0 333.45 228.0 310.2 221.85 300.55 222.6 M600.75 416.1 Q606.45 414.25 613.3 413.15 L585.1 411.9 Q559.5 411.7 535.3 415.9 537.65 416.2 537.85 417.6 538.0 418.7 537.15 421.65 536.55 427.5 554.0 427.5 566.05 427.5 574.65 425.6 580.6 424.3 587.95 421.2 597.15 417.25 600.75 416.1" fill="#0066ff" fill-rule="evenodd" stroke="none"/>
  </g>
</svg>
