<?xml version="1.0" encoding="UTF-8" standalone="no"?>
<svg xmlns:xlink="http://www.w3.org/1999/xlink" height="45.8px" width="117.0px" xmlns="http://www.w3.org/2000/svg">
  <g transform="matrix(1.0, 0.0, 0.0, 1.0, -10.0, -9.5)">
    <use height="13.75" transform="matrix(3.3333, 0.0, 0.0, 3.3333, 9.9833, 9.4833)" width="35.1" xlink:href="#text0"/>
  </g>
  <defs>
    <g id="text0" transform="matrix(1.0, 0.0, 0.0, 1.0, -1.0, -0.85)">
      <g transform="matrix(1.0, 0.0, 0.0, 1.0, 0.0, 0.0)">
        <use fill="#000000" height="13.75" transform="matrix(0.0146, 0.0, 0.0, 0.0146, 0.0, 14.0)" width="35.1" xlink:href="#font_Arial_Greek_m0"/>
        <use fill="#000000" height="13.75" transform="matrix(0.0146, 0.0, 0.0, 0.0146, 12.5, 14.0)" width="35.1" xlink:href="#font_Arial_Greek_i0"/>
        <use fill="#000000" height="13.75" transform="matrix(0.0146, 0.0, 0.0, 0.0146, 15.85, 14.0)" width="35.1" xlink:href="#font_Arial_Greek_l0"/>
        <use fill="#000000" height="13.75" transform="matrix(0.0146, 0.0, 0.0, 0.0146, 19.2, 14.0)" width="35.1" xlink:href="#font_Arial_Greek_k0"/>
      </g>
    </g>
    <g id="font_Arial_Greek_m0">
      <path d="M67.5 0.0 L157.5 0.0 157.5 -275.5 Q157.5 -348.0 172.0 -386.5 186.5 -425.0 219.0 -445.0 251.0 -465.0 289.0 -465.0 339.0 -465.0 361.0 -435.0 383.0 -405.0 383.0 -345.0 L383.0 0.0 473.0 0.0 473.0 -308.5 Q473.0 -390.5 510.0 -427.5 547.0 -465.0 603.0 -465.0 634.0 -465.0 657.0 -450.5 680.0 -436.0 689.0 -412.0 697.5 -388.5 697.5 -334.5 L697.5 0.0 787.0 0.0 787.0 -364.5 Q787.0 -455.5 744.5 -499.0 702.0 -543.0 623.0 -543.0 522.0 -543.0 459.0 -450.0 443.5 -494.0 406.0 -518.5 368.0 -543.0 309.0 -543.0 256.0 -543.0 214.5 -519.0 173.0 -495.5 148.0 -456.5 L148.0 -531.0 67.5 -531.0 67.5 0.0" fill-rule="evenodd" stroke="none"/>
    </g>
    <g id="font_Arial_Greek_i0">
      <path d="M68.0 0.0 L158.0 0.0 158.0 -531.0 68.0 -531.0 68.0 0.0 M68.0 -629.5 L158.0 -629.5 158.0 -733.0 68.0 -733.0 68.0 -629.5" fill-rule="evenodd" stroke="none"/>
    </g>
    <g id="font_Arial_Greek_l0">
      <path d="M65.5 0.0 L155.5 0.0 155.5 -733.0 65.5 -733.0 65.5 0.0" fill-rule="evenodd" stroke="none"/>
    </g>
    <g id="font_Arial_Greek_k0">
      <path d="M68.0 0.0 L158.0 0.0 158.0 -210.5 221.5 -271.5 397.0 0.0 508.0 0.0 284.5 -334.0 487.5 -531.0 371.0 -531.0 158.0 -315.0 158.0 -733.0 68.0 -733.0 68.0 0.0" fill-rule="evenodd" stroke="none"/>
    </g>
  </defs>
</svg>
