<?xml version="1.0" encoding="UTF-8" standalone="no"?>
<svg xmlns:xlink="http://www.w3.org/1999/xlink" height="989.25px" width="832.05px" xmlns="http://www.w3.org/2000/svg">
  <g transform="matrix(1.0, 0.0, 0.0, 1.0, 505.05, 76.4)">
    <path d="M-83.0 -29.85 L-83.1 -20.1 Q-83.1 -17.05 -82.6 -15.1 L-74.5 5.0 -70.5 13.3 Q-67.45 19.05 -66.25 22.25 -64.05 27.65 -57.05 31.2 -53.65 32.9 -52.8 33.55 -51.0 34.95 -51.0 36.85 -51.0 39.45 -52.8 40.3 -54.25 41.0 -58.5 41.0 -69.1 41.0 -75.9 27.05 -78.2 22.35 -80.45 15.25 L-83.5 5.25 Q-87.5 -6.85 -90.25 -14.55 -91.0 -17.5 -91.0 -30.0 -91.0 -51.7 -79.45 -64.7 -68.9 -76.55 -54.0 -76.4 -38.85 -76.25 -28.55 -63.7 -17.0 -49.65 -17.0 -25.25 -17.0 -6.0 -18.5 6.25 -20.05 19.1 -23.95 31.1 -27.5 41.75 -35.05 57.9 L-53.25 95.5 -60.95 111.5 Q-65.45 120.3 -69.85 126.7 -81.2 143.2 -100.75 156.25 -106.05 159.75 -112.9 164.75 -112.0 169.2 -112.0 171.85 -112.0 172.95 -112.5 176.85 L-113.0 182.2 -113.0 182.75 -113.6 183.2 -115.0 184.0 Q-118.4 182.5 -117.6 178.35 L-116.85 175.95 -118.8 169.1 -127.0 175.3 -124.0 189.65 Q-115.0 236.75 -115.0 258.5 L-115.1 268.0 -115.0 269.75 Q-115.0 271.2 -115.15 271.15 L-115.25 271.15 -115.25 271.25 -115.45 271.35 -115.3 271.65 Q-115.45 272.0 -117.0 272.0 -122.55 260.65 -129.8 247.5 -140.9 227.45 -149.1 217.55 -146.8 224.0 -144.45 232.45 L-138.0 256.25 -138.0 269.0 -138.25 269.5 Q-138.5 270.0 -140.0 270.0 -145.0 270.0 -155.0 236.15 L-162.85 206.35 -163.15 206.7 Q-166.55 212.15 -167.25 221.25 L-167.3 221.65 Q-167.45 222.0 -169.0 222.0 -170.8 222.0 -172.1 210.5 L-173.35 211.55 Q-177.0 226.7 -177.0 238.6 -177.0 273.4 -167.0 315.05 -164.45 325.6 -160.1 340.85 -157.0 351.85 -157.0 353.35 -157.0 357.7 -166.55 360.75 L-171.9 362.15 Q-171.15 364.4 -170.9 368.3 -170.55 372.95 -170.85 377.85 -170.85 389.0 -170.4 393.0 L-173.65 409.9 -159.5 437.6 -159.0 437.6 -159.0 365.75 Q-158.85 364.7 -157.3 359.8 -156.0 355.5 -156.0 353.75 -154.05 347.95 -150.2 345.6 -146.0 343.05 -146.0 350.85 -146.0 354.95 -148.5 363.8 -151.0 372.7 -151.0 377.5 L-151.0 403.0 -150.3 433.95 Q-150.45 453.85 -155.0 453.85 -160.8 453.85 -172.3 432.85 L-177.0 423.7 -177.6 425.4 -180.85 434.5 -182.1 439.15 Q-182.6 440.9 -183.55 442.3 L-182.35 445.0 Q-179.45 454.75 -177.6 464.5 -174.15 481.8 -167.35 502.75 -165.45 508.8 -163.45 522.2 -161.3 536.5 -159.85 541.75 -156.35 554.75 -149.15 568.1 -142.85 579.75 -142.85 580.0 -142.85 580.35 -141.65 581.35 -141.05 582.35 -143.65 583.0 -150.15 584.7 -178.8 584.95 L-177.75 587.25 Q-173.75 595.9 -165.1 610.85 -141.65 651.65 -108.7 682.15 -99.8 690.4 -88.75 699.05 -81.0 705.15 -81.0 705.75 -81.0 707.1 -82.0 708.35 -83.2 709.85 -85.0 709.85 -104.6 709.85 -134.65 671.55 -152.3 649.1 -170.35 617.85 -176.7 606.9 -184.65 585.0 L-190.35 585.0 -203.8 584.85 Q-202.3 591.75 -202.3 600.7 -202.25 609.35 -202.85 625.85 -202.65 630.8 -202.75 651.15 -202.8 667.0 -201.85 676.85 L-200.6 689.55 Q-199.5 697.55 -197.35 702.35 -195.05 707.9 -193.35 715.1 L-191.85 721.1 -191.1 722.6 -190.35 724.1 -189.6 725.35 -158.25 725.6 Q-106.3 725.6 -94.9 721.95 -93.6 721.5 -88.65 718.85 -86.4 712.5 -68.1 702.8 -44.3 691.5 -38.5 688.35 -31.45 684.6 -25.0 679.25 L-15.4 671.5 Q-4.1 663.75 22.0 662.1 180.15 661.95 235.2 662.3 266.7 662.55 269.5 663.1 L278.0 665.1 Q281.5 665.9 285.25 667.45 290.5 669.6 294.25 672.6 303.0 679.55 308.0 685.05 310.95 688.3 316.5 695.1 324.7 704.45 326.5 717.4 327.0 721.15 327.0 740.1 327.0 766.65 314.15 785.8 296.05 812.75 251.0 830.1 173.45 860.05 92.35 871.55 33.95 879.85 -42.5 879.85 L-45.65 879.85 -48.5 881.65 Q-71.4 895.7 -99.6 903.7 -131.85 912.85 -167.35 912.85 L-219.6 903.5 Q-274.1 893.4 -297.85 890.85 L-343.85 887.4 -401.6 883.45 Q-471.85 877.75 -471.85 869.25 -471.7 840.9 -469.85 814.1 -466.25 760.85 -457.85 760.85 -455.7 760.85 -454.6 762.65 -453.85 763.85 -453.85 764.75 -453.85 772.55 -457.85 789.1 -461.85 805.6 -461.85 816.1 -461.85 849.85 -462.6 866.35 -429.15 871.2 -357.4 877.5 L-282.35 884.35 -223.6 895.3 Q-174.5 904.6 -167.0 904.6 -135.0 904.6 -104.7 896.3 -82.3 890.15 -62.95 880.2 L-82.35 881.5 -87.8 882.3 Q-86.9 880.7 -87.5 877.85 L-87.8 877.45 Q-88.0 877.1 -88.0 875.6 -88.0 873.0 -87.25 872.65 L-77.15 871.85 -47.6 871.3 Q-33.6 862.25 -24.3 852.25 -13.0 840.05 -13.0 831.35 -13.0 821.35 -19.8 813.2 -30.35 802.5 -38.0 793.1 -40.2 790.3 -51.55 784.1 -57.7 780.75 -72.0 773.6 L-88.45 763.5 Q-102.2 755.1 -105.25 755.1 -246.7 755.1 -295.45 770.0 L-300.5 771.7 Q-298.85 779.7 -298.85 783.75 -298.85 786.05 -300.65 787.1 -301.85 787.85 -303.35 787.85 -304.8 787.85 -306.0 786.25 -306.4 787.65 -307.6 788.1 L-317.85 788.85 Q-347.45 788.85 -403.6 771.35 -423.3 765.2 -439.9 758.85 -454.85 753.15 -454.85 752.25 -454.85 750.15 -435.55 711.3 -414.05 668.0 -407.85 650.6 L-397.8 625.35 Q-391.5 609.7 -389.35 599.6 -385.05 579.3 -377.25 564.3 -409.85 557.8 -409.85 549.5 L-399.15 512.05 Q-387.8 472.05 -385.1 452.0 -383.9 442.95 -380.45 427.8 -376.25 409.55 -375.1 403.25 -373.5 393.65 -370.1 379.25 -368.45 372.05 -363.85 365.0 -380.0 362.0 -380.0 358.5 -380.0 357.55 -366.3 325.15 -349.8 286.0 -340.0 257.25 L-331.8 234.35 -333.0 235.0 -333.4 233.55 -333.45 233.55 -333.8 233.0 -339.2 235.05 Q-346.55 237.45 -357.0 239.05 -361.95 260.1 -362.0 280.25 L-362.0 280.75 -362.35 281.0 -362.5 281.4 Q-362.85 281.9 -363.95 282.0 L-364.0 282.0 -364.5 282.0 Q-372.0 282.0 -374.75 250.4 L-375.4 241.0 -407.35 242.0 Q-431.9 242.0 -451.25 234.1 -461.55 229.9 -472.35 223.0 -483.2 217.6 -488.25 209.85 -490.15 206.95 -491.95 202.6 L-495.1 194.75 Q-501.05 180.75 -503.2 165.75 -504.85 154.55 -504.85 137.75 L-505.05 123.9 Q-505.0 119.65 -503.85 116.85 -503.0 114.7 -498.7 107.5 -492.45 97.0 -486.85 86.75 -485.8 84.85 -477.45 74.55 -470.9 66.5 -470.1 61.25 -469.55 58.05 -464.1 48.5 -461.2 43.35 -457.55 40.75 -452.85 37.45 -452.85 44.85 -452.85 45.5 -455.7 50.6 L-459.1 57.25 Q-423.55 54.05 -404.0 71.65 L-404.0 60.5 Q-396.4 42.35 -389.65 32.85 -378.5 17.2 -360.75 7.75 -343.5 -1.45 -284.9 -0.65 L-242.75 1.25 Q-224.15 2.65 -218.0 4.0 L-185.45 14.2 Q-169.9 19.1 -162.0 23.0 -125.05 41.25 -111.0 74.5 -105.55 87.4 -102.9 104.0 -101.3 114.05 -100.0 132.75 L-100.0 141.8 -98.2 144.6 Q-85.95 134.8 -77.4 122.4 -72.25 114.9 -61.0 92.25 -40.6 51.45 -34.0 31.7 -25.0 4.75 -25.0 -25.1 -23.65 -36.75 -26.75 -46.5 -32.8 -65.5 -55.0 -65.5 -76.65 -65.5 -81.95 -47.8 -84.65 -38.95 -83.0 -29.85 M-130.5 52.55 Q-140.25 40.85 -155.1 31.5 -201.05 2.5 -283.5 2.5 -336.6 2.5 -358.3 9.15 -365.5 11.4 -369.1 14.35 L-372.25 18.0 Q-377.55 24.0 -391.25 42.0 -399.0 52.25 -399.8 65.7 -400.05 69.75 -399.8 75.9 L-397.4 78.8 -393.95 74.8 Q-384.95 64.75 -379.55 64.5 -377.55 60.75 -375.0 58.0 L-373.55 58.25 Q-373.0 58.45 -373.0 60.0 -373.0 63.45 -375.95 70.95 L-382.5 87.15 Q-385.75 95.9 -387.9 104.7 -388.2 108.35 -389.4 111.6 -392.0 124.8 -392.0 138.0 -392.0 148.7 -390.55 161.25 L-388.85 173.55 -388.2 171.25 Q-385.45 161.65 -381.25 151.8 -370.8 127.25 -363.0 126.0 L-361.55 126.25 Q-361.0 126.45 -361.0 128.0 L-361.25 128.65 -361.15 129.1 Q-361.0 129.9 -361.0 132.1 -361.0 138.65 -362.7 148.25 L-366.5 167.2 Q-372.0 194.9 -372.0 218.35 L-372.05 232.1 -359.25 230.3 Q-357.5 223.0 -355.4 215.75 -343.55 174.95 -331.0 167.0 L-330.6 167.05 -330.0 166.0 -328.55 166.25 Q-328.0 166.45 -328.0 168.0 -328.0 169.5 -331.5 181.0 -335.0 192.45 -335.0 196.5 -335.0 200.1 -333.4 211.6 L-331.8 222.05 -330.45 221.35 -329.0 218.3 -321.4 203.6 Q-315.15 184.15 -307.05 170.05 L-304.55 166.05 -303.9 163.85 -304.0 163.5 -303.8 163.55 Q-302.6 159.35 -302.2 156.05 L-302.8 156.4 -304.0 157.0 Q-304.9 155.85 -305.5 154.05 L-306.0 152.0 Q-306.0 146.6 -299.5 142.65 L-294.6 139.8 Q-293.35 138.15 -292.0 137.5 -291.0 137.0 -290.15 137.15 -285.6 134.25 -281.5 131.0 -278.45 128.55 -272.0 129.7 L-272.0 126.75 Q-270.55 125.2 -269.05 120.8 -267.45 116.15 -265.7 114.0 -259.6 106.3 -238.75 108.0 -234.8 119.8 -234.3 122.45 -234.0 124.25 -234.0 133.1 -234.0 138.7 -234.8 143.75 L-234.75 143.75 -221.75 143.6 Q-220.75 128.3 -215.1 117.4 -208.9 105.4 -200.0 103.5 -191.05 101.55 -184.85 111.1 -179.25 119.8 -178.2 135.35 L-178.0 135.55 -177.2 136.6 -175.75 135.05 -174.25 133.0 Q-172.55 131.0 -167.5 131.0 L-164.75 131.5 -164.2 132.15 Q-164.0 132.5 -164.0 134.1 -164.0 141.1 -167.0 154.25 -169.6 165.75 -169.95 173.55 L-169.0 173.0 -167.55 173.45 Q-167.0 173.75 -167.0 175.35 -167.0 177.7 -169.55 179.85 L-168.95 184.2 Q-168.3 184.9 -168.05 186.1 -167.7 187.7 -168.0 189.5 -168.0 191.15 -169.05 195.35 L-169.1 196.15 Q-160.85 189.1 -147.25 179.05 L-133.55 169.05 Q-137.0 152.5 -137.0 145.85 L-136.75 142.1 -136.7 142.05 Q-139.65 139.7 -143.0 137.75 L-143.0 135.5 Q-129.75 139.2 -121.8 152.15 -120.75 153.9 -119.45 156.6 -122.15 147.85 -126.8 134.6 -134.55 112.5 -137.6 105.4 L-138.05 105.2 -138.25 107.25 -138.85 107.55 -140.0 108.0 Q-141.45 106.35 -141.95 102.15 -142.45 97.7 -144.0 95.55 -149.65 87.7 -179.0 86.0 L-179.7 85.65 -181.0 84.75 Q-173.9 80.85 -165.95 80.7 -158.65 80.55 -152.1 83.6 -145.75 86.55 -141.95 91.6 -138.0 96.75 -138.0 102.7 -121.25 106.1 -111.55 120.95 -109.1 124.65 -104.3 134.05 L-105.35 126.1 -107.9 105.45 Q-111.6 80.3 -122.25 64.5 -128.2 55.3 -130.5 52.55 M-114.0 125.6 Q-121.8 113.7 -134.95 106.75 -129.0 115.05 -121.4 136.55 -117.35 148.05 -115.05 156.25 L-107.85 151.5 -100.5 146.35 -101.15 145.6 -102.0 146.0 -102.5 143.9 Q-104.85 140.8 -107.2 136.95 -111.55 129.35 -114.0 125.6 M-133.0 146.75 L-129.0 165.85 -121.95 160.9 -122.3 160.15 Q-126.45 151.65 -132.85 145.4 L-133.0 146.75 M-149.25 192.5 L-160.1 201.05 -160.45 202.3 Q-157.35 211.1 -152.1 227.25 -154.0 218.9 -154.0 215.1 L-153.8 212.4 -154.0 212.25 -153.8 212.2 -153.75 212.05 Q-153.4 210.85 -152.0 210.0 L-151.0 212.45 Q-147.6 213.45 -142.95 218.05 -136.85 224.1 -130.1 234.7 -124.75 243.05 -120.9 251.3 L-122.1 240.65 Q-123.85 218.5 -125.0 208.5 -125.3 205.75 -131.35 179.0 L-131.4 178.65 -149.25 192.5 M-225.35 83.25 Q-225.0 83.5 -225.0 85.0 -225.0 86.4 -225.2 86.45 L-225.75 87.0 Q-242.0 82.05 -255.55 93.3 -259.75 96.8 -265.3 103.35 -271.3 110.45 -273.0 112.0 L-273.7 111.65 -275.0 110.75 Q-274.55 109.8 -272.95 103.25 -271.8 98.4 -268.85 95.4 -259.95 86.35 -225.75 83.0 L-225.35 83.25 M-264.35 121.9 Q-262.2 122.6 -260.7 126.15 -259.4 129.4 -259.1 133.95 L-258.1 134.4 -244.8 140.65 Q-241.3 142.2 -238.8 143.0 -238.0 138.15 -238.0 133.0 -238.0 118.85 -242.7 113.05 -246.75 108.05 -253.0 110.45 -258.9 112.7 -263.3 120.05 L-264.35 121.9 M-264.0 131.5 L-263.0 131.5 Q-263.0 129.25 -264.0 128.25 L-264.0 131.5 M-275.35 134.5 Q-282.0 134.5 -288.45 138.1 L-287.2 140.1 Q-285.0 144.8 -285.0 155.75 -285.0 158.9 -279.0 159.95 -273.0 161.0 -273.0 164.1 -273.0 167.0 -278.0 174.25 L-280.9 178.15 Q-261.75 185.5 -225.0 185.5 -202.8 185.5 -194.6 183.9 -185.5 182.1 -173.7 175.7 L-173.25 174.6 -173.9 171.65 -174.0 166.0 Q-174.0 156.15 -173.7 154.75 -171.9 149.0 -169.0 137.5 -169.0 136.75 -169.25 136.0 -171.05 136.65 -173.15 138.95 -174.55 140.5 -176.0 141.6 L-176.0 142.35 Q-176.0 144.15 -178.25 148.3 -178.8 154.05 -180.5 158.25 -186.1 172.0 -202.5 172.0 -208.05 172.0 -213.4 169.0 -216.15 167.5 -218.0 165.75 L-217.3 167.1 -216.0 169.0 Q-216.3 169.95 -216.65 170.3 -217.35 171.0 -219.0 171.0 L-221.25 170.5 Q-222.0 163.75 -222.0 150.6 L-221.95 147.95 Q-228.7 147.65 -235.25 146.4 -236.05 150.2 -237.3 153.75 -243.05 170.0 -257.0 170.0 -260.6 170.0 -264.3 167.0 -267.95 164.0 -269.5 164.0 L-272.0 163.5 -272.0 134.7 -275.35 134.5 M-259.0 145.5 Q-259.7 151.0 -263.5 151.0 -264.55 151.0 -265.4 150.3 L-265.0 151.8 Q-261.2 165.5 -256.6 165.5 -245.2 165.5 -240.5 150.3 L-239.25 145.55 Q-246.05 143.9 -252.65 141.25 L-259.0 138.7 -259.0 145.5 M-294.55 148.45 Q-295.0 149.85 -295.0 155.25 -295.0 159.85 -293.7 167.25 L-292.75 171.7 Q-290.05 173.75 -287.45 175.15 L-284.6 176.6 Q-282.15 175.15 -280.2 171.95 -278.65 169.4 -277.5 165.5 -290.85 163.1 -291.6 155.7 -291.85 153.05 -290.55 149.25 L-288.25 143.25 -288.25 142.5 Q-293.35 144.5 -294.55 148.45 M-298.75 151.3 Q-298.35 147.95 -297.15 144.85 -300.0 147.95 -301.15 151.25 L-300.2 151.2 -298.75 151.3 M-298.5 162.65 L-298.6 161.55 -298.8 162.1 -298.5 162.65 M-298.0 166.6 L-298.1 167.25 -297.7 167.55 -298.0 166.15 -298.0 166.6 M-297.1 183.35 Q-296.85 184.15 -296.85 186.0 -296.85 188.1 -303.95 201.65 -311.45 216.05 -315.35 219.75 L-318.2 222.45 Q-330.1 253.95 -333.0 262.25 -343.45 292.2 -349.7 309.0 -359.7 335.7 -369.0 356.5 L-369.5 356.75 Q-363.2 356.9 -357.3 357.95 L-356.95 357.9 Q-356.6 357.9 -356.25 358.15 L-355.95 358.2 -354.3 356.85 -351.2 356.8 Q-350.4 357.55 -350.05 359.25 L-342.35 359.75 Q-336.8 359.75 -332.1 358.55 -326.55 356.85 -322.45 355.9 -306.05 352.0 -269.5 352.0 -239.85 352.0 -222.75 353.9 L-194.1 355.75 Q-181.85 355.75 -172.85 353.3 L-166.0 350.75 Q-172.9 329.7 -178.7 296.6 -185.0 261.0 -185.0 238.25 -183.95 224.7 -181.8 211.35 L-181.85 210.75 -181.5 209.35 Q-178.0 187.35 -173.7 183.75 L-173.75 182.5 -178.75 184.5 Q-194.5 190.0 -225.0 190.0 -264.75 190.0 -285.1 181.7 L-286.5 182.0 Q-291.55 182.0 -294.6 176.55 -297.5 174.5 -299.55 172.05 L-302.75 181.15 -300.85 181.0 Q-297.95 181.0 -297.1 183.35 M-184.0 128.25 Q-186.45 118.25 -190.35 113.3 -201.4 99.35 -218.0 132.5 L-218.0 143.5 Q-199.7 142.95 -189.25 141.0 -188.1 138.1 -188.0 132.5 L-182.95 133.1 -184.0 128.25 M-202.85 167.5 Q-191.7 167.5 -186.35 159.8 L-187.0 160.0 -190.0 159.5 Q-190.0 157.95 -191.0 154.05 -192.0 150.2 -192.0 149.0 L-191.8 146.6 -218.0 148.0 -218.0 164.0 Q-215.7 164.0 -211.3 165.75 -206.9 167.5 -202.85 167.5 M-263.45 371.3 Q-256.4 374.95 -255.25 379.15 L-254.45 378.0 Q-248.45 370.25 -235.25 380.75 -216.0 394.35 -204.95 398.85 -201.7 400.2 -199.45 400.6 L-198.0 400.85 Q-198.0 403.35 -199.8 404.25 -201.35 405.0 -205.5 405.0 -220.05 405.0 -230.9 396.45 L-239.1 389.4 Q-243.85 385.45 -248.0 383.75 L-254.9 403.9 -245.5 404.75 Q-239.15 405.8 -234.15 407.6 -229.0 409.45 -229.0 410.85 -229.0 413.3 -230.75 414.25 -232.2 415.0 -235.5 415.0 -238.0 415.0 -249.5 412.25 L-257.05 410.25 Q-263.0 428.55 -263.0 432.75 -263.0 434.9 -256.1 436.2 L-241.0 437.9 -225.85 439.5 Q-219.0 440.7 -219.0 442.75 L-219.1 444.85 Q-219.3 445.45 -220.05 445.85 L-202.15 444.95 -201.95 444.95 Q-201.7 434.35 -199.0 415.75 -194.8 387.0 -188.5 387.0 -186.65 387.0 -181.1 396.35 L-179.75 374.4 Q-179.2 367.0 -178.05 363.15 L-193.5 364.0 -221.35 362.15 -269.6 360.25 Q-307.5 360.25 -322.75 364.15 -326.6 365.1 -331.65 366.8 -336.05 368.0 -342.0 368.0 L-350.55 367.0 -351.35 371.9 Q-352.85 381.15 -352.85 384.0 -352.85 417.75 -335.65 431.25 -322.25 441.75 -294.35 441.75 L-262.55 442.85 -264.05 442.3 Q-268.1 440.75 -270.8 438.95 -273.0 437.45 -273.0 436.85 -273.0 435.9 -266.85 416.55 L-258.75 390.5 -258.35 388.35 -258.7 388.55 Q-268.1 393.55 -301.0 393.0 L-301.0 423.5 Q-300.25 425.7 -299.6 428.8 -299.0 432.0 -299.0 433.85 -299.0 435.7 -300.5 436.85 -301.8 437.85 -303.5 437.85 -308.2 437.85 -309.05 421.75 L-309.0 405.6 Q-309.0 386.35 -300.55 376.4 -293.55 368.15 -282.0 367.4 -272.15 366.75 -263.45 371.3 M-263.0 380.5 Q-271.85 373.95 -280.85 375.3 -288.9 376.55 -298.25 384.5 L-281.5 384.75 -270.95 383.85 Q-264.7 383.1 -263.0 380.5 M-110.55 366.25 L-87.5 362.65 Q-54.0 358.4 -54.0 362.85 -54.0 366.1 -69.25 369.5 -77.75 371.4 -86.45 372.3 -86.0 374.45 -86.0 377.5 -86.0 380.15 -89.6 398.75 L-94.0 422.5 Q-96.4 442.95 -97.6 449.25 -98.45 453.75 -99.35 457.0 L-65.5 458.85 Q-61.4 458.85 -59.8 460.65 -59.0 461.6 -59.0 462.75 -59.0 465.7 -61.55 466.6 -65.0 467.85 -77.0 467.85 -92.6 467.85 -104.2 465.7 L-105.0 465.85 -107.1 465.5 -107.9 464.95 -114.55 463.1 Q-119.55 461.45 -122.6 459.5 -125.0 457.9 -125.0 457.1 -125.0 454.65 -122.2 454.4 L-112.55 455.35 -108.3 455.95 -104.85 436.8 Q-100.7 415.25 -99.0 409.25 -98.7 406.0 -97.0 397.0 -95.35 388.45 -95.0 383.0 -94.6 376.5 -93.4 372.8 L-101.0 373.0 Q-116.9 373.0 -120.5 371.0 -121.65 370.35 -121.45 369.55 L-121.0 368.75 Q-121.0 368.15 -110.55 366.25 M-47.65 390.4 L-53.5 391.0 Q-59.85 391.0 -61.55 389.0 -62.0 388.45 -62.0 386.75 -62.0 384.45 -56.35 381.65 -50.55 378.8 -43.55 377.75 -35.55 376.5 -30.1 378.55 -23.6 381.0 -22.25 387.75 L-20.4 398.35 Q-19.0 405.4 -19.0 408.35 -19.0 409.5 -23.0 414.25 -27.1 419.1 -32.5 424.25 -39.65 431.05 -44.9 434.45 -39.1 435.5 -30.0 438.45 -20.5 441.5 -12.8 445.05 -5.0 448.65 -5.0 450.0 -5.0 451.5 -6.3 452.6 -7.7 453.85 -10.0 453.85 -14.75 453.85 -35.05 445.9 -49.6 440.15 -53.55 437.85 -56.5 437.85 -57.55 435.9 -58.0 435.0 -58.0 433.6 -58.0 432.95 -42.5 421.8 -27.0 410.65 -27.0 408.0 -27.0 406.5 -28.5 397.5 -30.2 387.25 -31.25 387.25 -44.7 387.25 -46.3 389.15 L-47.65 390.4 M-399.5 90.4 Q-399.85 90.9 -400.95 91.0 L-401.05 91.0 -401.5 91.0 -404.0 90.5 -404.0 83.45 -406.3 81.05 Q-415.45 72.2 -429.35 67.9 -442.65 63.8 -452.4 66.0 -462.85 68.4 -462.85 77.1 -462.85 85.5 -462.4 87.25 L-458.1 100.75 Q-456.45 106.5 -447.0 114.3 -438.0 121.75 -433.85 121.75 -409.3 121.75 -400.35 113.75 -395.85 109.7 -395.85 103.6 -395.85 96.35 -399.35 90.0 L-399.5 90.4 M-389.05 95.3 Q-387.8 91.9 -386.7 87.5 L-384.3 77.25 Q-383.0 72.05 -381.15 67.8 -387.15 71.7 -392.25 78.55 L-394.95 82.3 Q-392.4 86.3 -390.65 90.8 -389.7 93.15 -389.05 95.3 M-470.85 82.5 L-470.9 82.05 -471.1 81.25 Q-488.65 101.95 -492.8 111.05 -496.85 120.0 -496.85 137.5 -496.85 152.7 -496.3 158.35 -494.55 176.6 -487.9 190.8 -467.7 233.75 -406.75 233.75 L-375.75 232.45 -375.9 228.55 -376.0 218.5 Q-376.0 189.95 -373.55 176.6 -369.0 157.35 -364.35 133.2 L-364.95 134.0 Q-370.25 141.15 -373.75 147.05 -385.3 166.55 -387.0 185.8 L-387.0 189.75 -387.25 189.9 -387.25 190.25 -387.85 190.55 -389.0 191.0 Q-390.0 189.8 -390.55 188.1 L-390.95 186.2 Q-394.65 176.25 -395.6 164.65 -396.0 159.75 -396.0 138.35 -396.0 126.65 -395.55 120.45 -405.9 130.0 -428.35 130.0 -447.65 130.0 -460.7 111.4 -465.85 104.15 -468.65 95.7 -471.2 88.0 -470.85 82.5 M-337.5 185.65 Q-341.9 194.55 -345.5 203.3 -350.9 216.5 -354.55 229.4 -343.5 227.1 -335.25 223.65 L-336.4 216.6 Q-339.0 200.0 -339.0 196.25 -339.0 191.8 -337.5 185.65 M-371.4 244.5 Q-370.6 248.6 -365.65 266.9 -365.0 259.25 -363.1 248.7 L-361.35 239.65 -371.85 240.75 -371.4 244.5 M-346.85 428.25 L-352.35 419.5 Q-359.2 408.1 -360.45 401.15 -360.85 398.95 -360.85 385.45 L-364.15 396.45 Q-374.25 432.35 -377.6 456.5 -381.3 482.75 -385.8 501.8 -391.7 527.15 -400.6 548.0 L-370.25 554.55 Q-369.1 553.95 -368.5 554.95 L-325.05 564.1 -301.4 569.05 -299.6 560.1 -297.55 547.75 -295.6 535.35 Q-294.0 527.0 -293.35 522.6 -292.3 515.75 -288.65 513.65 -284.85 511.5 -284.85 520.1 -284.85 524.75 -287.8 541.4 L-292.85 570.85 Q-249.75 579.75 -247.35 579.75 L-241.85 579.7 Q-241.95 578.25 -241.0 577.2 -239.1 575.1 -233.85 576.5 L-223.85 576.5 Q-229.2 563.4 -234.4 546.05 -241.85 521.0 -241.85 508.25 -241.85 505.95 -241.65 505.3 -240.85 503.0 -237.85 503.0 -235.2 503.0 -231.4 518.55 -225.9 541.05 -225.1 543.25 -223.6 547.5 -222.6 553.3 L-221.1 563.5 Q-219.85 573.35 -212.4 576.5 L-207.05 576.5 -206.85 575.85 -206.55 576.5 -187.65 576.5 -188.55 573.95 Q-199.85 540.6 -199.85 526.0 -199.85 521.15 -196.05 522.1 -192.3 523.1 -191.6 527.6 -190.7 534.35 -190.35 539.6 -190.15 543.5 -188.3 551.25 -186.05 560.75 -185.6 563.6 -184.6 569.6 -182.15 576.5 L-152.85 576.5 Q-162.75 563.7 -166.9 542.4 L-169.95 525.05 Q-171.75 514.95 -174.1 508.25 -178.8 494.85 -184.15 476.05 -189.25 458.15 -190.95 448.15 L-194.3 448.35 Q-196.15 458.85 -198.0 458.85 -201.35 458.85 -202.0 453.15 L-202.0 448.65 -231.2 449.3 -273.35 450.0 Q-310.95 450.0 -321.1 448.05 -324.0 447.5 -326.45 446.35 -328.85 445.2 -331.35 444.75 -334.55 444.15 -337.85 441.35 -340.75 438.95 -341.85 436.75 -343.2 433.9 -346.85 428.25 M-369.6 565.75 Q-372.7 575.9 -381.15 600.3 -393.4 635.55 -400.85 655.1 -421.3 708.35 -442.6 750.35 -426.3 757.2 -414.75 760.65 -392.1 767.4 -384.85 769.85 L-343.05 777.25 -329.75 779.55 Q-328.7 774.1 -310.65 767.4 -311.5 759.55 -311.85 748.75 -312.3 736.5 -312.1 721.8 L-311.85 709.35 Q-311.85 685.6 -311.05 658.3 -310.1 627.65 -308.6 609.6 -307.85 599.6 -304.8 584.9 L-303.15 577.45 Q-313.9 574.8 -324.6 571.75 L-340.15 569.95 -369.2 565.8 -369.6 565.75 M-188.0 401.0 L-192.65 437.05 -193.1 440.75 -191.85 439.25 Q-191.7 433.6 -189.4 434.45 L-188.6 432.25 -187.3 427.4 -185.85 421.75 Q-184.45 417.45 -183.15 411.15 L-188.0 401.0 M-294.35 580.05 Q-303.85 643.05 -303.85 709.1 L-303.85 746.6 Q-303.85 755.4 -302.1 764.45 L-297.0 762.85 Q-284.5 759.1 -271.6 756.35 -259.35 753.75 -254.1 753.6 L-221.3 752.1 Q-219.2 751.8 -218.65 751.4 -217.8 750.8 -217.55 750.75 -212.05 748.95 -115.85 747.1 -97.4 747.65 -89.8 753.15 -87.7 754.7 -84.1 757.95 -80.5 760.8 -76.0 762.35 -42.35 776.0 -22.9 795.9 -5.0 814.2 -5.0 831.35 -5.0 841.35 -16.25 854.8 -23.3 863.25 -33.15 871.0 -1.5 870.3 17.5 869.6 L56.25 868.35 98.75 864.85 120.9 859.65 148.75 852.6 236.0 827.35 Q284.8 812.45 304.95 784.8 319.0 765.55 319.0 739.6 319.0 722.9 318.65 719.95 317.1 708.1 310.0 699.85 305.3 693.1 302.8 689.9 298.45 684.2 290.0 679.6 279.35 673.8 276.75 673.1 L273.75 672.25 270.25 671.35 Q267.75 670.85 142.1 670.1 L75.1 670.7 Q9.75 671.4 8.5 671.6 L4.2 672.55 -0.75 673.85 Q-3.1 674.65 -6.75 677.15 L-11.5 680.6 -22.25 687.4 Q-31.35 693.05 -34.5 695.6 -40.45 700.55 -50.45 706.6 -49.45 707.1 -48.8 707.9 -48.0 708.9 -48.0 710.1 -48.0 711.65 -54.5 715.15 -62.5 719.45 -74.75 723.15 -110.1 733.85 -160.85 733.85 L-188.1 734.0 Q-196.9 733.6 -199.8 729.75 -202.4 726.3 -204.2 713.9 -208.1 687.4 -209.6 679.35 -211.65 668.35 -211.45 646.5 L-210.85 625.0 Q-210.85 604.1 -210.65 599.4 -210.3 592.55 -209.5 587.05 L-232.35 588.0 Q-257.3 588.0 -290.6 580.45 L-294.25 579.6 -294.35 580.05 M-316.7 780.2 L-318.5 781.65 Q-310.0 783.25 -307.2 784.1 -308.55 781.05 -309.5 775.6 -313.6 777.75 -316.7 780.2" fill="#000000" fill-rule="evenodd" stroke="none"/>
  </g>
</svg>
