<?xml version="1.0" encoding="UTF-8" standalone="no"?>
<svg xmlns:xlink="http://www.w3.org/1999/xlink" height="265.3px" width="6814.25px" xmlns="http://www.w3.org/2000/svg">
  <g transform="matrix(1.0, 0.0, 0.0, 1.0, 5063.65, -7.5)">
    <path d="M1736.85 256.6 L1744.3 258.05 Q1746.8 258.85 1746.8 260.2 1746.8 260.5 1750.3 262.05 1751.8 262.8 1745.85 263.15 1733.45 263.8 1631.75 264.1 765.15 266.75 395.65 268.4 175.4 269.85 -156.4 270.85 -790.8 272.8 -1860.2 272.8 L-2293.75 272.25 -2751.1 271.4 -2799.2 270.8 -2836.45 270.2 Q-3475.25 259.5 -3680.65 258.4 -3770.4 257.95 -3807.6 259.05 -3832.95 259.8 -3845.8 262.05 -3862.65 264.9 -3878.05 265.95 -3909.75 268.1 -3984.2 269.15 -4182.6 272.0 -4747.05 267.8 -4913.7 266.6 -4975.75 264.15 -5030.8 261.95 -5030.8 257.6 -5030.8 252.45 -4977.75 252.1 -4934.05 251.75 -4772.85 254.8 -4513.95 256.8 -4259.0 255.7 L-3841.35 252.75 Q-3595.8 250.95 -3405.35 251.5 -3142.45 252.25 -2836.45 257.4 L-2791.8 258.05 -2725.3 258.8 -2282.4 259.45 -1863.25 259.8 Q-861.25 259.8 2.3 256.7 866.35 253.6 1092.05 253.6 1710.1 254.2 1719.05 254.8 L1736.85 256.6 M1197.25 27.4 Q1197.25 33.6 1105.65 33.6 1051.85 33.1 -618.85 32.6 L-669.65 32.25 -738.35 31.6 Q-762.25 31.4 -3257.45 30.6 -3721.45 30.1 -3731.35 29.8 -3864.3 26.05 -3952.95 26.15 L-4031.6 26.4 Q-4083.35 26.5 -4137.65 26.0 -4400.5 23.6 -4637.45 22.35 L-4916.25 21.1 Q-5010.85 20.55 -5037.25 19.4 -5063.65 18.2 -5063.65 14.5 -5063.65 9.6 -5011.8 8.2 -4965.5 7.0 -4842.55 7.9 -4439.35 12.4 -4073.9 14.2 -3353.55 16.55 -2970.15 16.25 -2359.8 15.75 -738.35 18.8 -488.95 19.25 -220.1 17.85 L198.6 15.35 Q667.05 12.95 1145.5 21.0 1173.35 21.45 1187.3 23.7 1197.25 25.4 1197.25 27.4 M787.45 126.95 Q658.75 127.9 582.3 128.8 446.8 130.4 337.95 133.6 224.7 136.95 -146.4 139.4 -540.7 142.05 -682.0 145.2 -916.2 150.45 -1611.95 159.55 -2262.25 168.0 -2356.1 168.0 L-2474.65 167.35 -2605.75 166.2 Q-2898.0 161.2 -3122.5 161.8 -3255.1 162.15 -3469.9 165.55 -3681.85 168.95 -3819.75 169.2 -4046.2 169.65 -4343.75 164.4 -4455.5 162.45 -4519.85 162.25 -4581.3 162.05 -4647.6 160.8 -4739.05 159.1 -4913.7 157.7 -5042.4 155.8 -5042.4 149.7 -5042.4 147.05 -5025.0 145.2 L-4972.75 143.2 Q-4829.05 143.2 -4789.85 145.05 -4727.9 147.95 -4651.95 149.1 -4258.1 155.0 -2354.15 155.0 -2281.6 155.0 -1656.45 146.85 -972.8 137.95 -682.0 132.2 -574.1 130.05 -148.35 125.8 261.95 121.7 349.55 119.6 L546.95 114.75 Q672.75 111.75 753.1 110.6 980.5 107.45 980.5 117.3 980.5 122.15 928.25 124.35 887.6 126.05 787.45 126.95" fill="#000000" fill-rule="evenodd" stroke="none"/>
  </g>
</svg>
