<?xml version="1.0" encoding="UTF-8" standalone="no"?>
<svg xmlns:xlink="http://www.w3.org/1999/xlink" height="102.25px" width="191.2px" xmlns="http://www.w3.org/2000/svg">
  <g transform="matrix(1.0, 0.0, 0.0, 1.0, -54.4, -103.85)">
    <path d="M221.3 124.6 Q222.45 128.1 226.35 144.6 229.6 158.35 238.0 169.75 L243.35 176.4 Q245.6 179.1 245.6 179.85 245.6 183.35 243.85 185.15 241.0 188.1 233.1 188.1 230.2 188.1 220.45 186.25 L210.6 184.35 Q175.0 184.35 158.35 186.35 L156.55 186.6 Q155.05 206.1 148.6 206.1 143.25 206.1 141.35 190.7 L141.25 190.75 137.05 193.05 Q134.45 194.35 130.95 195.1 121.9 197.1 99.1 197.1 63.65 197.1 56.35 191.65 53.95 189.85 54.5 187.3 55.6 184.8 55.6 184.1 55.6 178.95 62.4 159.25 L69.85 137.6 73.3 126.0 Q75.45 118.35 74.6 114.35 77.15 99.35 84.05 105.75 86.6 108.05 88.65 112.4 90.6 116.45 90.6 118.85 90.6 128.15 88.85 135.05 87.6 139.85 84.5 146.65 80.3 155.75 78.8 159.7 75.4 168.75 73.1 180.1 73.2 180.15 73.9 180.55 L75.85 180.85 Q115.6 180.85 129.7 178.4 135.15 177.5 137.8 176.0 L140.35 173.95 140.35 167.0 140.6 159.95 Q138.75 146.55 138.85 135.45 139.0 113.55 148.6 114.35 157.6 115.15 158.0 136.85 158.2 147.9 156.6 160.2 L156.85 168.85 Q174.35 167.4 218.35 168.6 214.35 157.85 210.75 147.1 203.6 125.75 203.6 120.2 203.6 116.7 204.4 114.65 206.2 110.1 211.6 110.1 216.7 110.1 221.3 124.6 M172.1 143.75 Q174.6 146.0 174.6 149.35 174.6 151.45 172.9 153.85 170.6 157.1 166.6 157.1 162.05 157.1 159.9 153.35 158.6 151.1 158.6 149.2 158.6 145.2 161.1 143.1 163.3 141.25 166.6 141.5 169.8 141.7 172.1 143.75 M128.1 145.75 Q130.6 148.0 130.6 151.35 130.6 153.5 128.85 155.9 126.5 159.1 122.6 159.1 118.05 159.1 115.9 155.35 114.6 153.1 114.6 151.2 114.6 147.2 117.1 145.1 119.3 143.25 122.6 143.5 125.8 143.7 128.1 145.75" fill="#000000" fill-rule="evenodd" stroke="none"/>
  </g>
</svg>
