<?xml version="1.0" encoding="UTF-8" standalone="no"?>
<svg xmlns:xlink="http://www.w3.org/1999/xlink" height="182.9px" width="316.8px" xmlns="http://www.w3.org/2000/svg">
  <g transform="matrix(1.0, 0.0, 0.0, 1.0, -18.35, -23.2)">
    <use height="102.25" transform="matrix(1.0, 0.0, 0.0, 1.0, 54.4, 103.85)" width="191.2" xlink:href="#shape0"/>
    <use height="13.7" transform="matrix(7.4894, 0.0, 0.0, 7.4894, 18.3702, 23.2383)" width="42.3" xlink:href="#text0"/>
    <use height="13.75" transform="matrix(0.3236, 0.0, 0.0, 0.3236, 129.4736, 83.8251)" width="35.1" xlink:href="#text1"/>
  </g>
  <defs>
    <g id="shape0" transform="matrix(1.0, 0.0, 0.0, 1.0, -54.4, -103.85)">
      <path d="M221.3 124.6 Q222.45 128.1 226.35 144.6 229.6 158.35 238.0 169.75 L243.35 176.4 Q245.6 179.1 245.6 179.85 245.6 183.35 243.85 185.15 241.0 188.1 233.1 188.1 230.2 188.1 220.45 186.25 L210.6 184.35 Q175.0 184.35 158.35 186.35 L156.55 186.6 Q155.05 206.1 148.6 206.1 143.25 206.1 141.35 190.7 L141.25 190.75 137.05 193.05 Q134.45 194.35 130.95 195.1 121.9 197.1 99.1 197.1 63.65 197.1 56.35 191.65 53.95 189.85 54.5 187.3 55.6 184.8 55.6 184.1 55.6 178.95 62.4 159.25 L69.85 137.6 73.3 126.0 Q75.45 118.35 74.6 114.35 77.15 99.35 84.05 105.75 86.6 108.05 88.65 112.4 90.6 116.45 90.6 118.85 90.6 128.15 88.85 135.05 87.6 139.85 84.5 146.65 80.3 155.75 78.8 159.7 75.4 168.75 73.1 180.1 73.2 180.15 73.9 180.55 L75.85 180.85 Q115.6 180.85 129.7 178.4 135.15 177.5 137.8 176.0 L140.35 173.95 140.35 167.0 140.6 159.95 Q138.75 146.55 138.85 135.45 139.0 113.55 148.6 114.35 157.6 115.15 158.0 136.85 158.2 147.9 156.6 160.2 L156.85 168.85 Q174.35 167.4 218.35 168.6 214.35 157.85 210.75 147.1 203.6 125.75 203.6 120.2 203.6 116.7 204.4 114.65 206.2 110.1 211.6 110.1 216.7 110.1 221.3 124.6 M172.1 143.75 Q174.6 146.0 174.6 149.35 174.6 151.45 172.9 153.85 170.6 157.1 166.6 157.1 162.05 157.1 159.9 153.35 158.6 151.1 158.6 149.2 158.6 145.2 161.1 143.1 163.3 141.25 166.6 141.5 169.8 141.7 172.1 143.75 M128.1 145.75 Q130.6 148.0 130.6 151.35 130.6 153.5 128.85 155.9 126.5 159.1 122.6 159.1 118.05 159.1 115.9 155.35 114.6 153.1 114.6 151.2 114.6 147.2 117.1 145.1 119.3 143.25 122.6 143.5 125.8 143.7 128.1 145.75" fill="#000000" fill-rule="evenodd" stroke="none"/>
    </g>
    <g id="text0" transform="matrix(1.0, 0.0, 0.0, 1.0, -0.45, -1.1)">
      <g transform="matrix(1.0, 0.0, 0.0, 1.0, 0.0, 0.0)">
        <use fill="#000000" height="13.7" transform="matrix(0.0146, 0.0, 0.0, 0.0146, 0.0, 14.0)" width="42.3" xlink:href="#font_Arial_Greek_s0"/>
        <use fill="#000000" height="13.7" transform="matrix(0.0146, 0.0, 0.0, 0.0146, 7.5, 14.0)" width="42.3" xlink:href="#font_Arial_Greek_t0"/>
        <use fill="#000000" height="13.7" transform="matrix(0.0146, 0.0, 0.0, 0.0146, 11.65, 14.0)" width="42.3" xlink:href="#font_Arial_Greek_o0"/>
        <use fill="#000000" height="13.7" transform="matrix(0.0146, 0.0, 0.0, 0.0146, 20.0, 14.0)" width="42.3" xlink:href="#font_Arial_Greek_r0"/>
        <use fill="#000000" height="13.7" transform="matrix(0.0146, 0.0, 0.0, 0.0146, 25.0, 14.0)" width="42.3" xlink:href="#font_Arial_Greek_e0"/>
      </g>
    </g>
    <g id="font_Arial_Greek_s0">
      <path d="M31.5 -158.5 L31.5 -158.5 Q46.5 -74.0 101.0 -31.0 155.0 12.0 258.5 12.0 321.0 12.0 370.5 -9.5 420.0 -31.5 446.5 -71.0 472.5 -111.0 472.5 -156.0 472.5 -202.0 451.0 -233.0 429.5 -264.0 392.0 -280.0 354.0 -296.5 258.5 -322.0 192.5 -340.0 179.0 -345.0 155.5 -354.5 144.5 -369.0 133.5 -383.0 133.5 -400.5 133.5 -428.0 160.0 -448.5 186.5 -469.0 248.5 -469.0 301.0 -469.0 330.0 -446.0 358.5 -423.0 364.5 -382.0 L452.5 -394.0 Q444.0 -445.5 421.5 -476.0 399.0 -507.0 352.0 -525.0 304.5 -543.0 242.0 -543.0 200.5 -543.0 164.5 -532.0 128.0 -521.5 107.0 -506.0 79.0 -486.0 63.0 -455.5 46.5 -425.5 46.5 -390.0 46.5 -351.0 66.5 -318.5 86.0 -286.5 124.5 -268.0 162.5 -250.0 261.5 -225.0 335.0 -206.5 353.5 -194.5 380.0 -177.0 380.0 -146.5 380.0 -112.5 350.0 -87.0 320.0 -62.0 258.0 -62.0 196.5 -62.0 162.5 -90.5 128.0 -119.0 120.5 -172.5 L31.5 -158.5" fill-rule="evenodd" stroke="none"/>
    </g>
    <g id="font_Arial_Greek_t0">
      <path d="M264.0 -80.5 L264.0 -80.5 Q239.5 -77.0 224.5 -77.0 204.5 -77.0 194.0 -83.5 183.0 -90.0 178.5 -101.0 173.5 -112.0 173.5 -150.5 L173.5 -461.0 264.0 -461.0 264.0 -531.0 173.5 -531.0 173.5 -716.5 84.0 -662.5 84.0 -531.0 18.0 -531.0 18.0 -461.0 84.0 -461.0 84.0 -155.5 Q84.0 -74.5 95.0 -49.0 106.0 -24.0 133.0 -8.5 160.0 7.0 209.0 7.0 239.0 7.0 277.0 -1.0 L264.0 -80.5" fill-rule="evenodd" stroke="none"/>
    </g>
    <g id="font_Arial_Greek_o0">
      <path d="M126.5 -265.5 L126.5 -265.5 Q126.5 -367.5 171.0 -418.0 215.5 -468.5 283.0 -468.5 349.5 -468.5 394.5 -417.5 439.0 -367.0 439.0 -268.5 439.0 -164.0 394.5 -113.0 350.0 -62.0 283.0 -62.0 215.5 -62.0 171.0 -112.5 126.5 -163.5 126.5 -265.5 M34.0 -265.5 L34.0 -265.5 Q34.0 -131.0 103.0 -59.5 171.5 12.0 283.0 12.0 352.5 12.0 411.5 -20.5 470.0 -53.0 501.0 -111.5 531.5 -170.5 531.5 -273.0 531.5 -399.5 462.0 -471.0 392.5 -543.0 283.0 -543.0 184.5 -543.0 116.0 -484.0 34.0 -413.0 34.0 -265.5" fill-rule="evenodd" stroke="none"/>
    </g>
    <g id="font_Arial_Greek_r0">
      <path d="M66.5 0.0 L156.5 0.0 156.5 -278.0 Q156.5 -335.0 171.5 -383.0 181.5 -414.5 205.0 -432.0 228.5 -450.0 258.0 -450.0 291.0 -450.0 324.0 -430.5 L355.0 -514.0 Q308.0 -543.0 262.5 -543.0 231.0 -543.0 205.0 -525.0 178.5 -507.0 147.5 -450.5 L147.5 -531.0 66.5 -531.0 66.5 0.0" fill-rule="evenodd" stroke="none"/>
    </g>
    <g id="font_Arial_Greek_e0">
      <path d="M135.5 -316.5 L135.5 -316.5 Q140.0 -386.0 182.5 -427.5 224.5 -469.0 286.5 -469.0 355.0 -469.0 398.0 -417.0 426.0 -383.5 432.0 -316.5 L135.5 -316.5 M431.0 -171.0 L431.0 -171.0 Q410.5 -114.0 375.5 -88.0 340.5 -62.0 291.0 -62.0 224.5 -62.0 180.0 -108.5 135.5 -155.0 130.5 -242.5 L526.5 -242.5 Q527.0 -258.5 527.0 -266.5 527.0 -398.0 459.5 -470.5 392.0 -543.0 285.5 -543.0 175.5 -543.0 106.5 -469.0 37.5 -395.0 37.5 -261.0 37.5 -131.5 106.0 -59.5 174.0 12.0 290.5 12.0 383.0 12.0 442.5 -33.0 502.0 -78.0 524.0 -159.5 L431.0 -171.0" fill-rule="evenodd" stroke="none"/>
    </g>
    <g id="text1" transform="matrix(1.0, 0.0, 0.0, 1.0, -1.0, -0.85)">
      <g transform="matrix(1.0, 0.0, 0.0, 1.0, 0.0, 0.0)">
        <use fill="#000000" height="13.75" transform="matrix(0.0146, 0.0, 0.0, 0.0146, 0.0, 14.0)" width="35.1" xlink:href="#font_Arial_Greek_m0"/>
        <use fill="#000000" height="13.75" transform="matrix(0.0146, 0.0, 0.0, 0.0146, 12.5, 14.0)" width="35.1" xlink:href="#font_Arial_Greek_i0"/>
        <use fill="#000000" height="13.75" transform="matrix(0.0146, 0.0, 0.0, 0.0146, 15.85, 14.0)" width="35.1" xlink:href="#font_Arial_Greek_l0"/>
        <use fill="#000000" height="13.75" transform="matrix(0.0146, 0.0, 0.0, 0.0146, 19.2, 14.0)" width="35.1" xlink:href="#font_Arial_Greek_k0"/>
      </g>
    </g>
    <g id="font_Arial_Greek_m0">
      <path d="M67.5 0.0 L157.5 0.0 157.5 -275.5 Q157.5 -348.0 172.0 -386.5 186.5 -425.0 219.0 -445.0 251.0 -465.0 289.0 -465.0 339.0 -465.0 361.0 -435.0 383.0 -405.0 383.0 -345.0 L383.0 0.0 473.0 0.0 473.0 -308.5 Q473.0 -390.5 510.0 -427.5 547.0 -465.0 603.0 -465.0 634.0 -465.0 657.0 -450.5 680.0 -436.0 689.0 -412.0 697.5 -388.5 697.5 -334.5 L697.5 0.0 787.0 0.0 787.0 -364.5 Q787.0 -455.5 744.5 -499.0 702.0 -543.0 623.0 -543.0 522.0 -543.0 459.0 -450.0 443.5 -494.0 406.0 -518.5 368.0 -543.0 309.0 -543.0 256.0 -543.0 214.5 -519.0 173.0 -495.5 148.0 -456.5 L148.0 -531.0 67.5 -531.0 67.5 0.0" fill-rule="evenodd" stroke="none"/>
    </g>
    <g id="font_Arial_Greek_i0">
      <path d="M68.0 0.0 L158.0 0.0 158.0 -531.0 68.0 -531.0 68.0 0.0 M68.0 -629.5 L158.0 -629.5 158.0 -733.0 68.0 -733.0 68.0 -629.5" fill-rule="evenodd" stroke="none"/>
    </g>
    <g id="font_Arial_Greek_l0">
      <path d="M65.5 0.0 L155.5 0.0 155.5 -733.0 65.5 -733.0 65.5 0.0" fill-rule="evenodd" stroke="none"/>
    </g>
    <g id="font_Arial_Greek_k0">
      <path d="M68.0 0.0 L158.0 0.0 158.0 -210.5 221.5 -271.5 397.0 0.0 508.0 0.0 284.5 -334.0 487.5 -531.0 371.0 -531.0 158.0 -315.0 158.0 -733.0 68.0 -733.0 68.0 0.0" fill-rule="evenodd" stroke="none"/>
    </g>
  </defs>
</svg>
