<?xml version="1.0" encoding="UTF-8" standalone="no"?>
<svg xmlns:xlink="http://www.w3.org/1999/xlink" height="360.8px" width="529.1px" xmlns="http://www.w3.org/2000/svg">
  <g transform="matrix(1.0, 0.0, 0.0, 1.0, 0.0, 0.0)">
    <path d="M151.55 318.6 Q150.85 319.25 150.0 319.25 145.95 319.25 145.05 307.55 L145.0 295.5 Q144.6 279.7 144.8 271.35 145.15 256.65 148.25 247.5 153.45 232.35 163.35 224.5 170.3 218.95 181.45 216.1 L189.75 214.15 Q194.2 213.05 196.65 211.95 203.0 209.0 203.0 201.75 203.0 200.5 202.0 194.1 201.0 187.65 201.0 186.4 201.0 184.65 202.25 182.9 162.1 181.6 128.6 176.9 114.85 174.95 101.4 172.25 L89.0 169.9 Q90.2 172.1 87.5 176.5 84.45 181.4 79.5 181.4 74.15 181.4 70.05 170.6 L69.15 167.35 Q35.6 165.85 15.0 138.4 7.85 129.0 3.35 117.75 0.0 109.55 0.0 106.9 0.0 96.75 2.8 85.85 6.45 71.85 13.25 64.9 18.9 59.1 33.05 60.75 44.95 62.2 60.7 68.5 74.55 74.05 85.35 80.8 L87.8 82.4 Q93.65 67.95 111.0 63.4 L111.8 63.2 110.65 59.9 106.0 43.65 101.5 29.3 Q98.0 18.05 98.0 16.65 98.0 14.15 99.35 12.8 100.6 11.55 102.5 11.75 107.1 12.2 109.0 18.65 110.5 22.9 113.25 32.9 L118.7 47.55 Q121.7 55.5 122.0 60.7 137.05 57.15 152.1 54.8 152.8 46.75 159.65 35.6 166.4 24.55 176.5 14.35 186.3 4.45 193.35 1.2 201.0 -2.35 201.0 4.4 201.0 6.15 188.7 18.2 174.95 31.6 173.0 34.4 172.05 35.75 170.15 40.7 L166.5 50.15 165.3 52.95 Q186.5 50.35 207.75 50.1 L210.3 47.1 Q219.65 36.25 228.5 27.55 255.0 1.45 255.0 15.75 255.0 18.2 221.1 50.15 L240.95 51.15 Q276.3 53.85 310.05 62.95 311.85 59.65 316.8 52.4 325.45 39.75 327.0 36.15 L333.5 21.15 Q336.65 13.5 340.5 14.5 344.0 15.45 344.0 20.9 344.0 22.0 341.35 29.5 338.2 38.4 334.5 46.4 327.9 60.6 322.15 66.4 332.7 69.65 343.15 73.5 352.5 76.95 361.25 80.75 L365.95 69.3 Q372.55 53.55 374.25 47.65 375.1 44.45 377.65 38.2 L381.5 28.9 Q385.05 20.05 389.55 18.9 394.0 17.8 394.0 24.9 378.1 72.1 370.2 84.8 391.9 94.9 410.0 107.25 L414.4 110.35 Q418.8 103.85 431.05 91.5 440.75 81.75 452.0 71.4 L457.45 66.85 464.5 60.9 Q469.6 56.1 489.8 56.95 507.7 57.75 515.25 60.65 526.2 68.7 528.15 72.75 529.05 74.55 529.1 77.1 L529.0 82.75 Q529.0 85.6 526.55 94.5 523.15 106.65 517.8 116.9 501.3 148.4 473.5 148.4 446.85 148.4 435.75 143.9 432.85 142.75 431.25 141.4 429.8 144.4 427.7 147.4 420.1 158.1 406.5 162.15 373.7 171.8 325.8 177.65 L293.75 180.95 Q292.85 185.9 289.25 196.8 L282.0 218.15 282.0 223.0 Q302.65 218.75 316.1 263.65 320.75 279.15 323.65 297.85 326.0 312.85 326.0 320.0 L326.05 325.85 324.45 325.2 Q321.65 324.25 316.3 323.6 L315.3 317.05 Q311.1 288.35 308.0 280.0 306.4 275.7 303.25 264.75 300.3 254.35 298.25 249.25 294.2 239.2 289.0 235.55 285.75 233.25 280.55 233.1 275.75 232.9 274.4 231.6 272.0 229.25 272.0 220.75 272.0 209.2 275.45 197.5 278.05 188.6 282.0 181.8 L234.0 183.4 210.9 183.15 Q211.6 184.65 212.0 186.9 212.0 189.4 212.5 195.15 L213.0 201.9 Q213.0 210.55 209.9 215.2 207.3 219.0 201.7 221.15 L190.2 224.5 Q182.5 226.75 177.25 230.0 167.05 236.35 161.3 245.05 156.2 252.8 156.0 260.0 155.7 269.25 155.75 296.55 L155.4 303.2 Q152.65 302.75 150.6 304.05 147.0 306.3 147.0 311.35 147.0 315.2 151.55 318.6 M490.35 67.9 Q468.45 67.9 442.8 94.65 440.1 97.45 426.5 113.05 L423.0 116.9 427.85 121.15 Q434.0 127.0 434.0 129.25 L433.8 132.5 435.0 132.4 Q437.7 132.4 445.55 135.15 456.3 137.9 473.35 137.9 494.7 137.9 509.0 110.65 516.15 97.0 519.0 83.15 519.0 77.7 516.5 74.9 510.2 67.9 490.35 67.9 M333.9 83.5 Q319.45 78.4 312.0 76.4 L293.2 71.8 293.05 71.8 282.9 73.05 Q286.1 73.8 288.8 75.4 296.0 79.65 296.0 88.4 296.0 89.85 294.95 93.4 293.65 98.0 291.5 101.9 285.2 113.4 275.0 113.4 257.45 113.4 252.0 103.4 250.3 100.2 249.95 96.35 L250.0 92.9 Q250.0 84.65 257.2 78.9 259.1 77.4 261.25 76.25 L252.5 77.65 Q250.15 78.0 238.9 82.25 L228.0 86.4 Q222.6 86.4 220.8 84.85 219.15 82.65 216.85 81.4 213.25 79.45 204.4 78.25 206.35 80.3 208.05 83.35 211.8 90.05 213.0 98.4 213.0 104.1 211.25 106.65 207.4 112.4 195.0 112.4 176.2 112.4 169.8 105.15 167.75 102.85 167.15 100.0 167.0 99.15 167.0 97.25 167.0 96.25 168.5 93.15 170.25 89.45 172.7 86.05 178.05 78.8 184.0 76.75 175.1 76.4 164.0 76.4 134.9 76.4 132.05 76.1 129.95 75.9 129.6 75.25 129.5 74.2 129.0 73.4 L128.35 72.55 Q128.0 71.95 128.0 70.4 L127.55 68.9 Q121.8 70.6 116.5 72.65 104.3 81.7 98.0 92.6 92.9 101.35 90.75 113.25 L88.05 134.7 Q86.45 147.95 83.25 156.9 99.15 162.3 126.05 166.25 171.35 172.9 233.85 172.9 272.45 172.9 319.15 167.6 367.35 162.1 395.25 154.15 406.75 150.85 415.75 142.3 423.75 134.7 423.75 129.65 423.75 125.9 389.55 108.0 358.2 91.6 354.0 90.4 L333.9 83.5 M388.0 115.4 Q388.0 121.9 381.25 124.9 376.0 127.25 365.3 127.85 L346.55 128.4 Q336.05 128.8 331.5 130.65 L327.95 133.45 Q324.35 136.15 317.3 138.15 294.85 144.4 237.0 144.4 199.75 144.4 156.0 139.4 93.0 132.25 93.0 119.25 93.0 117.35 94.5 115.95 96.05 114.4 98.5 114.4 L113.7 119.15 Q129.65 124.05 134.0 124.9 L140.3 126.35 Q148.35 128.05 158.55 129.45 191.35 133.9 236.35 133.9 296.35 133.9 316.05 128.05 322.1 126.2 326.1 123.15 330.4 119.85 332.25 119.15 341.85 115.6 355.75 116.4 362.15 116.75 365.15 116.5 370.1 116.0 374.25 113.65 380.35 110.25 384.3 111.0 388.0 111.7 388.0 115.4 M446.3 234.2 Q441.0 236.25 426.5 236.25 411.05 235.5 407.95 236.05 405.7 236.4 404.95 238.05 404.25 239.55 404.25 243.5 404.25 243.8 413.95 249.55 L424.25 255.25 427.2 252.85 Q430.7 249.75 433.5 247.8 443.55 240.75 451.5 242.75 449.0 239.05 447.65 235.8 447.0 234.15 446.3 234.2 M362.05 329.75 Q361.35 327.85 361.05 324.9 L361.0 316.25 Q361.7 295.95 364.05 277.3 368.7 240.25 377.0 240.25 378.25 240.25 379.25 241.25 380.25 242.25 381.5 242.25 383.6 242.25 390.35 237.35 396.6 232.85 399.5 229.75 404.4 224.5 418.0 223.9 425.7 223.55 441.0 224.25 453.6 224.25 460.05 234.85 463.3 240.2 464.0 245.75 L463.95 249.15 Q463.7 250.75 462.5 251.75 458.75 254.95 455.55 255.35 453.5 255.65 450.5 254.6 447.3 253.55 445.75 253.55 442.95 253.65 439.75 256.25 L433.8 262.4 Q428.6 267.25 424.5 267.25 420.65 267.25 414.5 262.9 407.95 258.3 406.0 258.0 407.0 266.25 407.0 284.25 L406.5 317.15 406.1 339.25 Q400.9 335.95 395.0 333.05 L395.0 331.9 397.0 283.9 396.4 270.6 395.0 251.25 Q394.05 251.05 392.85 250.2 391.85 249.5 390.5 249.5 381.1 249.5 376.5 262.6 373.1 272.3 371.9 291.4 371.25 301.85 370.5 320.15 L370.0 324.7 Q362.7 324.45 362.05 329.75 M403.9 357.4 Q402.75 358.25 401.0 358.25 L401.0 358.2 401.9 356.55 403.9 357.4 M264.0 93.4 Q264.0 91.0 265.55 89.6 266.95 88.35 269.0 88.35 271.05 88.35 272.45 89.6 274.0 91.0 274.0 93.4 274.0 94.95 273.0 96.4 271.6 98.4 269.0 98.4 265.65 98.4 264.5 95.65 L264.0 93.4 M264.05 88.0 Q260.0 90.3 260.0 92.5 260.0 94.65 266.0 98.9 271.95 103.15 274.75 103.15 279.15 103.15 283.05 95.4 284.95 91.6 286.0 88.25 286.0 85.05 281.95 84.2 278.4 83.5 273.0 84.7 267.85 85.8 264.05 88.0 M196.4 86.9 Q188.25 81.9 178.5 95.9 183.65 99.25 184.35 99.6 189.1 101.9 194.85 101.9 200.8 101.9 202.5 100.15 203.35 99.3 203.0 98.25 203.0 95.85 201.3 92.5 199.3 88.7 196.4 86.9 M198.45 90.6 Q200.0 92.0 200.0 94.4 200.0 96.0 199.05 97.4 197.7 99.4 195.0 99.4 191.75 99.4 190.55 96.65 L190.0 94.4 Q190.0 92.0 191.55 90.6 192.95 89.35 195.0 89.35 197.05 89.35 198.45 90.6 M208.0 62.4 Q204.35 62.4 202.9 60.65 166.75 59.85 139.4 65.85 149.5 65.4 169.0 65.4 210.95 65.4 217.8 70.4 219.5 71.65 220.45 73.85 221.9 75.4 227.75 75.4 L240.55 70.2 Q249.1 67.05 256.75 65.1 234.7 61.95 212.4 60.95 L209.7 60.85 208.0 62.4 M85.15 92.8 Q77.35 88.25 68.15 83.65 42.5 70.9 27.0 70.9 16.7 70.9 12.3 88.75 10.15 97.7 10.0 106.9 10.0 114.15 15.25 121.3 17.8 124.8 28.75 136.15 43.5 151.55 63.8 156.85 L68.2 157.95 71.5 152.95 Q76.4 144.9 78.5 135.9 79.7 130.9 80.95 123.35 L83.0 111.15 84.4 98.5 Q84.7 95.45 85.15 92.8" fill="#000000" fill-rule="evenodd" stroke="none"/>
    <path d="M324.0 339.9 L323.95 342.05 Q323.7 343.4 322.4 344.2 318.95 346.4 306.0 346.4 290.95 346.4 271.65 339.6 L308.5 340.85 324.0 339.9 M172.45 327.15 L167.25 326.4 Q157.95 324.9 154.6 322.7 152.55 321.3 152.1 319.0 158.4 323.4 172.45 327.15 M401.0 358.25 Q399.15 360.8 396.0 360.8 390.25 360.8 375.45 348.0 L365.7 339.0 Q361.6 334.9 361.6 334.5 361.6 332.25 362.0 330.65 L362.0 330.75 Q362.0 335.65 366.1 338.65 368.6 340.5 379.75 345.6 382.8 347.0 396.05 353.75 L401.9 356.55 401.0 358.2 401.0 358.25 M198.45 90.6 Q197.05 89.35 195.0 89.35 192.95 89.35 191.55 90.6 190.0 92.0 190.0 94.4 L190.55 96.65 Q191.75 99.4 195.0 99.4 197.7 99.4 199.05 97.4 200.0 96.0 200.0 94.4 200.0 92.0 198.45 90.6 M196.4 86.9 Q199.3 88.7 201.3 92.5 203.0 95.85 203.0 98.25 203.35 99.3 202.5 100.15 200.8 101.9 194.85 101.9 189.1 101.9 184.35 99.6 183.65 99.25 178.5 95.9 188.25 81.9 196.4 86.9 M264.05 88.0 Q267.85 85.8 273.0 84.7 278.4 83.5 281.95 84.2 286.0 85.05 286.0 88.25 284.95 91.6 283.05 95.4 279.15 103.15 274.75 103.15 271.95 103.15 266.0 98.9 260.0 94.65 260.0 92.5 260.0 90.3 264.05 88.0 M264.0 93.4 L264.5 95.65 Q265.65 98.4 269.0 98.4 271.6 98.4 273.0 96.4 274.0 94.95 274.0 93.4 274.0 91.0 272.45 89.6 271.05 88.35 269.0 88.35 266.95 88.35 265.55 89.6 264.0 91.0 264.0 93.4" fill="#ffffff" fill-rule="evenodd" stroke="none"/>
    <path d="M446.3 234.2 Q447.0 234.15 447.65 235.8 449.0 239.05 451.5 242.75 443.55 240.75 433.5 247.8 430.7 249.75 427.2 252.85 L424.25 255.25 413.95 249.55 Q404.25 243.8 404.25 243.5 404.25 239.55 404.95 238.05 405.7 236.4 407.95 236.05 411.05 235.5 426.5 236.25 441.0 236.25 446.3 234.2 M388.0 115.4 Q388.0 111.7 384.3 111.0 380.35 110.25 374.25 113.65 370.1 116.0 365.15 116.5 362.15 116.75 355.75 116.4 341.85 115.6 332.25 119.15 330.4 119.85 326.1 123.15 322.1 126.2 316.05 128.05 296.35 133.9 236.35 133.9 191.35 133.9 158.55 129.45 148.35 128.05 140.3 126.35 L134.0 124.9 Q129.65 124.05 113.7 119.15 L98.5 114.4 Q96.05 114.4 94.5 115.95 93.0 117.35 93.0 119.25 93.0 132.25 156.0 139.4 199.75 144.4 237.0 144.4 294.85 144.4 317.3 138.15 324.35 136.15 327.95 133.45 L331.5 130.65 Q336.05 128.8 346.55 128.4 L365.3 127.85 Q376.0 127.25 381.25 124.9 388.0 121.9 388.0 115.4 M333.9 83.5 L354.0 90.4 Q358.2 91.6 389.55 108.0 423.75 125.9 423.75 129.65 423.75 134.7 415.75 142.3 406.75 150.85 395.25 154.15 367.35 162.1 319.15 167.6 272.45 172.9 233.85 172.9 171.35 172.9 126.05 166.25 99.15 162.3 83.25 156.9 86.45 147.95 88.05 134.7 L90.75 113.25 Q92.9 101.35 98.0 92.6 104.3 81.7 116.5 72.65 121.8 70.6 127.55 68.9 L128.0 70.4 Q128.0 71.95 128.35 72.55 L129.0 73.4 Q129.5 74.2 129.6 75.25 129.95 75.9 132.05 76.1 134.9 76.4 164.0 76.4 175.1 76.4 184.0 76.75 178.05 78.8 172.7 86.05 170.25 89.45 168.5 93.15 167.0 96.25 167.0 97.25 167.0 99.15 167.15 100.0 167.75 102.85 169.8 105.15 176.2 112.4 195.0 112.4 207.4 112.4 211.25 106.65 213.0 104.1 213.0 98.4 211.8 90.05 208.05 83.35 206.35 80.3 204.4 78.25 213.25 79.45 216.85 81.4 219.15 82.65 220.8 84.85 222.6 86.4 228.0 86.4 L238.9 82.25 Q250.15 78.0 252.5 77.65 L261.25 76.25 Q259.1 77.4 257.2 78.9 250.0 84.65 250.0 92.9 L249.95 96.35 Q250.3 100.2 252.0 103.4 257.45 113.4 275.0 113.4 285.2 113.4 291.5 101.9 293.65 98.0 294.95 93.4 296.0 89.85 296.0 88.4 296.0 79.65 288.8 75.4 286.1 73.8 282.9 73.05 L293.05 71.8 293.2 71.8 312.0 76.4 Q319.45 78.4 333.9 83.5 M490.35 67.9 Q510.2 67.9 516.5 74.9 519.0 77.7 519.0 83.15 516.15 97.0 509.0 110.65 494.7 137.9 473.35 137.9 456.3 137.9 445.55 135.15 437.7 132.4 435.0 132.4 L433.8 132.5 434.0 129.25 Q434.0 127.0 427.85 121.15 L423.0 116.9 426.5 113.05 Q440.1 97.45 442.8 94.65 468.45 67.9 490.35 67.9 M85.15 92.8 Q84.7 95.45 84.4 98.5 L83.0 111.15 80.95 123.35 Q79.7 130.9 78.5 135.9 76.4 144.9 71.5 152.95 L68.2 157.95 63.8 156.85 Q43.5 151.55 28.75 136.15 17.8 124.8 15.25 121.3 10.0 114.15 10.0 106.9 10.15 97.7 12.3 88.75 16.7 70.9 27.0 70.9 42.5 70.9 68.15 83.65 77.35 88.25 85.15 92.8 M208.0 62.4 L209.7 60.85 212.4 60.95 Q234.7 61.95 256.75 65.1 249.1 67.05 240.55 70.2 L227.75 75.4 Q221.9 75.4 220.45 73.85 219.5 71.65 217.8 70.4 210.95 65.4 169.0 65.4 149.5 65.4 139.4 65.85 166.75 59.85 202.9 60.65 204.35 62.4 208.0 62.4" fill="#cccc99" fill-rule="evenodd" stroke="none"/>
    <path d="M326.05 325.85 Q331.0 328.2 331.0 333.1 L330.85 335.9 Q330.45 337.45 328.75 338.4 327.15 339.3 324.0 339.9 L308.5 340.85 271.65 339.6 271.2 339.55 Q241.6 337.85 217.0 334.9 189.2 331.55 172.45 327.15 158.4 323.4 152.1 319.0 L151.55 318.6 Q147.0 315.2 147.0 311.35 147.0 306.3 150.6 304.05 152.65 302.75 155.4 303.2 159.0 303.8 163.75 307.35 168.2 311.75 180.15 314.15 186.3 315.35 199.25 316.6 L261.95 320.95 302.55 322.5 316.3 323.6 Q321.65 324.25 324.45 325.2 L326.05 325.85 M406.1 339.25 L410.95 342.5 Q420.0 348.95 420.0 351.85 420.0 354.85 418.0 357.15 415.6 359.85 411.5 359.85 409.55 359.85 403.9 357.4 L401.9 356.55 396.05 353.75 Q382.8 347.0 379.75 345.6 368.6 340.5 366.1 338.65 362.0 335.65 362.0 330.75 L362.0 330.65 362.05 329.75 Q362.7 324.45 370.0 324.7 L371.05 324.75 Q378.75 325.4 391.0 331.1 L395.0 333.05 Q400.9 335.95 406.1 339.25" fill="#ededed" fill-rule="evenodd" stroke="none"/>
    <path d="M155.4 303.2 L155.75 296.55 Q155.7 269.25 156.0 260.0 156.2 252.8 161.3 245.05 167.05 236.35 177.25 230.0 182.5 226.75 190.2 224.5 L201.7 221.15 Q207.3 219.0 209.9 215.2 213.0 210.55 213.0 201.9 L212.5 195.15 Q212.0 189.4 212.0 186.9 211.6 184.65 210.9 183.15 L234.0 183.4 282.0 181.8 Q278.05 188.6 275.45 197.5 272.0 209.2 272.0 220.75 272.0 229.25 274.4 231.6 275.75 232.9 280.55 233.1 285.75 233.25 289.0 235.55 294.2 239.2 298.25 249.25 300.3 254.35 303.25 264.75 306.4 275.7 308.0 280.0 311.1 288.35 315.3 317.05 L316.3 323.6 302.55 322.5 261.95 320.95 199.25 316.6 Q186.3 315.35 180.15 314.15 168.2 311.75 163.75 307.35 159.0 303.8 155.4 303.2 M370.0 324.7 L370.5 320.15 Q371.25 301.85 371.9 291.4 373.1 272.3 376.5 262.6 381.1 249.5 390.5 249.5 391.85 249.5 392.85 250.2 394.05 251.05 395.0 251.25 L396.4 270.6 397.0 283.9 395.0 331.9 395.0 333.05 391.0 331.1 Q378.75 325.4 371.05 324.75 L370.0 324.7" fill="#0000ff" fill-rule="evenodd" stroke="none"/>
  </g>
</svg>
