<?xml version="1.0" encoding="UTF-8" standalone="no"?>
<svg xmlns:xlink="http://www.w3.org/1999/xlink" height="404.65px" width="561.25px" xmlns="http://www.w3.org/2000/svg">
  <g transform="matrix(1.0, 0.0, 0.0, 1.0, 3.0, -67.2)">
    <path d="M549.85 163.6 Q549.85 159.4 546.9 152.75 542.65 143.25 535.6 143.25 479.15 143.25 462.45 162.65 458.25 167.45 455.45 175.95 L454.0 179.8 458.45 184.2 Q469.85 197.4 469.85 221.5 469.85 233.95 468.4 239.85 483.25 237.6 492.35 235.25 497.0 234.05 500.8 230.95 505.0 227.45 509.1 226.0 514.85 223.9 523.9 217.45 533.3 210.7 535.35 206.75 542.15 193.6 545.5 184.35 549.85 172.35 549.85 163.6 M557.85 163.35 Q557.85 201.65 526.15 227.25 513.25 237.65 497.7 243.55 483.2 249.0 470.85 249.0 L464.55 248.6 Q459.8 256.0 450.6 261.25 447.9 262.8 445.35 265.55 442.65 268.55 440.8 269.75 433.55 274.55 409.6 277.5 L335.25 285.65 313.95 287.8 312.75 295.45 Q311.85 300.55 311.85 302.5 308.85 314.65 316.0 321.5 321.05 326.35 333.7 330.0 350.7 334.9 353.0 335.95 362.0 340.05 361.85 347.25 361.55 358.5 364.15 372.55 365.35 378.95 367.9 389.35 L367.85 373.1 Q367.85 361.1 368.4 348.55 369.4 326.95 371.6 322.5 378.25 309.15 391.8 314.75 394.65 315.9 397.2 317.45 400.95 312.65 410.8 309.8 425.4 305.65 445.85 307.65 466.85 309.7 480.9 317.2 496.85 325.6 496.85 337.85 496.85 341.35 492.55 346.8 487.9 352.6 480.4 357.75 461.1 371.0 437.35 371.0 L430.15 370.7 428.85 377.0 Q424.85 395.95 424.85 407.0 424.85 426.35 425.85 465.35 L425.6 469.15 Q424.8 471.85 421.85 471.85 417.65 471.85 416.8 447.2 L416.85 422.25 Q416.85 395.25 417.4 387.9 418.85 368.0 424.85 353.0 L424.85 344.75 Q420.8 343.85 404.0 331.9 L400.7 329.6 398.85 330.0 Q395.95 330.0 395.15 327.25 L395.0 325.8 Q386.65 320.5 383.85 320.5 377.3 320.5 375.9 346.8 375.25 359.95 375.85 373.35 375.85 380.05 376.85 394.4 377.85 408.75 377.85 415.0 377.85 416.9 376.35 418.05 L375.1 418.7 376.05 423.15 Q378.85 437.15 378.85 448.0 378.85 449.45 377.65 450.6 376.45 451.85 374.85 451.85 371.45 451.85 364.35 421.6 358.7 397.55 354.85 374.25 354.4 371.25 355.75 364.55 357.2 357.5 356.9 354.25 355.8 342.35 333.85 339.0 311.55 335.55 305.8 322.2 303.8 317.55 303.65 311.3 L303.85 302.35 Q303.1 293.6 303.15 288.85 L288.85 290.0 Q241.25 290.0 216.75 289.4 215.9 298.8 208.05 307.5 198.0 318.65 181.1 322.25 155.3 327.8 151.4 338.05 150.25 340.95 150.2 347.45 150.15 354.0 148.85 357.5 144.7 368.85 142.3 402.35 L140.8 423.1 Q139.95 431.85 138.85 431.85 135.5 431.85 134.85 420.5 L134.85 408.85 Q134.85 391.5 137.5 373.75 140.4 354.4 145.85 339.25 151.6 323.45 168.45 315.8 173.3 313.6 181.2 311.3 188.55 309.15 190.35 308.25 198.2 304.3 202.7 300.0 207.2 295.6 207.85 291.25 L208.25 289.1 191.9 287.85 Q190.05 287.45 189.5 286.8 L188.9 285.6 Q187.7 284.05 178.85 283.0 176.4 282.7 175.7 282.25 174.55 281.55 162.85 279.5 146.35 276.55 136.05 277.9 125.8 279.2 107.85 276.0 99.9 274.55 94.85 269.25 L90.65 264.5 Q82.4 268.0 68.35 268.0 37.8 268.0 15.4 236.25 6.85 224.15 1.65 210.25 -3.0 197.75 -3.0 189.75 -3.0 157.95 12.3 144.4 24.8 133.35 45.95 135.45 63.0 137.2 79.55 146.2 86.45 149.95 90.65 153.7 L92.1 155.1 Q93.7 153.45 95.45 151.9 107.95 140.8 127.85 133.95 126.35 130.7 124.7 125.4 119.8 109.8 116.35 106.25 114.55 104.35 109.65 90.3 104.85 76.45 104.85 73.6 104.85 65.05 108.8 69.85 111.55 73.15 114.85 80.75 115.6 83.05 116.8 89.15 118.2 94.8 120.85 98.0 128.35 107.05 132.15 115.95 135.6 123.95 135.85 131.4 156.45 125.5 184.05 123.6 182.95 123.05 182.4 122.0 181.85 121.05 181.85 119.75 196.1 101.45 210.35 86.55 238.85 56.75 238.85 72.85 238.85 73.85 212.75 99.0 L187.15 123.4 Q212.2 121.8 242.9 123.45 L242.85 122.75 253.75 113.9 Q264.9 104.6 266.1 101.5 271.05 89.3 280.3 82.85 284.45 79.95 287.0 80.7 289.85 81.55 289.85 86.85 289.85 90.0 271.35 108.25 259.8 119.6 253.3 124.1 280.05 125.9 310.85 130.0 324.3 135.65 339.7 140.85 340.8 137.15 343.45 130.55 349.15 116.35 350.1 113.25 350.85 110.6 352.95 105.4 L355.85 97.5 Q357.25 93.35 361.8 89.0 366.85 84.3 366.85 90.85 354.0 130.95 347.5 143.4 361.05 147.75 376.05 151.75 L390.05 155.4 389.85 153.6 Q389.85 145.95 393.75 131.85 397.3 119.05 402.35 106.75 407.45 94.35 410.95 90.15 414.85 85.45 414.85 93.75 414.85 104.5 394.8 156.6 L403.2 158.75 Q417.7 162.5 426.2 165.4 438.5 169.5 446.95 174.75 447.4 170.9 450.15 165.75 454.15 158.2 461.05 151.95 480.1 134.85 511.85 135.5 546.15 136.0 555.0 147.15 558.0 150.9 558.2 156.2 558.35 159.1 557.85 163.35 M337.0 160.85 Q337.0 166.45 323.75 169.5 L315.65 171.0 317.4 172.9 Q321.0 177.35 321.0 183.25 L321.15 187.95 Q320.95 192.45 319.0 196.0 313.0 207.0 292.0 207.0 261.45 207.0 255.25 199.75 253.3 197.45 253.95 194.5 L255.0 191.5 Q254.45 184.75 256.0 178.8 256.7 176.1 257.8 174.0 L254.0 174.0 233.3 173.65 Q235.4 175.75 236.8 178.75 239.05 183.65 239.0 188.5 L239.05 192.4 Q238.7 196.1 236.8 199.0 230.9 208.0 211.5 208.0 170.6 208.0 159.5 197.0 155.85 193.4 155.6 188.65 L156.0 183.1 Q156.0 178.75 160.4 174.15 162.2 172.25 164.4 170.65 L163.5 170.25 150.0 167.0 135.65 163.45 Q131.0 162.25 131.0 158.75 131.0 154.7 136.45 154.95 140.95 155.15 150.75 158.5 152.3 159.1 166.0 162.5 174.0 164.65 192.55 165.15 214.4 165.75 297.5 165.75 307.95 165.75 321.15 161.4 327.75 159.2 333.0 157.0 336.25 157.0 337.0 160.85 M415.85 170.0 Q378.55 162.65 348.7 152.6 320.8 142.35 308.3 138.5 287.75 132.25 263.0 130.7 233.2 128.85 181.1 132.25 176.35 134.25 162.25 132.9 149.95 131.7 147.1 135.25 145.95 136.65 142.9 138.2 138.75 140.15 136.1 141.5 L122.45 148.35 Q118.75 149.75 111.6 149.75 101.4 149.75 94.85 160.4 94.65 161.55 93.9 162.55 L93.25 163.2 Q89.25 171.0 86.85 183.35 83.55 200.2 83.85 217.25 83.85 246.65 92.35 253.25 L98.5 258.15 Q101.65 260.75 102.85 262.25 108.1 268.25 114.45 270.15 119.35 271.6 126.8 270.9 L140.4 269.25 Q148.9 268.55 155.85 270.0 175.2 274.0 178.7 274.15 181.75 274.25 189.85 276.0 L192.6 276.85 192.9 277.45 Q193.45 278.05 202.85 279.0 204.1 279.05 205.95 279.9 L208.1 280.75 289.25 281.5 305.05 280.4 Q306.4 278.5 308.85 278.25 311.5 278.0 312.85 279.75 L334.2 277.75 Q379.7 273.45 401.85 270.0 423.1 266.7 432.85 262.75 438.75 260.4 445.1 255.0 454.05 247.55 458.45 237.25 461.85 229.25 461.85 221.6 461.85 206.8 452.6 193.15 440.15 174.8 415.85 170.0 M411.0 217.85 Q411.0 220.2 401.65 225.25 390.3 231.45 372.5 236.75 321.65 252.0 247.5 252.0 168.75 252.0 129.0 237.75 113.45 232.2 105.6 224.95 99.0 218.8 99.0 212.75 99.0 205.65 101.15 204.95 102.95 204.35 106.9 208.15 L115.05 216.75 Q120.6 222.6 124.5 225.25 133.75 229.85 163.3 236.8 192.95 243.75 203.75 243.75 313.5 243.75 368.0 228.9 383.55 224.65 395.7 218.65 405.15 214.0 407.0 214.0 410.35 214.0 411.0 217.85 M454.6 315.25 Q414.9 315.25 405.65 322.65 L404.7 323.55 405.6 324.5 Q420.5 333.15 430.4 338.1 432.45 339.55 432.8 341.55 L432.85 348.1 Q432.85 353.75 431.6 362.3 L437.35 362.5 Q453.0 362.5 471.9 352.0 479.1 347.95 484.1 343.75 488.85 339.8 488.85 338.0 488.85 333.3 476.6 324.5 463.7 315.25 454.6 315.25 M174.0 174.9 Q164.0 176.85 164.0 183.75 164.0 190.1 168.05 193.5 175.55 199.75 197.0 199.75 223.25 199.75 229.75 194.25 233.0 191.45 231.0 188.6 231.0 183.2 223.5 179.35 L218.35 176.6 Q216.2 175.1 216.05 173.3 L210.8 173.2 182.7 172.55 180.9 173.45 174.0 174.9 M193.75 190.25 L193.0 187.6 Q193.0 182.15 198.5 183.7 200.65 184.35 202.3 185.85 204.0 187.45 204.0 189.1 204.0 190.65 202.75 191.75 201.35 193.0 199.0 193.0 195.25 193.0 193.75 190.25 M263.0 196.5 L270.9 196.8 278.75 197.5 278.7 198.15 Q278.95 198.75 280.5 198.75 302.9 198.75 309.25 199.3 L308.35 198.2 Q307.3 196.8 309.25 194.75 L310.7 193.05 Q311.85 191.7 312.0 191.0 313.0 186.7 313.0 183.5 313.0 178.95 305.5 175.65 301.35 173.8 300.35 173.15 L299.65 172.65 273.8 173.8 Q273.45 174.95 272.65 175.75 L269.55 177.85 Q264.45 180.75 263.0 187.0 L263.0 196.5 M296.25 189.25 Q294.8 190.0 291.5 190.0 286.95 190.0 285.55 188.0 285.0 187.25 285.0 185.75 285.0 184.0 287.05 182.85 288.9 181.8 291.5 181.7 298.0 181.45 298.0 185.85 298.0 188.3 296.25 189.25 M6.75 165.5 Q4.85 173.6 4.85 189.6 4.85 199.4 11.0 212.15 16.5 223.65 25.65 235.0 34.4 245.8 43.3 252.65 52.55 259.75 58.35 259.75 77.65 259.75 84.45 258.35 L82.85 257.0 Q77.8 252.95 76.35 235.6 75.85 229.65 75.85 216.5 L75.25 204.95 Q74.85 195.95 75.85 188.7 78.0 173.15 86.8 161.3 82.15 158.2 76.95 155.15 61.95 146.25 55.35 146.25 L29.5 147.25 Q19.2 148.55 14.15 152.5 8.85 156.65 6.75 165.5" fill="#000000" fill-rule="evenodd" stroke="none"/>
  </g>
</svg>
