<?xml version="1.0" encoding="UTF-8" standalone="no"?>
<svg xmlns:xlink="http://www.w3.org/1999/xlink" height="449.6px" width="606.75px" xmlns="http://www.w3.org/2000/svg">
  <g transform="matrix(1.0, 0.0, 0.0, 1.0, 26.25, -52.25)">
    <path d="M532.85 121.25 Q501.9 121.25 491.85 123.0 474.15 126.1 466.6 137.5 464.65 140.45 456.25 148.45 L453.4 151.15 Q470.25 159.6 476.9 176.7 481.05 187.35 481.35 202.05 481.5 209.95 480.85 221.5 480.85 228.25 482.5 243.1 482.65 249.6 481.1 254.4 L487.15 252.85 Q511.7 245.6 525.85 237.0 551.9 221.5 555.85 211.75 560.8 200.0 565.25 191.15 L570.0 181.9 Q571.35 178.75 571.65 174.6 571.85 171.85 571.85 160.0 L572.1 151.3 Q572.0 143.65 570.35 139.75 567.4 132.85 550.9 126.45 537.45 121.25 532.85 121.25 M580.5 148.0 Q580.65 152.6 579.85 159.75 579.85 184.15 568.6 205.0 558.7 223.25 541.15 237.25 525.65 249.55 507.05 256.55 489.95 263.0 475.85 263.0 L475.55 263.0 Q471.15 267.15 464.95 271.6 456.3 277.55 451.1 281.25 L443.45 286.5 Q437.85 290.15 435.85 291.0 428.05 294.45 424.4 294.8 421.35 294.55 419.35 294.75 413.75 295.35 310.8 296.35 310.5 300.5 308.35 311.25 L305.85 323.35 Q305.85 327.2 328.25 336.95 349.65 346.25 354.4 350.3 355.6 344.0 357.05 338.1 363.7 310.85 371.1 305.75 379.5 299.95 390.35 304.6 395.6 301.65 405.25 299.2 426.45 293.85 452.35 294.95 481.4 296.2 499.45 305.55 520.85 316.65 520.85 336.75 520.85 340.95 516.9 346.95 512.5 353.6 505.15 359.25 485.9 374.0 458.35 374.0 L451.75 373.6 Q448.3 381.85 446.35 387.35 432.85 425.0 432.85 461.35 432.85 466.75 434.1 470.05 434.8 471.9 436.85 474.75 440.85 480.3 440.85 489.85 L440.8 496.65 Q440.15 501.85 436.85 501.85 436.25 501.85 424.85 461.25 424.85 424.0 438.35 387.25 440.9 380.25 447.65 364.55 451.85 354.7 451.85 351.85 451.85 345.9 437.35 340.2 420.35 334.55 415.35 331.75 L398.4 321.5 Q394.25 319.05 390.95 317.25 389.45 319.0 388.85 319.0 385.15 319.0 384.1 315.5 L383.95 313.55 Q379.7 311.5 378.25 311.5 376.7 311.5 373.75 320.65 372.45 324.55 367.85 340.75 363.85 354.8 360.9 362.15 L362.45 367.4 Q363.85 373.05 365.85 383.5 366.65 386.45 370.1 411.85 373.85 439.65 373.85 447.85 373.85 449.7 372.4 450.9 371.15 451.85 369.85 451.85 365.2 451.85 361.45 426.65 358.5 406.5 357.85 386.25 357.55 377.15 355.15 370.0 L353.75 369.65 352.35 368.75 352.1 367.9 Q351.85 367.2 351.85 365.75 L352.15 363.2 Q350.25 359.85 347.7 357.1 340.85 349.7 327.15 345.05 L316.35 341.65 Q310.3 339.75 306.95 338.05 297.85 333.4 297.85 324.25 297.85 319.05 299.9 309.2 301.3 302.2 303.05 296.45 L240.35 297.0 201.25 296.95 197.65 309.1 191.6 328.0 Q187.25 342.7 168.45 349.2 164.15 350.7 154.3 353.05 146.6 354.85 144.35 356.25 134.25 362.5 130.25 387.3 127.85 402.25 127.85 423.6 127.85 427.75 129.35 436.05 130.85 444.35 130.85 448.0 130.85 449.45 129.6 450.6 128.25 451.85 126.35 451.85 120.9 451.85 119.8 438.25 119.5 433.95 119.65 428.8 L119.85 424.35 Q119.85 399.7 121.8 386.9 125.45 363.15 136.6 351.75 139.5 348.75 150.35 345.55 164.2 341.5 171.1 338.0 178.15 334.4 181.55 329.25 183.4 326.35 185.35 320.0 L190.1 302.0 Q190.7 299.55 192.3 296.95 L169.1 296.65 Q135.9 295.55 123.6 290.25 106.45 282.75 98.4 284.3 L92.2 285.35 Q88.15 285.4 81.85 283.0 74.9 280.35 68.2 274.5 L63.55 270.0 61.35 270.0 Q48.05 270.0 19.25 253.05 -6.05 238.15 -15.25 228.5 -24.1 219.2 -25.8 206.75 -26.35 202.3 -26.25 195.95 L-26.0 185.35 Q-26.5 170.7 -26.0 165.7 -25.4 159.65 -19.75 140.75 -18.25 135.7 -9.45 129.95 -1.6 124.85 6.85 122.25 23.7 121.2 57.8 127.55 83.7 132.35 89.3 135.35 L95.6 129.5 96.1 129.05 97.35 128.25 Q89.7 127.65 88.1 129.15 86.2 131.0 77.85 131.0 75.4 131.0 74.4 129.0 73.85 127.9 73.85 126.75 L73.6 125.8 Q73.45 125.2 73.95 124.8 75.4 123.65 83.35 122.8 L125.15 120.5 122.95 115.2 Q118.4 103.85 114.85 93.25 114.2 91.3 104.25 74.95 94.85 59.55 94.85 57.25 94.85 48.45 100.95 55.1 106.2 60.85 114.35 75.95 121.95 89.95 127.75 103.9 132.3 114.8 133.45 120.2 154.9 119.55 184.35 119.0 L187.1 118.85 Q188.55 111.4 197.95 99.95 207.7 88.1 222.35 76.05 236.5 64.4 246.75 59.4 257.85 54.0 257.85 59.85 257.85 62.35 238.7 75.85 216.9 91.2 214.6 93.5 212.15 95.95 201.55 111.65 L198.05 116.8 208.35 114.25 Q231.85 108.95 249.15 112.05 L257.05 113.85 256.85 112.0 Q256.85 111.65 263.9 101.9 272.15 90.45 279.35 81.7 301.85 54.35 301.85 67.85 301.85 68.5 296.65 76.15 290.95 84.65 284.65 93.0 270.85 111.2 264.3 115.6 L272.35 116.75 Q292.0 120.3 303.75 124.85 310.25 127.35 320.4 131.9 328.5 134.8 341.55 136.8 L349.15 119.4 Q357.8 100.05 358.85 94.5 L360.55 83.15 Q361.5 76.25 362.35 72.0 365.05 59.1 368.1 59.85 370.85 60.5 370.85 68.35 370.85 70.3 368.65 81.55 366.0 95.05 362.85 107.05 356.85 129.8 351.45 138.15 L389.9 141.45 389.85 140.75 Q389.85 139.75 391.75 135.95 L395.85 127.25 Q401.85 113.15 401.85 99.5 401.85 78.05 408.85 69.3 411.35 66.15 413.65 66.05 415.85 65.95 415.85 68.25 415.85 74.1 413.25 85.85 410.35 98.7 409.85 107.25 408.85 122.8 407.35 129.05 405.15 138.25 401.0 142.15 L417.85 143.0 Q433.25 143.75 444.9 147.65 446.2 145.4 449.25 141.8 455.3 134.65 463.2 128.25 485.3 110.35 502.85 113.5 560.4 115.95 575.1 133.55 580.15 139.6 580.5 148.0 M327.85 140.5 Q310.4 135.05 292.2 130.25 271.5 124.8 255.35 121.75 236.05 118.1 226.25 118.65 218.4 119.15 204.35 123.75 200.45 124.4 195.3 126.3 191.6 127.65 183.85 128.0 164.95 128.85 150.3 128.05 L133.55 126.65 Q132.65 129.0 129.85 129.0 129.25 129.0 127.85 126.35 123.9 126.35 120.85 127.1 115.4 128.45 105.85 133.5 94.5 139.45 86.3 147.9 78.95 155.5 75.6 163.5 64.4 190.2 62.9 197.6 61.9 202.25 61.8 208.6 L61.85 224.6 Q61.85 241.35 62.05 243.65 62.95 255.05 67.35 261.0 70.4 265.05 73.7 267.35 81.2 272.55 95.95 276.55 139.8 288.5 240.25 288.5 L306.0 288.0 Q307.65 284.2 308.8 284.1 310.0 284.0 310.5 288.0 411.1 287.2 412.85 287.0 L417.75 286.3 421.6 285.5 426.1 285.2 Q429.05 285.05 433.6 282.5 438.5 279.8 440.6 278.5 445.1 275.8 447.6 273.5 450.35 271.0 460.85 265.65 464.45 263.85 467.0 261.55 L466.35 261.0 Q465.85 260.5 465.85 258.75 465.85 258.55 470.65 257.2 L471.6 255.5 Q474.7 249.3 474.1 235.25 L472.85 220.6 472.95 206.15 Q472.7 196.15 470.95 188.6 465.9 166.85 447.1 158.75 434.65 153.4 389.6 149.25 L355.55 145.8 Q337.55 143.55 327.85 140.5 M324.0 191.85 Q324.0 186.75 317.5 182.35 L313.05 179.2 Q311.2 177.65 311.05 176.1 286.3 183.0 261.5 183.0 L256.85 182.9 255.5 187.3 Q254.0 191.8 254.0 195.75 L253.55 199.4 Q253.55 202.1 255.55 204.0 261.55 209.5 286.75 209.5 315.1 209.5 322.3 201.25 324.6 198.6 324.5 195.25 L324.0 191.85 M332.0 192.0 L332.05 198.3 Q331.5 203.3 328.3 207.0 318.75 218.0 286.0 218.0 255.9 218.0 248.05 207.75 245.55 204.5 245.5 200.3 L246.0 196.1 Q246.0 190.75 247.0 186.0 247.45 183.95 248.05 182.45 L244.55 182.2 Q245.15 185.65 245.0 189.25 245.0 199.05 242.25 204.25 235.55 217.0 214.5 217.0 191.75 217.0 169.0 211.5 140.0 204.5 140.0 193.0 140.0 188.85 142.2 182.55 144.2 176.75 147.0 172.05 148.0 170.4 148.9 169.25 135.3 165.7 131.5 162.0 126.35 161.75 122.0 159.05 118.0 156.5 118.0 154.75 118.0 152.35 120.95 151.6 123.6 150.9 127.5 151.6 131.3 152.35 134.05 154.0 135.9 155.15 136.6 156.4 L137.75 156.55 160.0 162.5 Q198.7 173.35 232.6 174.6 233.75 173.0 237.0 173.0 239.55 173.0 241.35 174.75 282.05 174.75 301.6 170.3 307.4 168.95 311.85 167.05 L316.5 165.25 Q320.3 164.7 329.1 160.25 337.5 156.0 339.0 156.0 342.25 156.0 343.0 159.85 343.0 162.65 335.9 166.65 329.6 170.15 319.75 173.45 L321.5 174.6 Q325.8 177.65 328.7 182.1 332.0 187.15 332.0 192.0 M417.0 223.0 L419.0 223.35 420.25 224.25 420.65 224.9 Q421.0 225.4 421.0 226.85 421.0 231.95 401.8 239.55 383.2 246.85 365.25 249.5 346.15 252.25 338.25 253.9 333.75 254.8 320.5 258.25 317.7 258.95 316.45 260.7 315.0 262.75 312.9 263.6 304.65 267.0 265.0 267.0 247.85 267.0 219.75 264.05 187.05 260.65 159.05 255.0 83.0 239.75 83.0 217.35 83.0 209.9 86.3 212.5 88.3 214.15 94.0 221.25 96.45 224.05 107.85 230.1 118.7 235.85 123.0 237.0 138.2 241.1 181.5 249.75 226.5 258.75 233.5 258.75 268.55 258.75 285.25 257.5 298.45 256.45 307.05 253.9 L324.65 248.45 Q339.05 244.7 363.75 241.5 385.95 238.8 398.0 233.25 399.7 232.5 406.85 227.55 413.9 223.0 417.0 223.0 M458.45 343.45 Q459.85 346.3 459.85 352.0 459.85 354.25 455.65 364.2 L454.75 366.4 457.15 365.75 479.85 359.75 Q512.85 349.85 512.85 336.35 512.85 303.5 441.75 303.5 412.65 303.5 399.55 310.15 L409.75 318.1 Q416.7 323.5 420.85 325.0 428.4 328.25 440.95 333.1 449.8 336.55 452.8 338.2 456.95 340.5 458.45 343.45 M178.85 189.55 L179.0 188.75 Q179.0 187.0 182.6 185.85 185.9 184.8 190.5 184.7 195.25 184.55 198.4 185.55 202.0 186.7 202.0 188.85 202.0 191.55 200.25 192.25 L190.5 193.0 Q181.7 193.0 179.5 191.0 178.8 190.35 178.85 189.55 M233.35 181.3 Q209.95 179.35 189.0 176.5 167.6 173.6 154.0 170.5 L154.0 171.25 151.0 180.05 Q148.0 189.25 148.0 193.35 148.0 194.4 152.2 196.8 156.95 199.55 164.0 202.0 183.45 208.75 206.0 208.75 221.95 208.75 228.55 205.25 237.0 200.8 237.0 188.35 237.0 185.25 234.5 181.5 L234.45 181.4 233.35 181.3 M303.7 187.25 Q307.0 188.65 307.0 191.0 307.0 192.85 305.45 194.05 304.2 195.0 303.0 195.0 290.3 195.0 287.0 192.75 285.9 192.0 285.85 191.0 L286.0 189.75 Q286.0 187.9 289.3 186.8 292.3 185.8 296.5 185.9 300.85 186.0 303.7 187.25 M27.6 130.25 Q-3.05 130.25 -12.2 145.75 -16.05 152.3 -17.25 163.15 -18.0 169.9 -18.0 185.1 L-18.25 196.4 Q-18.3 202.75 -17.3 207.3 -14.5 219.4 -1.0 229.75 5.55 234.75 12.5 238.55 25.65 245.65 29.6 248.0 44.95 257.05 56.5 261.5 54.6 256.85 54.05 246.05 53.85 242.5 53.85 225.5 L53.85 201.5 Q54.35 189.25 57.35 180.0 63.1 162.15 83.65 140.95 L57.85 135.65 Q31.5 130.25 27.6 130.25" fill="#000000" fill-rule="evenodd" stroke="none"/>
  </g>
</svg>
