<?xml version="1.0" encoding="UTF-8" standalone="no"?>
<svg xmlns:xlink="http://www.w3.org/1999/xlink" height="489.0px" width="729.3px" xmlns="http://www.w3.org/2000/svg">
  <g transform="matrix(1.0, 0.0, 0.0, 1.0, 76.2, -22.0)">
    <path d="M651.95 175.05 Q650.65 180.8 646.6 185.75 643.75 189.2 634.2 198.0 621.05 210.1 611.85 219.25 L601.0 230.05 Q590.6 239.75 579.45 247.2 L568.65 253.8 571.6 255.75 Q579.5 261.0 590.1 298.85 590.1 303.15 584.8 310.95 579.2 319.3 570.55 327.0 548.15 347.0 524.6 347.0 513.75 347.0 502.7 331.5 498.45 325.55 495.65 319.2 L495.6 319.0 484.0 332.35 Q444.7 377.95 430.75 401.5 411.15 434.55 402.5 457.0 L389.65 489.35 Q380.9 511.0 380.5 511.0 377.55 511.0 376.5 509.0 376.0 508.05 376.0 506.75 376.0 495.2 398.85 447.05 416.85 409.1 423.5 398.0 436.1 377.15 473.95 331.5 L493.4 308.1 493.75 307.5 494.65 306.65 497.85 302.75 Q508.0 290.45 508.0 289.25 508.0 287.35 500.25 280.5 L495.25 276.3 489.85 279.4 Q470.4 290.05 447.6 294.5 L405.8 298.55 Q375.55 301.55 352.8 304.7 347.05 311.8 331.4 335.9 323.75 347.55 319.15 353.35 319.75 357.2 320.0 361.75 339.95 358.95 351.05 360.45 361.1 361.8 366.0 367.0 369.8 371.0 372.25 379.75 L377.0 397.0 Q379.7 405.1 381.65 414.4 384.0 425.5 384.0 433.0 L384.0 439.75 Q383.4 445.0 380.0 445.0 378.7 445.0 373.25 419.8 366.75 390.05 363.0 380.0 360.5 373.3 352.2 372.15 L335.55 372.95 319.85 373.5 Q312.75 372.15 312.0 365.0 L311.3 358.85 310.9 358.65 309.5 357.75 309.25 356.7 Q309.0 355.8 309.0 354.35 309.0 352.65 309.65 350.45 L309.0 348.5 Q307.8 345.55 302.55 341.5 297.15 337.3 295.5 334.0 294.1 331.05 293.9 325.3 L294.0 318.25 Q294.0 315.3 294.85 312.15 L247.7 315.25 166.1 317.85 166.0 319.35 Q166.0 329.2 165.4 334.1 L162.5 352.75 Q160.2 368.15 159.25 371.7 157.6 377.8 154.05 379.6 150.9 381.2 142.1 381.05 128.9 380.5 118.6 380.5 104.45 380.5 97.75 426.75 96.9 432.5 94.0 458.55 92.4 473.0 91.0 473.0 87.7 473.0 87.05 461.65 L87.0 450.0 Q86.2 436.3 86.55 432.0 87.0 426.7 93.0 409.5 L101.75 384.3 Q104.95 376.05 107.95 373.75 110.75 371.6 117.4 371.8 L135.85 372.5 Q153.15 372.5 156.6 355.9 157.75 350.35 157.5 342.0 157.0 333.45 157.0 330.5 157.65 326.0 157.9 320.0 L157.95 317.95 140.85 318.0 Q106.35 318.0 72.6 308.85 48.2 302.25 31.35 293.25 20.2 287.35 12.35 279.8 3.85 271.65 2.85 265.0 L2.35 260.9 Q-13.2 256.6 -30.35 243.8 -39.0 237.3 -46.8 229.55 -52.6 223.75 -54.5 221.0 -61.4 210.9 -68.55 201.55 -73.8 194.65 -74.75 192.85 -76.15 190.25 -76.2 186.35 L-76.0 173.35 Q-76.0 141.65 -69.35 121.75 -57.15 85.25 -24.0 81.5 -10.4 71.15 6.9 76.3 13.5 78.25 21.7 82.75 24.75 84.45 35.5 91.0 L41.9 95.9 Q55.75 90.0 74.35 90.0 88.15 90.0 91.9 90.15 85.45 80.25 78.25 74.0 73.85 70.1 56.15 59.75 40.0 50.3 40.0 49.75 40.0 44.45 49.85 47.8 58.8 50.85 71.5 59.3 84.4 67.85 93.15 76.75 102.3 86.05 102.95 91.9 105.6 91.35 107.65 90.4 112.5 88.2 120.85 88.5 176.95 86.9 225.2 87.6 L225.0 85.35 Q225.0 75.85 238.15 64.15 249.15 54.3 267.0 44.9 282.75 36.55 295.9 32.45 309.0 28.4 309.0 31.85 309.0 35.95 286.25 47.25 261.75 58.65 258.25 60.75 255.0 62.7 242.0 76.6 L231.75 87.7 282.6 89.35 Q283.8 85.95 287.55 76.8 292.55 64.65 296.0 56.75 297.15 54.2 303.1 48.55 308.95 43.05 315.65 38.05 333.0 25.25 333.0 32.25 333.0 34.8 328.85 38.5 L319.3 45.85 Q304.45 56.9 301.5 65.25 L294.8 84.0 292.2 89.85 Q330.4 92.0 362.15 96.0 362.55 89.9 364.0 78.8 366.0 63.65 366.0 57.35 L366.0 41.25 Q366.0 36.1 360.0 32.15 L355.9 29.4 Q354.0 27.9 354.0 26.25 354.0 22.45 357.15 22.05 359.9 21.7 364.0 23.95 368.0 26.2 370.9 29.6 374.0 33.3 374.0 36.5 L374.0 57.1 374.25 65.55 Q374.45 74.5 374.05 81.55 373.45 91.7 371.75 97.3 389.0 99.7 404.25 102.7 L404.05 100.25 404.0 88.25 Q404.0 77.15 407.9 64.7 411.25 54.1 416.5 45.1 421.3 36.85 425.1 34.15 429.0 31.35 429.0 36.6 429.0 37.6 426.35 42.0 L420.5 51.65 Q412.0 66.45 412.0 75.25 412.0 80.8 412.7 97.8 L412.3 104.4 Q429.1 108.0 443.2 112.35 L443.0 110.75 Q443.0 105.45 468.05 89.55 487.15 77.4 499.75 71.25 503.6 69.3 507.8 66.2 L514.6 60.75 Q520.6 55.95 523.0 55.05 524.85 54.4 526.35 55.7 528.65 57.7 530.3 58.25 533.95 59.4 540.6 58.25 L563.1 56.25 597.8 55.85 Q608.05 55.7 609.9 56.05 611.25 56.3 611.55 58.1 612.0 60.65 615.1 63.25 L620.9 68.3 Q624.7 71.7 625.6 73.75 L637.75 99.15 Q643.75 111.5 646.35 118.25 653.1 135.7 653.1 158.5 653.1 169.9 651.95 175.05 M609.15 67.45 Q603.85 64.35 592.75 64.05 L562.6 64.25 Q550.8 64.25 535.35 66.85 516.35 70.05 510.0 75.0 505.05 78.8 497.4 82.95 486.85 88.7 484.75 90.0 L465.25 103.85 449.95 114.55 Q456.55 116.75 462.55 119.2 496.2 132.85 508.85 152.3 516.85 164.55 516.85 181.5 516.85 196.3 513.95 220.7 L512.45 233.85 529.1 237.0 Q540.1 239.0 551.2 244.1 555.5 246.1 560.15 248.7 564.05 246.85 567.1 245.0 576.9 239.0 587.05 230.6 594.2 224.65 603.6 215.75 611.45 208.3 624.75 196.65 634.15 188.4 637.4 184.7 641.85 179.55 643.5 173.85 645.1 168.25 645.1 158.0 645.1 149.65 641.05 132.95 637.15 117.05 633.6 109.25 622.6 85.25 620.0 80.5 614.65 70.7 609.15 67.45 M508.25 166.65 Q507.25 159.25 503.7 153.85 495.95 141.95 466.35 128.25 446.35 119.0 430.6 116.35 407.45 113.7 384.85 110.0 L365.65 106.4 333.85 100.5 Q318.85 97.75 286.4 97.0 L286.0 97.0 285.15 96.95 Q239.3 95.8 120.1 96.5 L108.55 99.95 94.35 101.0 Q85.9 101.0 84.65 99.65 84.35 99.3 84.45 98.7 84.5 98.25 84.1 98.25 63.95 98.25 48.8 104.35 48.4 105.65 47.25 106.3 45.95 107.0 43.5 107.0 L43.05 107.0 Q36.4 110.4 30.85 115.15 15.1 128.7 8.9 152.5 4.45 169.5 5.2 190.15 5.6 200.5 6.85 208.0 6.85 216.8 7.65 232.6 8.2 243.4 9.0 250.75 23.0 255.6 23.0 258.85 23.0 261.35 21.3 262.3 20.05 263.0 17.5 263.0 L10.85 262.6 11.1 263.5 Q12.65 268.55 17.2 274.1 24.25 282.7 36.4 289.55 71.9 309.5 141.6 309.5 L158.0 309.55 158.0 309.5 Q163.9 300.75 165.5 308.6 L165.7 309.55 219.55 309.8 Q268.95 309.25 297.4 305.8 298.75 303.85 300.1 305.5 L309.85 304.0 Q318.5 302.45 325.15 300.15 330.55 298.25 333.85 298.0 L349.8 296.45 361.45 284.3 354.05 285.1 329.0 285.0 Q305.25 285.0 261.2 281.1 209.05 276.45 164.05 269.05 108.45 259.85 76.8 248.35 42.9 236.0 39.4 221.8 L26.0 236.0 Q23.5 236.0 22.5 234.0 22.0 233.0 22.0 231.75 22.0 229.45 26.2 223.45 30.4 217.55 35.5 212.45 41.2 206.75 44.8 205.6 49.0 204.25 49.0 209.85 49.0 210.65 45.95 214.35 L48.95 216.9 57.3 225.8 Q62.3 231.3 64.25 232.75 69.05 236.35 90.3 243.9 109.0 250.5 119.0 253.0 150.1 260.7 225.3 268.8 296.55 276.5 328.1 276.5 362.25 276.5 362.85 276.0 L361.75 274.4 Q360.9 272.8 364.25 271.0 L368.4 269.2 Q371.15 268.1 372.0 267.25 374.0 265.2 382.3 262.55 386.3 261.25 389.45 260.45 L394.1 257.4 Q404.2 250.85 409.25 246.75 417.45 240.15 427.1 238.15 L427.0 238.0 Q427.0 236.5 433.15 234.4 440.6 231.9 451.95 230.8 475.1 228.45 504.65 232.65 L506.35 218.4 Q508.85 196.6 508.85 182.25 508.85 171.05 508.25 166.65 M457.05 194.2 Q458.7 193.0 460.5 193.0 463.05 193.0 464.25 194.8 465.0 195.9 465.0 196.85 465.0 201.15 462.45 202.25 L457.9 203.3 Q460.0 204.1 460.0 204.85 460.0 207.6 458.25 208.3 L449.5 209.0 443.0 208.5 437.0 207.5 432.05 207.15 410.0 206.0 408.65 205.8 403.75 206.05 403.55 206.05 404.0 208.5 Q405.0 214.5 405.0 222.0 405.0 232.9 390.55 241.3 368.6 254.0 320.0 254.0 L297.95 253.95 Q285.65 253.5 278.05 251.05 271.2 248.85 266.7 244.6 L265.75 246.3 Q260.4 254.0 237.5 254.0 L192.4 254.2 171.15 253.15 Q165.15 252.15 153.7 248.1 131.8 240.35 120.0 236.5 L101.3 230.45 Q94.4 228.1 91.8 226.35 89.1 224.5 88.45 221.55 88.0 219.7 88.0 213.6 88.0 208.65 91.6 202.1 94.85 196.25 99.5 191.6 101.2 189.9 102.75 188.75 L97.8 187.2 Q78.0 180.95 78.0 180.75 78.0 175.65 96.65 179.4 109.85 182.0 140.0 191.0 L189.2 205.45 Q215.25 212.5 225.35 212.5 L259.6 211.35 Q260.85 210.0 263.0 210.0 L265.0 210.35 265.8 210.9 291.0 208.2 Q307.25 206.0 319.75 203.5 L332.8 201.75 Q351.4 199.75 382.0 198.5 392.6 198.05 403.3 200.2 L406.3 200.85 Q407.6 199.0 414.45 198.45 421.7 197.85 433.0 198.9 L446.2 200.55 455.25 195.75 457.05 194.2 M470.0 247.0 Q474.5 251.15 495.3 265.95 503.9 259.5 501.85 255.0 L503.95 238.25 Q466.8 238.3 451.0 239.5 459.75 241.9 470.0 247.0 M415.45 256.9 Q401.8 265.5 398.0 267.0 L393.75 268.7 391.3 270.55 Q373.4 284.3 361.95 295.2 L408.05 290.4 446.85 286.0 Q466.85 282.05 485.45 272.05 L487.9 270.7 481.25 266.05 Q452.3 246.5 435.85 246.5 432.65 246.5 428.35 247.95 425.1 250.8 415.45 256.9 M395.5 212.8 L394.15 206.55 322.0 211.25 Q310.3 213.8 293.9 216.2 L266.1 219.35 266.0 220.25 265.55 226.05 265.7 227.25 266.2 229.5 Q267.1 232.25 269.25 234.5 279.85 245.5 319.6 245.5 343.0 245.5 365.0 241.0 397.0 234.45 397.0 221.5 397.0 219.7 395.5 212.8 M368.0 232.0 Q356.1 232.0 351.0 228.5 348.0 226.45 348.0 224.0 348.0 218.05 363.0 221.85 368.35 223.2 373.3 225.2 378.0 227.15 378.0 227.85 378.0 230.5 376.3 231.25 L368.0 232.0 M340.7 306.45 L332.35 307.75 Q320.1 309.8 302.0 311.5 L302.0 318.55 Q302.1 323.7 302.75 327.5 303.05 329.3 309.35 335.35 L314.3 340.5 Q321.65 328.15 339.1 308.25 L340.7 306.45 M569.6 265.25 Q566.75 261.85 560.55 257.95 535.05 270.0 508.0 270.0 L504.15 269.7 502.4 271.25 Q519.1 284.45 519.1 290.1 519.1 291.7 508.7 303.85 L501.65 312.0 507.4 322.4 Q517.2 338.75 526.35 338.75 546.3 338.75 565.9 320.05 572.65 313.6 577.75 306.4 582.1 300.3 582.1 298.6 582.1 295.75 577.95 283.5 573.3 269.7 569.6 265.25 M509.05 263.45 L525.7 259.85 Q540.25 256.3 550.75 252.5 546.5 250.4 541.45 248.15 523.05 240.0 511.9 238.55 510.25 253.75 509.85 260.25 509.75 261.8 509.05 263.45 M93.1 92.0 L92.65 91.3 92.35 90.85 Q91.55 91.4 93.1 92.0 92.6 92.2 92.4 92.4 92.05 92.75 93.6 92.75 L93.1 92.0 M33.35 100.35 L31.15 98.25 Q20.95 89.5 -4.0 89.5 -29.25 89.5 -42.05 97.25 -57.25 106.45 -61.75 129.75 L-65.9 151.85 Q-68.0 164.6 -68.0 173.6 -68.0 184.5 -67.8 186.65 -67.4 190.55 -65.45 193.5 L-58.55 202.1 Q-51.65 210.45 -44.5 220.5 -41.8 224.3 -33.1 231.3 -24.5 238.2 -18.25 241.75 -16.05 243.0 -8.8 245.25 L1.3 248.3 0.25 232.35 -1.0 206.85 Q-1.0 150.75 11.9 124.75 19.75 108.95 33.35 100.35 M108.65 194.25 L103.5 199.2 Q96.0 206.75 96.0 213.0 96.0 215.55 105.85 220.6 117.0 226.35 134.05 231.5 180.5 245.5 237.5 245.5 L259.85 244.45 Q260.5 244.1 259.75 242.85 258.8 241.3 259.0 240.25 L259.0 235.75 Q259.0 229.9 254.0 224.75 L250.55 220.95 250.2 220.4 Q237.85 221.0 225.0 221.0 210.7 221.0 143.0 201.0 127.15 196.35 110.95 191.3 110.55 192.35 108.65 194.25 M155.0 218.85 Q155.0 221.25 153.25 222.25 151.9 223.0 149.0 223.0 144.45 223.0 137.0 219.0 130.0 215.2 130.0 213.75 130.0 206.9 142.5 211.75 146.9 213.45 151.1 215.9 155.0 218.25 155.0 218.85" fill="#000000" fill-rule="evenodd" stroke="none"/>
  </g>
</svg>
