<?xml version="1.0" encoding="UTF-8" standalone="no"?>
<svg xmlns:xlink="http://www.w3.org/1999/xlink" height="536.85px" width="871.1px" xmlns="http://www.w3.org/2000/svg">
  <g transform="matrix(1.0, 0.0, 0.0, 1.0, 117.0, 24.75)">
    <path d="M338.3 -16.0 Q335.0 -20.75 335.0 -21.75 335.0 -27.9 341.55 -21.4 347.8 -15.15 356.0 -1.65 364.8 12.9 370.45 27.25 377.0 44.0 377.0 55.1 L377.05 63.75 Q376.45 71.0 373.0 71.0 371.3 71.0 368.4 52.15 364.95 30.0 363.0 24.75 358.55 12.8 346.15 -4.95 L338.3 -16.0 M345.0 -2.1 Q345.0 -0.45 313.1 15.8 280.15 32.3 278.0 33.5 269.6 38.25 264.05 43.5 258.55 48.65 256.5 53.75 L253.5 64.1 252.7 66.05 294.05 69.25 302.2 70.05 Q303.2 64.4 309.8 54.05 317.1 42.65 327.0 31.75 337.35 20.4 344.2 16.8 352.0 12.7 352.0 20.85 348.75 21.95 343.5 25.9 332.95 33.85 323.0 48.5 322.3 49.55 314.45 65.2 L311.35 71.0 Q324.85 72.5 329.6 73.5 L396.3 76.15 406.85 76.75 Q405.45 74.7 405.05 69.45 L405.0 60.6 Q405.0 43.3 416.4 28.65 425.95 16.4 441.5 8.2 455.1 1.0 466.6 -0.05 478.0 -1.05 478.0 4.85 478.0 6.6 477.1 7.0 L472.95 7.7 Q461.15 8.85 445.75 13.5 440.65 15.0 438.05 17.6 435.7 20.55 433.75 22.0 429.4 25.2 423.9 30.75 417.4 37.25 416.0 40.75 413.7 46.25 413.15 64.0 412.9 71.05 412.25 73.9 411.8 75.95 411.0 77.0 L428.05 78.4 Q428.7 68.2 464.6 50.1 494.9 34.8 518.1 28.0 L536.15 23.0 Q550.35 19.05 551.1 19.0 564.65 17.25 594.4 16.6 627.25 15.9 633.1 18.25 645.0 22.9 655.9 30.1 663.15 34.9 674.85 44.5 686.35 53.95 691.15 97.7 694.1 124.9 694.1 161.1 L694.4 182.95 Q694.4 199.15 693.6 209.45 L696.85 213.0 702.75 220.4 Q706.6 225.1 710.6 228.75 719.15 236.8 735.0 258.1 754.1 283.75 754.1 292.5 754.1 293.9 752.45 297.35 750.2 302.05 746.4 306.0 734.7 318.0 713.6 318.0 707.55 318.0 697.45 314.4 687.85 310.95 678.15 305.5 668.05 299.9 661.9 294.4 655.1 288.35 655.1 284.1 655.1 282.6 655.9 281.5 656.95 280.0 659.1 280.0 659.3 280.0 678.95 294.9 698.85 309.75 700.1 309.75 718.5 309.75 727.1 308.05 746.1 304.25 746.1 292.25 746.1 285.7 725.6 259.55 L704.35 233.75 Q698.95 227.2 691.65 221.6 690.45 225.5 688.3 230.35 684.9 238.05 680.85 244.0 678.25 247.9 660.35 258.0 642.75 268.0 639.1 268.0 635.8 268.0 634.65 266.0 634.1 265.1 634.1 263.75 634.1 259.6 650.45 252.2 L662.75 246.7 Q669.0 243.85 670.6 242.25 676.7 236.3 680.1 229.0 682.55 223.75 684.15 216.35 677.35 212.1 669.25 208.45 633.2 192.25 578.25 192.25 561.85 192.25 551.95 192.7 L552.0 199.05 551.8 207.95 557.05 211.5 Q569.55 219.85 573.85 223.5 575.5 224.9 606.2 246.0 636.1 267.7 636.1 274.0 636.1 283.6 621.1 299.8 609.2 312.65 585.5 332.0 L543.4 365.15 Q519.2 384.2 509.0 394.0 498.05 404.5 469.75 424.25 437.9 445.95 426.25 454.1 L404.8 469.7 Q393.65 478.2 388.0 484.1 L373.0 500.05 Q361.4 512.1 360.0 512.1 357.1 512.1 356.25 509.95 L356.0 507.5 Q356.0 493.45 425.55 442.95 460.85 417.3 501.25 390.75 515.25 380.3 534.65 363.7 L570.85 333.0 601.9 307.25 Q628.1 283.8 628.1 275.25 628.1 273.75 581.65 238.3 563.3 224.3 551.3 215.75 L551.1 217.65 Q548.8 238.45 538.35 255.5 537.45 257.0 536.15 260.3 L533.9 265.3 Q530.55 271.15 522.85 273.0 516.0 274.65 499.4 280.1 L479.6 286.5 Q473.8 288.0 462.1 292.4 L441.1 300.25 Q429.6 304.4 386.7 307.95 L336.0 310.95 336.7 316.7 Q337.35 323.2 337.0 325.75 337.0 337.9 338.0 362.5 339.0 387.05 339.0 398.5 339.0 401.45 338.8 402.25 338.0 405.0 335.0 405.0 330.05 405.0 329.05 374.5 L329.0 344.1 328.3 329.4 Q327.9 317.9 328.6 310.95 L318.55 310.15 Q308.5 309.25 307.85 308.75 307.35 308.35 256.25 307.5 L229.9 308.35 Q226.75 308.75 224.15 310.25 219.3 313.0 176.35 313.0 158.9 313.0 139.25 312.05 137.8 319.35 133.45 335.65 126.55 361.65 126.0 365.75 123.05 386.75 120.25 401.9 116.15 424.0 114.0 424.0 110.7 424.0 110.05 420.5 L110.0 416.75 Q110.0 408.25 114.05 385.5 118.4 362.4 119.0 357.5 119.0 352.35 121.9 342.5 125.55 329.95 126.0 327.5 126.3 325.75 128.0 320.5 129.8 315.15 130.25 312.5 L130.45 311.55 Q101.1 309.75 67.25 305.85 14.95 299.85 -4.5 294.75 -19.5 290.9 -23.45 280.85 -24.65 277.8 -25.5 272.0 -26.45 265.75 -27.25 263.25 -30.95 251.75 -32.7 230.7 -34.0 214.9 -34.0 197.6 -34.0 187.45 -32.3 165.45 L-30.0 135.0 Q-23.4 113.05 -4.2 94.0 4.1 85.75 12.25 80.9 20.55 76.0 26.35 76.0 31.3 76.0 32.65 77.65 L33.25 78.75 33.85 79.25 39.35 77.8 Q37.1 76.15 34.8 73.3 28.25 63.95 23.9 58.65 16.1 48.95 7.2 43.95 -4.7 37.25 -20.5 37.25 L-58.45 36.95 Q-68.45 37.0 -71.3 38.8 -72.65 39.65 -74.3 41.8 L-78.25 46.85 Q-85.3 55.4 -98.5 65.25 -101.75 67.65 -106.35 80.95 -110.55 93.0 -113.0 93.0 -116.0 93.0 -116.8 90.65 L-117.0 88.0 Q-117.0 75.25 -104.15 59.9 -93.25 46.95 -73.75 32.75 L-62.0 24.4 Q-57.35 21.55 -53.0 21.3 -48.6 21.0 -40.25 23.1 L-17.25 29.5 -8.0 31.55 Q1.05 33.4 3.5 34.5 8.9 36.95 14.75 40.4 22.05 44.75 23.5 47.0 26.9 52.35 38.65 64.0 48.3 73.6 48.95 75.3 60.8 72.35 75.25 70.25 L70.55 66.25 49.4 44.75 Q35.15 30.35 24.1 23.25 8.95 13.5 -5.25 13.5 -16.15 13.5 -18.15 15.25 L-19.5 16.45 Q-20.55 17.0 -23.5 17.0 -26.5 17.0 -27.55 15.0 -28.0 14.1 -28.0 12.75 -28.0 10.55 -23.15 8.3 -18.1 5.95 -10.95 5.15 7.85 3.0 21.5 12.75 29.4 17.3 36.05 21.9 45.1 28.15 47.75 31.75 50.3 35.3 57.55 42.55 64.2 49.2 69.25 53.5 75.45 59.0 85.9 65.2 L90.8 68.2 Q118.7 65.05 153.7 64.3 153.25 63.55 153.05 62.5 L153.0 58.75 Q153.0 52.75 156.3 45.2 159.2 38.5 163.5 33.1 167.75 27.8 170.7 26.95 174.0 26.0 174.0 31.25 174.0 32.5 169.55 39.3 164.75 46.6 164.0 49.25 163.55 50.65 162.45 58.65 161.6 62.35 160.25 64.2 193.05 63.7 231.85 65.25 L242.1 65.55 Q243.3 52.9 258.1 39.0 271.4 26.55 293.5 14.85 312.1 5.05 328.9 -0.3 345.0 -5.45 345.0 -2.1 M506.5 40.3 Q496.1 45.5 487.0 48.0 474.2 51.45 452.55 67.65 L438.8 78.35 437.35 79.5 Q446.9 80.85 450.85 82.5 470.4 90.7 482.6 94.9 497.5 100.0 524.85 107.5 544.3 112.8 549.25 123.85 551.0 127.75 551.4 133.55 L551.85 143.0 Q552.55 150.45 552.3 165.1 L551.85 180.1 551.9 184.65 558.1 184.25 Q611.6 187.05 641.05 191.2 667.55 194.95 680.5 200.65 L685.9 203.5 Q686.45 197.0 686.45 189.15 686.1 170.9 686.1 162.0 686.1 136.1 685.75 124.75 684.95 101.2 682.35 90.0 681.55 86.6 681.15 81.05 L680.4 71.85 Q679.1 60.9 673.1 54.5 665.55 46.35 652.6 37.45 632.35 23.5 617.5 23.5 551.2 23.5 524.65 32.3 518.05 34.5 506.5 40.3 M544.35 136.9 Q544.45 132.3 542.65 129.15 537.75 120.5 513.85 114.0 498.35 109.8 478.95 102.8 458.0 95.2 439.85 90.0 421.8 84.85 385.85 83.55 L330.35 81.75 296.05 77.75 Q258.8 73.8 230.85 73.25 92.0 75.7 62.05 79.65 52.0 81.0 41.9 84.25 29.85 88.1 17.1 90.5 3.6 92.95 -5.5 104.7 -11.0 111.75 -16.0 124.5 -25.0 147.25 -26.2 163.4 -26.95 173.75 -26.0 198.35 -26.0 220.55 -25.3 230.25 -23.8 250.25 -18.75 261.0 -17.8 263.05 -16.75 268.8 -15.75 274.45 -14.3 277.4 -9.45 287.45 8.35 289.25 L93.5 299.35 134.15 303.1 135.65 301.45 Q139.1 298.1 139.85 303.5 L177.5 304.75 Q216.45 304.75 221.7 301.9 224.4 300.35 228.25 299.9 L255.85 299.0 311.85 301.25 326.6 302.1 330.15 302.3 Q331.05 299.1 332.1 299.1 333.15 299.1 334.2 302.45 L337.95 302.6 348.3 298.4 Q366.7 290.4 381.0 281.25 L401.1 268.3 387.45 274.9 Q351.2 291.0 319.5 291.0 310.85 291.0 309.35 289.2 308.95 288.7 308.85 287.55 308.75 286.5 308.25 286.0 L304.1 287.2 299.0 288.0 Q290.25 288.0 289.8 284.25 289.65 283.05 290.3 281.1 L291.0 278.5 Q150.55 271.9 95.0 262.4 70.15 258.1 56.7 252.5 45.85 247.95 39.5 241.0 L25.0 227.0 Q17.1 219.3 16.0 214.0 15.4 211.0 11.8 202.05 6.05 209.0 4.0 209.0 1.55 209.0 0.55 207.0 0.0 205.95 0.0 204.75 0.0 203.4 5.8 193.7 L8.15 189.85 8.0 187.75 Q8.0 186.35 9.05 184.1 10.15 181.7 11.45 180.6 L14.2 180.55 18.5 174.35 Q37.0 149.0 37.0 164.85 37.0 167.15 23.0 187.1 L30.25 198.5 Q35.4 204.85 42.7 210.75 52.3 218.4 61.0 221.0 75.45 225.3 97.85 230.3 L127.35 236.9 117.15 233.6 Q105.95 230.05 88.0 226.5 77.8 224.5 69.6 219.35 63.35 215.4 61.25 212.0 51.65 196.35 50.8 193.85 50.0 191.55 49.95 188.2 L50.0 179.0 51.0 169.25 Q52.0 160.15 52.0 155.75 L52.25 154.55 50.45 153.3 Q37.0 143.75 37.0 137.5 37.0 131.05 42.0 134.25 45.3 136.35 49.75 141.75 52.7 143.3 56.05 145.7 L56.9 144.55 Q61.0 139.7 61.0 148.85 L61.0 149.3 Q67.1 152.75 78.75 155.5 L108.35 159.15 145.0 163.0 152.25 164.75 Q159.9 166.65 168.9 168.05 199.1 172.75 250.5 172.75 298.8 172.75 344.3 168.7 386.15 165.0 404.25 159.75 L404.5 159.25 405.15 159.45 408.0 158.5 Q410.95 157.45 429.3 148.65 445.15 141.0 448.0 141.0 449.5 141.0 450.0 141.35 L451.25 142.25 451.65 142.9 Q452.0 143.4 452.0 144.85 452.0 149.05 442.6 154.5 431.15 161.1 410.05 166.5 L410.55 170.7 Q410.85 175.9 410.0 182.0 410.0 188.25 408.0 211.25 407.9 212.35 409.15 217.1 409.55 222.1 405.25 225.75 392.0 237.0 334.5 237.0 288.5 237.0 270.5 216.25 L268.75 214.1 Q267.5 220.55 265.75 223.0 L262.5 227.45 Q260.15 230.45 257.5 232.75 L252.4 236.55 Q253.1 236.9 253.05 237.25 252.9 237.85 250.55 238.0 L250.5 238.0 Q250.05 238.4 247.25 239.25 246.5 239.5 193.5 240.0 160.3 240.0 148.1 239.55 L135.3 238.65 137.0 239.0 161.35 243.55 185.5 247.75 207.0 249.5 Q269.0 250.0 270.75 250.5 L271.55 250.95 272.75 252.0 Q273.3 252.85 273.75 254.6 L274.5 257.5 287.4 253.15 Q297.0 250.0 301.0 250.0 304.45 250.0 305.55 252.4 306.15 253.55 306.0 254.75 312.8 251.1 335.2 248.0 354.5 245.35 378.0 244.0 407.1 242.35 412.3 237.25 413.85 235.7 414.25 232.45 414.7 228.95 416.0 227.25 421.35 220.5 425.45 216.9 432.95 210.25 441.75 207.75 445.45 206.65 456.55 197.2 L462.8 191.8 459.0 183.6 Q459.0 174.3 464.9 180.35 466.7 180.1 470.4 187.45 473.2 191.55 476.0 196.75 476.0 197.7 475.4 198.85 L477.0 203.1 Q479.15 203.5 479.8 205.8 480.2 207.2 480.0 208.75 480.0 221.6 454.45 237.2 447.4 241.5 435.7 247.5 426.0 252.45 424.75 253.5 421.55 256.2 415.6 259.95 418.9 258.25 421.5 257.25 445.4 247.9 465.1 233.15 L480.8 221.2 Q490.25 214.3 499.5 209.25 L508.95 203.45 Q515.05 199.65 519.1 197.9 524.8 195.45 529.75 195.55 L529.35 194.85 Q529.1 194.25 529.1 192.35 529.1 188.5 534.75 186.85 537.75 186.0 543.9 185.35 L543.85 179.85 543.85 145.0 544.35 136.9 M537.1 196.25 Q537.2 196.65 536.25 196.85 538.25 197.65 540.1 199.0 L544.2 202.4 544.15 197.8 544.05 193.25 Q538.4 193.8 537.15 194.65 536.7 194.9 537.1 196.25 M401.75 168.5 Q351.4 179.7 268.85 180.9 269.7 184.1 270.05 189.4 270.35 194.15 270.2 199.0 270.55 200.85 271.05 202.25 280.0 228.5 334.5 228.5 L371.15 227.15 Q393.3 224.95 398.0 219.0 399.25 217.45 400.0 213.2 L401.0 207.0 Q401.95 202.7 401.95 195.4 L402.0 183.0 401.6 171.35 Q401.6 169.85 401.75 168.5 M375.9 187.75 Q379.0 190.3 379.0 195.5 379.0 200.65 377.8 203.0 375.2 208.0 367.0 208.0 360.45 208.0 359.05 203.4 358.65 201.95 358.75 200.15 L359.0 198.5 Q359.0 193.35 362.15 189.85 364.95 186.7 369.0 186.05 373.05 185.45 375.9 187.75 M467.5 202.5 Q466.05 204.2 464.0 205.7 460.05 208.65 448.15 213.65 436.3 218.6 430.9 222.6 422.35 229.05 420.0 238.5 418.2 245.75 400.85 249.05 380.0 251.75 372.25 253.75 366.35 255.25 340.05 257.0 315.4 258.6 314.0 259.5 312.25 260.55 308.6 265.95 305.85 270.0 301.5 270.0 296.1 270.0 296.5 265.75 298.0 260.95 298.0 259.75 L298.0 259.25 Q296.2 259.35 287.25 262.75 278.7 266.0 272.5 266.0 264.85 266.0 264.65 262.35 264.6 261.2 265.3 259.7 L266.0 258.25 Q155.35 254.05 120.05 244.65 114.3 243.1 107.5 240.7 L96.3 236.8 Q82.05 232.25 61.0 229.5 46.35 227.65 31.65 212.9 25.55 206.75 21.8 200.45 19.4 196.45 18.55 193.35 L17.25 195.05 Q18.25 198.45 20.0 202.5 22.65 208.65 28.5 216.15 34.1 223.4 43.75 233.25 52.8 242.6 65.45 247.65 80.2 253.6 108.0 257.5 128.05 260.35 177.65 263.4 L248.5 267.5 284.65 270.5 Q299.0 272.9 299.0 279.5 L299.0 279.75 Q303.2 278.65 306.0 277.05 307.9 276.0 309.5 276.0 313.25 276.0 314.5 279.25 315.75 282.5 319.85 282.5 337.0 282.5 361.25 274.65 373.7 270.65 387.0 265.5 397.45 262.85 406.8 255.85 L414.1 250.05 Q418.4 246.6 421.5 244.75 L438.3 235.65 Q449.25 229.9 455.5 225.75 459.15 223.35 467.85 212.9 L470.8 209.4 Q469.2 206.85 467.5 202.5 M476.85 278.5 Q484.35 276.0 494.75 271.95 504.0 268.55 514.35 266.25 525.3 263.75 527.65 259.9 L529.15 255.9 Q530.1 252.95 531.6 250.75 541.85 235.6 543.7 215.55 L544.05 210.65 Q531.8 202.25 529.35 202.25 525.95 202.25 488.0 226.8 446.3 253.85 442.0 256.0 419.3 270.55 397.55 283.5 378.0 295.1 364.75 301.4 L382.4 300.3 Q424.45 296.8 441.35 291.25 L459.6 284.75 Q472.15 280.05 476.85 278.5 M171.2 177.15 L138.85 172.05 Q112.75 168.2 77.0 164.5 68.9 163.7 60.15 159.25 L59.5 163.45 Q58.0 172.3 58.0 179.25 L57.85 187.55 Q57.8 190.0 58.5 191.5 59.55 193.85 69.0 208.5 71.15 212.2 106.5 222.3 139.7 231.75 143.5 231.75 203.3 231.75 232.5 233.85 L242.05 234.7 Q242.6 232.8 247.25 230.0 L248.5 229.25 250.65 227.55 252.5 225.75 255.8 222.35 258.75 218.75 Q261.3 215.75 261.8 211.2 L262.0 204.5 261.75 198.95 Q261.1 195.85 261.05 192.6 L260.5 187.35 Q260.25 183.5 260.7 180.95 L249.5 181.0 Q216.7 181.0 199.6 180.05 185.25 179.3 171.2 177.15 M110.0 192.25 Q110.0 185.25 113.6 180.95 116.8 177.1 121.5 176.8 126.15 176.5 129.4 179.8 133.0 183.5 133.0 190.1 133.0 195.65 131.0 198.75 127.6 204.0 118.5 204.0 111.45 204.0 110.05 198.25 109.6 196.45 109.75 194.25 L110.0 192.25" fill="#000000" fill-rule="evenodd" stroke="none"/>
  </g>
</svg>
