<?xml version="1.0" encoding="UTF-8" standalone="no"?>
<svg xmlns:xlink="http://www.w3.org/1999/xlink" height="581.65px" width="872.7px" xmlns="http://www.w3.org/2000/svg">
  <g transform="matrix(1.0, 0.0, 0.0, 1.0, 97.55, 73.65)">
    <path d="M229.1 -33.9 Q225.0 -29.85 221.65 -25.8 209.45 -10.95 201.0 10.25 199.3 14.45 194.7 37.4 L192.2 48.9 Q238.1 47.05 281.85 48.5 L285.5 48.75 285.25 47.9 Q285.0 47.2 285.0 45.75 285.0 39.15 307.25 12.05 325.3 -9.9 334.5 -18.75 338.85 -22.95 344.8 -27.85 341.0 -33.95 341.0 -34.75 341.0 -43.3 350.55 -32.7 L350.65 -32.55 Q363.3 -42.5 381.8 -55.1 417.0 -79.0 417.0 -72.1 417.0 -69.05 383.85 -44.8 L356.85 -24.95 Q363.2 -16.5 371.5 -3.35 380.6 11.1 388.05 24.8 L396.0 18.5 Q399.0 16.2 405.05 8.6 L415.25 -4.2 Q420.85 -10.85 423.55 -11.8 427.0 -13.0 427.0 -6.0 427.0 -4.95 418.1 5.1 408.8 15.65 397.75 27.0 L392.2 32.65 392.45 33.2 Q400.75 49.35 401.85 55.25 L419.9 56.35 Q426.15 52.45 453.05 38.8 488.15 21.0 497.75 17.25 529.7 4.85 560.4 -2.9 592.1 -10.95 592.1 -6.1 592.1 0.55 554.55 10.7 512.3 20.8 503.0 23.75 497.5 25.5 485.35 32.0 L462.05 44.9 Q447.05 53.25 437.5 57.5 L447.4 58.25 Q524.2 64.35 564.1 78.25 585.6 96.8 591.25 102.05 600.8 110.95 604.4 116.6 607.85 122.1 608.55 129.3 608.85 132.1 608.85 147.6 L608.85 152.4 637.1 150.5 642.7 149.25 Q649.4 147.85 655.7 147.0 676.35 144.25 689.6 148.0 L693.25 155.4 Q695.3 159.9 695.85 163.0 699.15 179.75 703.85 192.25 L714.8 221.75 Q721.3 239.05 726.35 250.75 746.35 296.35 760.65 364.5 775.1 433.35 775.1 484.75 L775.15 496.75 Q774.5 508.0 771.1 508.0 768.4 508.0 766.05 473.35 762.75 425.9 761.85 419.0 758.15 391.25 755.3 374.45 750.9 348.9 745.6 330.5 740.75 313.45 731.0 286.65 L714.85 242.0 696.2 188.4 Q684.15 154.25 683.85 154.25 L652.4 155.45 Q648.5 155.95 641.8 158.1 633.95 160.65 608.85 161.65 L608.85 165.6 604.6 192.25 603.15 202.5 Q602.1 208.7 599.95 213.35 594.05 226.05 576.35 234.75 565.25 240.2 545.1 255.3 L528.15 267.5 528.15 270.75 Q527.55 296.0 524.1 296.0 522.6 296.0 521.65 290.75 518.1 293.7 510.75 297.55 496.6 305.0 489.5 305.0 486.55 305.0 485.5 303.0 485.0 302.05 485.0 300.75 485.0 300.25 485.9 298.55 486.85 296.85 487.75 295.75 L488.0 295.5 461.95 297.65 462.0 303.5 462.0 386.35 462.0 435.5 Q461.35 484.0 458.0 484.0 453.45 484.0 453.3 446.65 L454.0 385.25 Q454.0 368.35 453.0 335.5 L452.1 298.65 442.65 299.65 427.3 301.25 420.1 303.5 Q405.5 308.55 353.45 308.75 300.75 308.25 254.9 308.1 L253.6 308.25 240.5 309.0 Q234.95 309.0 232.3 308.05 L205.85 308.0 Q118.2 308.0 88.8 307.2 L50.0 305.55 Q49.35 309.3 34.55 344.15 18.1 382.8 15.5 393.75 L9.65 415.45 Q5.95 429.2 4.75 438.0 L0.85 465.55 Q-1.9 482.0 -4.0 482.0 -7.45 482.0 -8.05 476.45 L-8.0 470.6 Q-8.0 449.25 1.05 415.15 8.8 386.05 21.0 354.85 32.15 326.4 40.95 311.1 43.05 307.45 44.7 305.2 18.35 303.35 -2.0 300.25 L-27.65 295.8 -45.0 291.75 Q-60.25 287.85 -68.9 282.75 L-73.25 279.8 -76.0 285.0 -78.1 284.65 Q-78.75 284.15 -79.5 283.75 L-79.75 282.7 -80.0 280.35 Q-80.0 278.3 -78.7 274.6 -80.75 272.2 -82.25 269.5 -95.75 245.4 -97.05 239.95 -97.75 237.0 -97.45 232.25 -97.0 223.65 -97.0 220.0 -97.0 194.75 -84.8 153.7 -79.5 135.9 -74.0 123.25 -68.2 109.9 -64.0 106.75 L-64.0 106.0 -66.0 106.0 Q-70.15 106.0 -71.95 101.75 L-73.0 97.25 Q-73.0 90.45 -42.55 81.2 -28.7 77.0 -11.1 73.1 -19.55 70.8 -44.3 62.5 L-78.0 51.0 Q-78.0 44.25 -65.5 47.35 -47.9 53.15 -37.75 56.0 -24.35 60.05 -14.2 63.55 0.0 68.45 0.0 69.85 L-0.05 70.75 Q17.3 67.2 37.85 63.9 60.6 60.25 84.35 57.45 L83.25 51.05 Q82.0 49.5 80.95 47.4 78.15 39.2 77.25 38.0 L67.55 30.4 Q59.0 23.85 59.0 22.0 59.0 14.55 64.65 16.85 69.25 18.75 77.0 26.8 83.5 33.55 89.4 41.6 95.0 49.25 95.0 51.0 95.0 52.8 93.55 54.0 L92.3 54.8 92.45 56.5 Q121.25 53.2 151.5 51.1 L185.1 49.2 185.05 49.0 185.0 40.75 Q185.0 27.3 187.0 21.5 188.7 16.45 197.5 -3.5 201.6 -13.75 208.5 -25.25 215.55 -37.05 223.5 -41.9 232.0 -47.15 232.0 -37.1 L229.1 -33.9 M350.0 -19.8 Q341.35 -13.35 339.25 -11.5 L320.65 4.7 Q312.2 12.6 307.5 20.0 306.15 22.2 303.7 27.9 L299.4 37.85 Q295.25 46.7 291.65 49.1 L356.0 52.7 370.5 39.75 380.8 30.9 371.25 13.25 Q367.8 7.1 353.3 -14.75 L350.0 -19.8 M581.05 59.25 Q590.65 57.25 597.1 56.5 597.1 48.15 604.1 52.85 606.45 54.45 608.9 57.05 611.1 59.35 611.1 59.85 611.1 64.0 586.65 66.75 566.95 69.0 549.6 69.0 531.25 69.0 527.4 66.85 526.15 66.15 526.5 65.25 L527.1 64.35 526.5 61.55 Q526.45 60.7 529.1 60.55 533.35 60.3 570.35 60.75 573.55 60.75 581.05 59.25 M512.95 172.0 Q532.05 163.75 557.05 159.0 575.8 155.4 600.85 153.1 L600.85 147.1 Q600.85 135.7 599.0 127.95 595.95 115.3 587.45 105.45 564.15 78.55 499.85 72.0 378.25 59.5 362.85 58.75 260.1 53.6 147.7 62.15 L93.0 67.0 93.0 68.25 Q92.4 72.0 89.0 72.0 87.95 72.0 86.65 67.65 62.05 70.35 44.85 73.25 -23.75 76.9 -49.5 99.15 -59.1 107.45 -64.2 119.55 -65.7 123.1 -70.5 139.75 -76.65 161.4 -84.4 182.9 -89.0 198.15 -89.0 218.85 -89.0 224.05 -87.7 230.5 L-84.5 243.25 Q-82.65 249.9 -80.45 254.9 -78.1 260.3 -74.75 265.15 -70.75 256.65 -63.65 244.05 -51.8 222.95 -45.75 214.0 L-38.95 203.8 Q-33.75 192.55 -26.0 183.75 L-22.55 180.1 Q2.0 146.25 2.0 159.0 2.0 161.35 -1.0 166.9 -1.0 170.3 -1.35 177.3 -1.35 183.9 0.5 188.25 6.2 201.7 11.95 213.4 20.6 231.0 23.0 231.0 L34.25 228.0 Q45.25 225.0 48.0 225.0 54.0 225.0 54.55 233.4 54.9 237.95 54.0 245.75 L79.75 245.75 85.8 244.85 92.8 243.95 Q100.1 243.4 118.6 243.2 L115.0 241.5 Q111.35 239.9 105.85 237.0 L99.25 233.25 Q93.85 229.05 87.4 223.45 80.45 217.4 77.0 213.75 69.4 205.7 64.65 194.5 61.25 186.65 58.25 174.0 55.4 162.15 51.5 149.85 L45.65 131.8 Q42.2 120.65 40.9 109.45 L16.45 101.15 Q-16.0 89.7 -16.0 86.75 -16.0 83.0 -11.0 83.0 L18.05 93.0 40.15 100.35 40.0 94.85 Q40.0 92.65 41.25 89.25 42.5 85.8 44.0 84.05 48.0 79.4 48.0 92.75 48.0 97.35 48.55 103.05 L59.5 106.25 76.0 109.35 94.5 113.0 107.35 116.3 117.0 118.25 119.15 119.4 Q121.25 120.6 122.5 120.75 L130.9 121.6 138.0 122.0 231.35 122.5 275.0 122.0 Q277.4 119.0 280.0 119.0 282.2 119.0 283.3 120.8 L283.85 121.9 Q327.95 121.25 329.25 120.75 L332.0 119.55 334.75 118.5 339.0 117.75 Q342.3 117.2 344.5 116.25 350.2 113.7 354.45 112.95 L368.0 110.5 392.45 105.6 Q409.9 101.95 418.25 99.0 422.0 97.6 434.7 91.5 449.0 84.6 456.1 81.6 456.5 75.0 458.2 75.8 459.3 76.3 460.75 79.75 483.0 71.1 483.0 79.85 483.0 80.4 478.4 81.9 469.4 84.85 465.25 86.35 L463.3 87.1 Q465.9 95.8 467.8 106.6 470.0 118.9 470.0 127.0 470.0 137.55 469.0 143.15 467.95 149.15 464.9 154.65 462.45 159.05 455.85 167.7 L440.25 188.5 Q433.75 197.45 426.75 203.5 415.5 213.25 402.0 217.0 400.6 217.4 391.1 221.35 380.85 225.6 371.9 228.45 341.85 238.0 309.0 238.0 282.7 238.0 270.0 219.75 267.45 216.05 265.55 211.85 261.65 225.35 259.4 230.95 254.55 242.75 247.35 246.7 240.75 250.3 225.5 250.45 208.8 250.1 195.0 250.05 194.85 254.4 187.1 259.2 182.3 262.2 169.25 269.5 L234.75 261.0 254.0 259.2 285.0 256.75 Q289.85 256.45 306.1 252.7 322.0 249.0 323.0 249.0 325.55 249.0 326.55 250.6 341.8 243.05 373.15 229.9 430.55 205.7 443.25 202.25 463.65 196.6 482.45 187.2 L497.4 179.5 Q506.2 174.9 512.95 172.0 M543.3 168.4 Q537.75 171.5 532.6 173.75 L498.85 187.7 Q469.95 199.45 458.0 204.5 L385.75 235.25 349.8 250.8 320.4 263.2 318.5 265.25 318.5 265.5 Q323.9 263.55 339.55 261.3 L371.1 257.0 Q415.3 250.65 431.5 241.75 453.65 229.65 475.5 219.8 507.65 205.25 521.85 204.1 522.7 198.25 524.1 193.25 532.05 197.55 530.95 215.55 L529.3 230.75 Q528.1 240.2 528.1 244.5 L528.15 255.15 Q549.05 239.95 562.85 233.25 583.5 223.3 590.8 210.95 593.6 206.25 594.95 200.3 L596.6 190.25 600.75 164.3 600.8 161.9 575.85 162.25 Q557.05 162.3 550.35 164.9 548.2 165.7 543.3 168.4 M456.25 89.9 Q436.95 97.85 417.5 109.75 408.8 115.05 406.25 114.05 404.95 113.2 404.0 112.85 L399.5 112.75 385.0 114.25 Q381.55 114.45 374.55 116.15 366.9 118.0 361.25 120.25 L353.9 122.9 Q349.95 124.05 344.0 125.0 L338.25 126.3 Q334.15 127.4 332.25 128.25 L326.75 130.5 281.55 130.75 276.0 144.45 274.7 148.2 274.65 148.35 Q272.05 161.1 271.5 166.25 271.05 169.9 271.2 180.95 271.3 190.25 270.0 195.5 L269.9 195.9 Q271.1 201.9 272.75 207.25 279.75 229.75 291.5 229.75 L322.65 229.7 337.5 228.7 Q344.7 227.45 367.25 218.5 L379.25 214.7 Q390.7 211.25 397.0 210.0 409.8 207.3 419.9 198.75 425.4 194.05 433.5 183.75 L448.85 164.5 Q455.05 156.65 457.45 152.45 460.25 147.45 461.2 141.85 462.0 136.95 462.0 127.1 462.0 112.0 459.0 101.0 457.5 95.95 456.95 93.6 L456.25 89.9 M385.3 39.4 Q375.5 48.75 369.3 53.4 L370.95 53.5 393.8 54.75 Q391.05 50.1 386.65 41.9 L385.3 39.4 M360.0 170.35 Q360.0 173.9 357.3 176.45 L346.75 184.5 346.5 185.0 Q350.7 183.95 353.2 185.95 355.0 187.35 355.0 188.85 355.0 191.8 346.25 194.3 336.7 197.0 323.0 197.0 309.7 197.0 305.05 189.55 302.0 184.65 302.0 173.75 302.0 159.2 311.05 152.25 318.9 146.25 331.0 147.4 342.35 148.45 350.95 154.85 360.0 161.65 360.0 170.35 M345.45 161.7 Q339.1 157.75 331.0 157.05 322.15 156.25 316.55 160.05 312.3 162.95 310.85 167.95 L315.5 168.25 Q320.05 168.9 323.4 170.4 327.0 172.05 327.0 173.85 327.0 176.25 325.25 177.25 323.9 178.0 321.0 178.0 313.9 178.0 309.75 177.0 L309.7 177.45 309.65 179.8 Q312.65 178.6 319.0 179.6 323.6 180.35 327.25 181.9 330.1 183.1 330.8 184.2 334.7 182.25 339.5 179.25 346.4 174.95 352.0 170.6 352.0 165.75 345.45 161.7 M441.4 288.2 L452.0 286.95 452.0 286.25 Q452.0 279.35 456.4 281.45 459.15 282.8 460.45 285.55 473.6 283.1 485.05 280.0 501.8 275.45 506.35 271.75 L506.5 271.65 Q507.95 267.8 508.0 263.0 508.0 258.35 510.25 249.45 512.7 239.9 513.0 234.5 511.9 225.9 511.75 219.75 L511.75 217.5 493.8 223.75 Q452.5 238.0 434.5 250.75 428.65 254.95 399.0 258.9 L360.0 263.5 Q353.55 264.45 332.75 271.1 314.25 277.0 307.0 277.0 302.45 277.0 301.3 274.85 301.0 274.3 301.0 272.35 301.0 269.95 303.65 267.55 L310.0 262.25 310.75 261.5 233.15 270.3 161.0 278.0 Q152.65 278.0 150.55 276.0 149.85 275.35 149.85 274.55 L150.0 273.75 Q150.0 270.5 166.0 261.25 L184.0 251.25 Q97.05 251.15 87.55 252.55 85.75 253.3 83.5 253.55 79.75 254.0 62.5 254.0 47.5 254.0 44.3 251.65 43.25 250.9 43.55 249.95 L44.0 249.0 Q44.0 247.35 44.65 246.0 L46.0 243.75 46.0 234.0 Q42.3 233.5 33.6 236.65 24.4 240.0 22.5 240.0 15.95 240.0 9.6 227.0 7.6 222.85 4.95 215.95 L1.25 206.5 -7.75 187.65 Q-8.65 185.5 -8.9 179.45 L-18.6 193.0 -35.45 215.1 Q-37.05 220.95 -38.2 227.3 -40.0 237.05 -40.0 244.1 -40.0 262.15 -7.0 267.7 L15.7 270.5 Q26.0 271.75 26.0 273.85 26.0 276.1 22.45 278.8 20.5 280.25 16.5 283.25 L15.5 283.75 58.25 278.7 Q98.0 274.0 119.0 274.0 132.05 274.0 134.8 276.35 136.2 277.55 135.0 279.0 135.0 282.4 132.0 284.0 L120.5 288.5 Q143.75 288.7 187.25 288.5 222.05 288.95 237.5 292.75 L255.6 297.3 Q257.15 297.95 256.05 299.7 L256.5 299.7 Q294.95 295.85 311.9 295.75 322.3 295.7 329.25 297.5 336.2 299.25 345.0 299.2 360.0 299.1 396.0 295.25 L428.7 291.1 Q434.35 289.25 441.4 288.2 M520.7 214.0 L520.05 214.3 520.3 216.0 520.5 217.25 520.7 214.0 M520.15 231.7 Q517.4 252.3 514.4 265.45 517.3 263.2 520.15 261.1 L520.1 244.5 520.15 231.7 M520.25 272.7 L512.35 277.25 510.85 278.3 Q509.3 282.55 507.75 285.0 510.35 286.0 512.85 284.3 516.05 282.1 520.7 282.0 520.4 277.95 520.25 272.7 M164.5 194.25 Q162.1 191.85 162.0 190.5 L161.9 187.0 162.0 183.35 Q162.0 168.4 176.4 159.5 189.15 151.6 208.0 151.0 226.5 150.45 239.65 157.15 254.0 164.5 254.0 177.25 L254.1 180.0 Q254.05 181.85 253.2 183.25 250.75 187.25 240.85 189.45 L241.0 191.0 Q241.0 193.8 236.25 195.25 227.2 198.0 201.0 198.0 L168.0 196.5 Q166.15 195.9 164.5 194.25 M169.25 184.85 Q168.8 186.2 170.05 187.0 173.8 189.5 194.85 189.5 213.85 189.5 221.75 186.6 L226.85 184.25 227.45 184.0 Q214.45 183.85 211.3 181.25 210.25 180.45 210.55 179.6 211.0 178.25 211.0 179.35 211.05 176.95 216.15 175.85 210.3 175.45 208.5 174.0 207.7 173.35 207.8 172.55 L208.0 171.75 Q208.0 171.25 213.45 169.25 219.45 167.05 225.5 165.55 232.85 163.75 237.1 163.75 L234.15 162.45 Q223.35 158.25 208.0 159.25 192.45 160.3 181.9 166.2 170.0 172.75 170.0 182.85 L169.25 184.85 M241.4 176.75 Q244.65 177.55 246.05 178.5 L246.05 178.2 246.0 176.0 Q246.0 171.45 242.95 168.05 242.45 171.15 238.0 173.25 235.15 174.6 231.1 175.3 236.9 175.7 241.4 176.75 M270.35 130.8 L232.0 131.0 130.75 129.5 121.1 128.65 Q118.75 128.3 118.0 127.75 L115.7 126.6 Q113.8 125.7 112.5 125.25 110.6 124.55 101.55 122.6 L91.5 120.5 Q83.15 118.65 70.45 116.4 L53.0 113.0 49.65 112.15 50.0 114.5 Q52.55 130.65 61.75 158.0 64.0 164.65 68.25 179.85 72.45 193.55 77.25 201.5 79.25 204.8 85.5 211.1 92.55 218.25 100.6 224.55 122.5 241.75 137.0 241.75 234.5 240.75 235.5 240.25 L236.6 240.1 239.75 239.5 Q240.9 239.3 242.6 238.25 244.2 237.25 245.0 236.25 L248.5 232.95 Q250.8 230.95 251.5 229.5 L254.5 222.3 257.0 215.25 Q258.4 210.45 260.15 201.15 L261.05 196.5 Q260.0 190.15 260.0 183.0 260.0 181.1 261.25 171.9 262.05 166.05 263.0 160.65 L263.4 153.65 Q264.75 137.5 269.45 133.4 L270.35 130.8 M107.5 295.3 Q106.0 294.55 106.0 291.0 106.0 288.15 107.4 286.5 109.55 283.95 115.5 282.25 L74.25 287.35 Q37.0 292.0 12.5 292.0 2.55 292.0 -0.2 289.65 -1.05 288.9 -1.1 287.95 L-1.0 287.0 Q-1.0 286.05 1.1 283.95 L6.5 278.75 7.5 278.25 Q-33.6 271.5 -42.85 264.3 -47.0 261.05 -47.8 256.0 -48.0 254.75 -48.0 245.1 -48.0 238.25 -47.1 231.7 -53.2 241.9 -62.65 259.7 L-68.85 271.45 Q-43.85 291.15 58.65 297.25 97.0 299.5 146.5 299.85 173.0 300.0 207.35 299.75 L216.35 299.75 Q161.85 297.65 120.8 296.9 109.85 296.45 107.5 295.3 M-59.15 96.2 L-64.75 97.5 Q-63.75 97.85 -63.15 100.05 L-62.0 103.0 -58.9 99.5 Q-56.7 96.7 -56.0 95.25 L-59.15 96.2" fill="#000000" fill-rule="evenodd" stroke="none"/>
  </g>
</svg>
