<?xml version="1.0" encoding="UTF-8" standalone="no"?>
<svg xmlns:xlink="http://www.w3.org/1999/xlink" height="358.25px" width="529.1px" xmlns="http://www.w3.org/2000/svg">
  <g transform="matrix(1.0, 0.0, 0.0, 1.0, -19.0, -88.6)">
    <path d="M535.5 163.5 Q529.2 156.5 509.35 156.5 487.45 156.5 461.8 183.25 L445.5 201.65 442.0 205.5 446.85 209.75 Q453.0 215.6 453.0 217.85 L452.8 221.1 454.0 221.0 Q456.7 221.0 464.55 223.75 475.3 226.5 492.35 226.5 513.7 226.5 528.0 199.25 535.15 185.6 538.0 171.75 538.0 166.3 535.5 163.5 M547.15 161.35 Q548.05 163.15 548.1 165.7 L548.0 171.35 Q548.0 174.2 545.55 183.1 542.15 195.25 536.8 205.5 520.3 237.0 492.5 237.0 465.85 237.0 454.75 232.5 451.85 231.35 450.25 230.0 448.8 233.0 446.7 236.0 439.1 246.7 425.5 250.75 392.7 260.4 344.8 266.25 L312.75 269.55 Q311.85 274.5 308.25 285.4 L301.0 306.75 301.0 311.6 Q321.65 307.35 335.1 352.25 339.75 367.75 342.65 386.45 345.0 401.45 345.0 408.6 L345.05 419.9 Q344.25 429.85 340.0 429.85 337.85 429.85 334.3 405.65 330.1 376.95 327.0 368.6 325.4 364.3 322.25 353.35 319.3 342.95 317.25 337.85 313.2 327.8 308.0 324.15 304.75 321.85 299.55 321.7 294.75 321.5 293.4 320.2 291.0 317.85 291.0 309.35 291.0 297.8 294.45 286.1 297.05 277.2 301.0 270.4 L253.0 272.0 229.9 271.75 Q230.6 273.25 231.0 275.5 231.0 278.0 231.5 283.75 L232.0 290.5 Q232.0 299.15 228.9 303.8 226.3 307.6 220.7 309.75 L209.2 313.1 Q201.5 315.35 196.25 318.6 186.05 324.95 180.3 333.65 175.2 341.4 175.0 348.6 174.7 357.85 174.75 385.15 174.0 407.85 169.0 407.85 164.95 407.85 164.05 396.15 L164.0 384.1 Q163.6 368.3 163.8 359.95 164.15 345.25 167.25 336.1 172.45 320.95 182.35 313.1 189.3 307.55 200.45 304.7 L208.75 302.75 Q213.2 301.65 215.65 300.55 222.0 297.6 222.0 290.35 222.0 289.1 221.0 282.7 220.0 276.25 220.0 275.0 220.0 273.25 221.25 271.5 181.1 270.2 147.6 265.5 133.85 263.55 120.4 260.85 L108.0 258.5 Q109.2 260.7 106.5 265.1 103.45 270.0 98.5 270.0 93.15 270.0 89.05 259.2 L88.15 255.95 Q54.6 254.45 34.0 227.0 26.85 217.6 22.35 206.35 19.0 198.15 19.0 195.5 19.0 185.35 21.8 174.45 25.45 160.45 32.25 153.5 37.9 147.7 52.05 149.35 63.95 150.8 79.7 157.1 93.55 162.65 104.35 169.4 L106.8 171.0 Q112.65 156.55 130.0 152.0 L130.8 151.8 129.65 148.5 125.0 132.25 120.5 117.9 Q117.0 106.65 117.0 105.25 117.0 102.75 118.35 101.4 119.6 100.15 121.5 100.35 126.1 100.8 128.0 107.25 129.5 111.5 132.25 121.5 L137.7 136.15 Q140.7 144.1 141.0 149.3 156.05 145.75 171.1 143.4 171.8 135.35 178.65 124.2 185.4 113.15 195.5 102.95 205.3 93.05 212.35 89.8 220.0 86.25 220.0 93.0 220.0 94.75 207.7 106.8 193.95 120.2 192.0 123.0 191.05 124.35 189.15 129.3 L185.5 138.75 184.3 141.55 Q205.5 138.95 226.75 138.7 L229.3 135.7 Q238.65 124.85 247.5 116.15 274.0 90.05 274.0 104.35 274.0 106.8 240.1 138.75 L259.95 139.75 Q295.3 142.45 329.05 151.55 330.85 148.25 335.8 141.0 344.45 128.35 346.0 124.75 L352.5 109.75 Q355.65 102.1 359.5 103.1 363.0 104.05 363.0 109.5 363.0 110.6 360.35 118.1 357.2 127.0 353.5 135.0 346.9 149.2 341.15 155.0 351.7 158.25 362.15 162.1 371.5 165.55 380.25 169.35 L384.95 157.9 Q391.55 142.15 393.25 136.25 394.1 133.05 396.65 126.8 L400.5 117.5 Q404.05 108.65 408.55 107.5 413.0 106.4 413.0 113.5 397.1 160.7 389.2 173.4 410.9 183.5 429.0 195.85 L433.4 198.95 Q437.8 192.45 450.05 180.1 459.75 170.35 471.0 160.0 L476.45 155.45 483.5 149.5 Q488.6 144.7 508.8 145.55 526.7 146.35 534.25 149.25 545.2 157.3 547.15 161.35 M331.0 165.0 L312.2 160.4 312.05 160.4 301.9 161.65 Q305.1 162.4 307.8 164.0 315.0 168.25 315.0 177.0 315.0 178.45 313.95 182.0 312.65 186.6 310.5 190.5 304.2 202.0 294.0 202.0 276.45 202.0 271.0 192.0 269.3 188.8 268.95 184.95 L269.0 181.5 Q269.0 173.25 276.2 167.5 278.1 166.0 280.25 164.85 L271.5 166.25 Q269.15 166.6 257.9 170.85 L247.0 175.0 Q241.6 175.0 239.8 173.45 238.15 171.25 235.85 170.0 232.25 168.05 223.4 166.85 225.35 168.9 227.05 171.95 230.8 178.65 232.0 187.0 232.0 192.7 230.25 195.25 226.4 201.0 214.0 201.0 195.2 201.0 188.8 193.75 186.75 191.45 186.15 188.6 186.0 187.75 186.0 185.85 186.0 184.85 187.5 181.75 189.25 178.05 191.7 174.65 197.05 167.4 203.0 165.35 194.1 165.0 183.0 165.0 153.9 165.0 151.05 164.7 148.95 164.5 148.6 163.85 148.5 162.8 148.0 162.0 L147.35 161.15 Q147.0 160.55 147.0 159.0 L146.55 157.5 Q140.8 159.2 135.5 161.25 123.3 170.3 117.0 181.2 111.9 189.95 109.75 201.85 L107.05 223.3 Q105.45 236.55 102.25 245.5 118.15 250.9 145.05 254.85 190.35 261.5 252.85 261.5 291.45 261.5 338.15 256.2 386.35 250.7 414.25 242.75 425.75 239.45 434.75 230.9 442.75 223.3 442.75 218.25 442.75 214.5 408.55 196.6 377.2 180.2 373.0 179.0 L352.9 172.1 Q338.45 167.0 331.0 165.0 M384.3 216.45 L365.55 217.0 Q355.05 217.4 350.5 219.25 L346.95 222.05 Q343.35 224.75 336.3 226.75 313.85 233.0 256.0 233.0 218.75 233.0 175.0 228.0 112.0 220.85 112.0 207.85 112.0 205.95 113.5 204.55 115.05 203.0 117.5 203.0 L132.7 207.75 Q148.65 212.65 153.0 213.5 L159.3 214.95 177.55 218.05 Q210.35 222.5 255.35 222.5 315.35 222.5 335.05 216.65 341.1 214.8 345.1 211.75 349.4 208.45 351.25 207.75 360.85 204.2 374.75 205.0 381.15 205.35 384.15 205.1 389.1 204.6 393.25 202.25 399.35 198.85 403.3 199.6 407.0 200.3 407.0 204.0 407.0 210.5 400.25 213.5 395.0 215.85 384.3 216.45 M398.25 329.85 Q399.25 330.85 400.5 330.85 402.6 330.85 409.35 325.95 415.6 321.45 418.5 318.35 423.4 313.1 437.0 312.5 444.7 312.15 460.0 312.85 472.6 312.85 479.05 323.45 482.3 328.8 483.0 334.35 L482.95 337.75 Q482.7 339.35 481.5 340.35 477.75 343.55 474.55 343.95 472.5 344.25 469.5 343.2 466.3 342.15 464.75 342.15 461.95 342.25 458.75 344.85 L452.8 351.0 Q447.6 355.85 443.5 355.85 439.65 355.85 433.5 351.5 426.95 346.9 425.0 346.6 426.0 354.85 426.0 372.85 L425.5 405.75 Q425.0 429.95 425.0 440.0 425.0 446.85 420.0 446.85 415.0 446.85 414.0 433.8 L414.0 420.5 416.0 372.5 415.4 359.2 414.0 339.85 Q413.05 339.65 411.85 338.8 410.85 338.1 409.5 338.1 400.1 338.1 395.5 351.2 392.1 360.9 390.9 380.0 390.25 390.45 389.5 408.75 388.4 421.85 385.0 421.85 380.95 421.85 380.05 413.5 L380.0 404.85 Q380.7 384.55 383.05 365.9 387.7 328.85 396.0 328.85 397.25 328.85 398.25 329.85 M452.5 336.4 Q462.55 329.35 470.5 331.35 468.0 327.65 466.65 324.4 466.0 322.75 465.3 322.8 460.0 324.85 445.5 324.85 430.05 324.1 426.95 324.65 424.7 325.0 423.95 326.65 423.25 328.15 423.25 332.1 423.25 332.4 432.95 338.15 442.7 343.85 443.25 343.85 443.5 343.85 446.2 341.45 449.7 338.35 452.5 336.4 M239.45 162.45 Q240.9 164.0 246.75 164.0 L259.55 158.8 Q268.1 155.65 275.75 153.7 253.7 150.55 231.4 149.55 L228.7 149.45 227.0 151.0 Q223.35 151.0 221.9 149.25 185.75 148.45 158.4 154.45 168.5 154.0 188.0 154.0 229.95 154.0 236.8 159.0 238.5 160.25 239.45 162.45 M215.4 175.5 Q207.25 170.5 197.5 184.5 L203.35 188.2 Q208.1 190.5 213.85 190.5 219.8 190.5 221.5 188.75 222.35 187.9 222.0 186.85 222.0 184.45 220.3 181.1 218.3 177.3 215.4 175.5 M217.45 179.2 Q219.0 180.6 219.0 183.0 219.0 184.6 218.05 186.0 216.7 188.0 214.0 188.0 210.75 188.0 209.55 185.25 L209.0 183.0 Q209.0 180.6 210.55 179.2 211.95 177.95 214.0 177.95 216.05 177.95 217.45 179.2 M279.0 181.1 Q279.0 183.25 285.0 187.5 290.95 191.75 293.75 191.75 298.15 191.75 302.05 184.0 303.95 180.2 305.0 176.85 305.0 173.65 300.95 172.8 297.4 172.1 292.0 173.3 286.85 174.4 283.05 176.6 279.0 178.9 279.0 181.1 M288.0 176.95 Q290.05 176.95 291.45 178.2 293.0 179.6 293.0 182.0 293.0 183.55 292.0 185.0 290.6 187.0 288.0 187.0 284.65 187.0 283.5 184.25 L283.0 182.0 Q283.0 179.6 284.55 178.2 285.95 176.95 288.0 176.95 M29.0 195.5 Q29.0 202.75 34.25 209.9 36.8 213.4 47.75 224.75 62.5 240.15 82.8 245.45 L87.2 246.55 90.5 241.55 Q95.4 233.5 97.5 224.5 98.7 219.5 99.95 211.95 L102.0 199.75 103.4 187.1 Q103.7 184.05 104.15 181.4 96.35 176.85 87.15 172.25 61.5 159.5 46.0 159.5 35.7 159.5 31.3 177.35 29.15 186.3 29.0 195.5" fill="#000000" fill-rule="evenodd" stroke="none"/>
  </g>
</svg>
