<?xml version="1.0" encoding="UTF-8" standalone="no"?>
<svg xmlns:xlink="http://www.w3.org/1999/xlink" height="492.7px" width="655.1px" xmlns="http://www.w3.org/2000/svg">
  <g transform="matrix(1.0, 0.0, 0.0, 1.0, 41.0, -30.3)">
    <path d="M505.85 89.5 Q511.35 86.55 515.45 86.0 520.4 85.3 528.9 87.0 536.55 88.55 553.85 93.5 569.85 94.9 580.9 98.8 590.5 102.15 594.1 106.5 602.75 116.9 608.7 137.75 614.1 156.7 614.1 171.75 614.1 184.25 606.8 198.3 L599.55 211.1 Q594.55 219.75 591.6 225.75 588.95 231.25 580.15 239.45 L565.1 252.75 Q563.6 254.1 552.55 256.25 537.5 259.2 531.1 261.0 518.2 264.65 509.35 266.1 L494.95 267.65 494.1 269.5 Q492.2 272.25 486.85 275.5 503.8 281.75 510.75 283.75 523.45 287.3 543.65 314.0 551.15 323.95 556.8 333.4 562.1 342.3 562.1 344.5 562.1 350.7 541.65 356.8 520.8 363.0 498.5 363.0 482.45 363.0 469.8 359.15 L464.95 368.45 Q442.85 410.9 437.0 426.25 433.65 435.0 429.9 452.7 428.55 458.95 423.65 484.7 420.05 503.6 417.85 511.65 414.7 523.0 412.0 523.0 L409.9 522.65 408.5 521.75 408.25 520.9 Q408.0 520.2 408.0 518.75 408.0 514.8 415.4 479.0 423.55 439.25 428.75 425.0 435.1 407.5 450.65 378.75 L462.6 356.55 460.25 355.5 Q454.6 352.8 451.0 349.7 448.0 347.1 448.0 345.75 448.0 344.55 448.75 343.5 449.8 342.0 452.0 342.0 455.3 342.0 457.9 344.0 L463.5 348.4 466.2 349.9 476.0 331.25 Q455.6 322.85 434.8 307.65 429.55 303.8 424.65 299.8 412.15 301.95 398.6 302.5 L381.2 303.45 Q373.15 313.85 364.7 327.6 L353.1 346.9 Q355.45 348.05 356.85 349.4 359.0 351.5 359.9 355.0 L361.5 361.25 Q365.8 372.25 372.7 407.9 379.0 440.4 379.0 445.25 L378.95 451.3 Q378.3 456.0 375.0 456.0 371.95 456.0 368.05 430.4 363.95 399.45 362.0 388.75 360.2 378.8 357.3 371.45 353.45 361.75 347.35 355.1 345.55 357.0 344.5 357.0 341.2 357.0 340.3 354.85 L340.0 352.7 337.95 352.5 322.9 351.9 Q302.15 350.5 299.0 338.75 298.1 335.6 298.0 329.75 L298.0 322.6 Q298.0 313.75 298.2 311.7 L298.55 309.2 Q258.1 311.0 205.85 311.0 L169.9 309.75 Q169.5 316.4 167.7 327.5 165.5 341.45 163.75 346.5 161.5 352.7 154.6 356.7 151.2 358.65 140.5 362.55 130.8 366.05 126.05 369.45 118.8 374.55 116.0 382.75 102.85 420.6 101.95 430.35 101.6 434.3 102.2 442.05 103.0 452.15 103.0 461.1 103.0 462.6 101.8 463.75 100.45 465.0 98.5 465.0 94.75 465.0 94.0 456.45 L94.0 447.6 Q94.0 429.45 100.1 405.6 106.05 382.35 114.75 365.5 116.2 362.7 121.15 360.8 123.9 359.75 131.75 357.9 147.7 354.05 152.75 348.5 156.2 344.65 157.3 338.3 158.85 329.35 159.25 328.25 160.95 323.45 161.55 318.15 161.95 314.5 162.0 308.7 L149.45 306.9 Q122.85 302.95 52.85 303.5 43.9 303.5 37.95 300.3 33.5 297.95 31.35 294.25 27.3 287.2 22.85 272.5 22.05 269.8 21.2 264.0 -16.85 263.8 -32.0 222.55 -41.0 198.0 -41.0 161.0 -41.0 145.5 -40.15 138.75 -38.3 123.75 -32.0 118.25 -18.4 106.4 0.5 101.9 16.65 98.05 34.05 100.05 49.5 101.8 60.35 107.3 67.85 111.05 70.1 114.95 L71.35 114.25 Q77.55 111.0 81.8 107.2 85.1 104.25 87.75 103.5 91.1 102.5 99.95 101.95 L97.3 95.55 90.0 76.75 Q87.6 71.8 73.7 58.45 60.05 45.35 60.0 47.0 60.0 42.1 67.5 45.05 74.9 47.95 84.0 56.25 94.15 65.55 100.5 76.5 108.0 89.45 108.0 101.55 119.05 101.1 144.85 100.5 L211.4 97.65 Q213.25 91.85 224.75 81.55 237.0 70.6 255.0 58.95 272.75 47.4 285.25 42.25 299.0 36.5 299.0 41.85 299.0 45.65 276.65 57.2 248.95 71.45 246.75 73.0 245.7 73.75 232.2 89.65 L225.15 97.6 Q238.4 97.65 250.9 98.15 L269.05 99.15 276.6 88.9 Q286.75 75.35 295.5 65.1 323.0 32.95 323.0 49.25 323.0 50.6 312.15 61.8 300.3 74.0 298.0 78.5 295.55 83.1 286.9 93.1 L280.45 100.0 Q306.55 102.2 331.6 106.55 342.4 108.4 354.8 111.05 355.35 108.85 356.35 105.95 L361.5 91.4 Q369.0 70.15 369.0 59.5 369.0 52.0 366.5 45.4 364.0 38.85 364.0 34.75 364.0 27.55 368.7 31.95 373.0 36.0 375.0 42.0 376.55 45.0 376.9 50.2 L377.0 59.25 Q374.65 75.7 371.05 91.5 367.9 105.5 365.0 113.25 380.0 116.65 397.15 121.0 L399.1 115.15 Q399.6 111.15 403.05 99.45 L408.0 82.25 409.8 74.1 Q411.0 68.55 411.0 65.75 413.45 56.1 417.2 53.4 421.0 50.7 421.0 58.85 L419.3 69.45 Q417.3 80.7 415.0 90.75 410.2 111.6 406.35 118.1 L405.3 123.1 449.05 134.5 449.0 131.85 Q449.0 124.8 460.2 115.35 468.95 107.95 480.5 102.0 L486.2 99.5 492.5 96.75 505.85 89.5 M527.85 101.5 Q494.35 101.5 480.55 108.5 476.1 110.75 473.05 114.15 470.5 117.5 469.25 118.5 466.85 120.35 460.05 129.6 L455.1 136.05 477.85 142.0 Q493.7 146.0 497.8 177.9 499.1 188.2 499.1 201.25 L498.85 215.5 Q498.85 227.65 498.0 242.8 497.5 251.25 496.85 257.1 L516.1 253.7 556.85 247.5 Q565.25 243.9 573.05 235.9 577.8 230.95 583.85 222.5 606.1 191.05 606.1 171.85 606.1 146.6 600.3 131.4 595.0 117.4 584.15 110.5 574.8 104.5 559.4 102.65 L527.85 101.5 M398.0 136.0 L395.9 135.65 394.5 134.75 394.25 133.7 Q394.0 132.8 394.0 131.35 373.8 126.8 358.9 122.85 L358.0 123.0 Q356.05 123.0 355.05 121.8 338.9 117.4 329.6 113.75 320.8 110.3 307.8 109.45 302.75 109.1 281.85 109.0 139.25 107.4 117.9 107.9 102.5 108.3 97.4 109.65 94.85 110.35 90.6 113.5 84.15 115.45 75.7 121.25 65.25 128.45 63.1 129.5 49.65 136.3 42.05 145.6 35.95 153.05 33.35 162.5 27.55 184.05 26.4 197.65 25.85 203.65 25.85 228.1 25.85 233.8 27.85 249.7 L29.05 258.8 Q30.0 259.4 30.0 259.85 30.0 261.25 29.55 262.15 30.1 266.25 30.6 269.0 31.35 273.4 33.6 279.25 35.05 283.1 37.85 289.25 38.15 289.95 41.2 291.55 L45.6 293.5 Q55.9 296.95 65.2 296.15 68.45 295.9 81.8 292.9 92.8 290.45 102.5 290.7 116.55 291.05 134.6 296.5 141.6 298.45 154.6 299.95 L164.95 301.0 Q166.9 297.3 168.25 298.25 169.2 298.95 169.65 301.35 L205.75 302.5 Q241.45 302.5 335.4 296.65 L378.3 293.75 Q384.2 285.7 387.75 281.5 394.75 273.35 400.15 272.7 402.1 272.45 404.25 273.3 409.8 269.55 413.5 268.0 L417.2 265.2 Q420.3 262.55 422.95 261.15 432.0 256.25 444.5 260.0 451.35 262.1 476.5 271.6 480.75 269.65 483.5 268.0 L483.0 268.0 Q479.6 268.0 478.5 266.0 478.0 265.15 478.0 263.75 478.0 261.6 489.0 258.85 489.7 252.8 490.2 240.75 490.85 225.9 490.85 214.85 L491.1 202.05 Q491.15 190.3 490.15 181.05 487.15 152.5 474.85 149.5 L401.85 133.15 Q400.1 136.0 398.0 136.0 M346.0 186.5 Q364.8 182.65 398.0 178.0 399.2 177.9 420.8 171.4 L443.0 165.0 Q445.9 165.0 447.25 166.8 448.0 167.85 448.0 168.85 448.0 170.75 436.4 175.5 422.8 181.05 403.0 186.0 379.85 191.8 354.7 195.2 L357.4 198.0 Q361.0 202.3 361.0 206.0 361.0 215.2 351.75 221.8 335.95 233.0 297.0 233.0 262.55 233.0 257.25 227.55 256.15 226.45 256.05 224.8 255.65 227.4 254.0 229.5 248.15 237.0 227.0 237.0 144.15 237.0 122.05 223.75 114.4 219.2 113.5 212.55 113.2 210.45 113.55 207.4 L114.0 203.1 Q114.0 193.05 119.3 186.5 122.7 182.25 127.8 179.9 120.9 177.95 112.3 175.2 86.0 166.85 86.0 162.75 86.0 154.35 108.7 162.1 125.65 167.85 136.0 174.0 157.55 178.75 198.25 185.35 237.8 191.75 244.5 191.75 L306.2 191.75 327.7 190.55 346.0 186.5 M446.0 222.0 Q448.45 222.0 449.45 223.6 452.0 225.35 453.8 228.2 456.0 231.65 456.0 235.25 456.0 237.05 455.25 238.3 454.25 240.0 452.0 240.0 450.95 240.0 448.65 236.8 447.7 239.45 446.15 241.4 441.1 247.6 424.25 255.25 421.85 256.3 416.65 261.05 411.4 265.85 405.25 268.65 384.6 278.0 331.5 278.0 272.8 278.0 244.2 274.8 L209.2 270.7 143.25 265.0 Q132.7 264.3 120.15 259.8 110.0 256.1 101.25 251.0 74.05 235.15 69.05 231.45 55.0 221.15 55.0 211.75 L55.0 211.65 Q52.1 213.0 49.0 213.0 L46.9 212.65 45.5 211.75 45.25 210.9 Q45.0 210.2 45.0 208.75 45.0 207.2 47.8 204.85 50.55 202.55 54.0 201.15 63.0 197.4 63.0 204.25 63.0 204.9 62.25 205.95 63.0 208.25 63.0 211.75 63.0 219.3 80.25 230.15 L111.0 247.0 Q116.3 249.85 131.7 254.35 147.15 258.9 152.0 259.0 L212.6 262.3 244.4 265.8 275.05 268.6 Q296.15 269.75 332.25 269.75 385.8 269.75 404.5 261.35 410.55 258.6 414.85 253.95 420.25 248.15 421.5 247.25 426.7 243.6 436.8 232.4 L442.25 226.3 442.0 226.0 Q442.0 222.7 444.2 222.1 L446.0 222.05 446.0 222.0 M406.45 283.5 Q402.55 286.0 400.0 286.0 L397.4 285.55 Q393.8 288.8 390.1 292.8 L413.95 290.65 406.45 283.5 M419.5 286.8 L422.8 289.7 Q443.25 287.35 446.35 285.25 451.25 282.0 467.5 275.4 L452.6 270.5 Q442.05 267.25 440.5 267.25 428.65 267.25 415.75 276.65 L412.25 279.3 419.5 286.8 M474.3 281.65 Q453.55 290.5 449.6 293.0 446.3 295.1 436.25 297.45 441.75 300.7 446.85 304.55 L458.25 313.75 Q463.65 318.1 475.85 322.1 480.65 323.7 482.4 324.7 485.0 326.25 485.0 328.35 485.0 329.55 473.3 352.35 482.95 354.75 498.25 354.75 521.65 354.75 535.95 349.75 540.25 348.25 545.35 345.6 550.65 342.9 552.35 342.25 L538.5 321.35 Q529.75 308.1 522.1 301.0 512.4 292.05 479.05 279.55 L474.3 281.65 M345.25 214.3 L336.5 215.0 Q322.1 215.0 310.0 211.05 300.0 207.75 300.0 205.75 300.0 199.75 323.5 204.05 332.1 205.6 339.65 207.8 347.0 210.0 347.0 210.85 347.0 213.6 345.25 214.3 M353.0 205.85 Q353.0 200.3 345.5 198.1 L341.5 196.8 Q311.8 200.0 279.5 200.0 268.95 200.0 257.6 199.45 L258.35 200.45 Q259.4 202.05 260.3 205.0 L261.85 210.25 Q264.15 216.85 270.1 220.05 278.45 224.5 296.0 224.5 331.05 224.5 345.25 216.0 353.0 211.35 353.0 205.85 M360.45 319.05 L370.85 304.15 362.3 304.8 326.3 307.6 308.0 308.7 307.95 310.3 306.9 316.05 Q306.0 319.7 306.0 321.25 306.0 322.95 304.3 327.0 302.8 330.65 303.25 332.5 304.65 338.55 327.0 341.0 337.25 342.15 344.2 343.85 349.25 335.4 360.45 319.05 M55.8 115.25 Q44.5 107.5 26.25 107.5 -20.4 107.5 -31.25 132.75 -34.7 140.75 -34.2 150.9 -33.95 156.05 -33.0 160.85 -33.0 179.0 -32.2 185.8 -31.0 196.2 -26.0 213.0 -24.6 217.7 -21.25 225.05 L-14.5 239.25 Q-11.5 245.5 9.7 252.2 L20.05 255.45 19.6 251.7 Q17.85 236.05 17.85 228.25 17.85 205.4 18.45 201.1 20.8 188.5 24.35 163.0 25.3 155.65 31.5 146.9 37.95 137.75 47.6 130.75 L59.1 122.25 61.95 120.25 Q57.75 116.6 55.8 115.25 M143.95 184.1 Q138.25 185.85 135.0 187.1 122.0 192.1 122.0 203.25 L121.8 207.3 Q121.7 209.8 122.2 211.55 123.65 216.55 131.25 219.75 151.8 228.5 226.5 228.5 244.05 228.5 247.75 224.0 249.65 221.75 248.0 219.25 248.0 215.5 242.5 207.85 237.0 200.2 237.0 199.75 237.0 198.8 237.35 198.1 L201.7 194.1 Q169.75 189.75 144.15 184.05 L143.95 184.1 M158.0 216.75 Q158.0 214.9 165.05 213.0 171.6 211.25 180.5 210.45 189.85 209.55 195.95 210.25 203.0 211.1 203.0 213.85 L202.9 215.05 Q202.5 215.85 200.5 216.4 194.9 218.0 175.75 218.5 173.95 218.5 169.3 219.75 L163.5 221.0 Q159.7 221.0 158.5 219.0 158.0 218.2 158.0 216.75 M252.75 207.75 Q255.05 213.6 256.0 219.75 L256.15 223.3 256.3 222.5 Q257.4 218.3 257.25 217.5 256.0 211.1 252.55 207.2 L252.75 207.75" fill="#000000" fill-rule="evenodd" stroke="none"/>
  </g>
</svg>
