<?xml version="1.0" encoding="UTF-8" standalone="no"?>
<svg xmlns:xlink="http://www.w3.org/1999/xlink" height="517.75px" width="814.15px" xmlns="http://www.w3.org/2000/svg">
  <g transform="matrix(1.0, 0.0, 0.0, 1.0, 118.05, 61.75)">
    <path d="M299.25 -56.65 Q295.9 -59.6 296.0 -61.75 L308.0 -61.75 308.35 -61.4 309.0 -61.0 314.5 -58.25 Q320.3 -55.55 323.0 -51.5 L327.5 -44.3 Q330.8 -38.95 332.75 -36.5 L339.9 -26.15 Q362.0 -36.4 362.0 -29.1 362.0 -22.45 347.25 -17.7 L345.9 -17.3 Q350.35 -10.85 353.5 -7.25 356.8 -3.5 359.9 1.5 L360.25 1.25 Q369.0 -4.5 369.0 1.0 369.0 2.9 363.85 8.55 366.75 14.1 369.45 20.8 377.0 39.35 377.0 51.25 L377.05 56.5 376.55 58.6 401.0 60.45 Q401.2 38.35 416.3 21.4 429.2 7.0 450.0 -1.05 468.4 -8.15 483.7 -7.3 499.0 -6.45 499.0 1.75 499.3 3.75 498.95 5.5 498.3 9.0 495.0 9.0 491.4 9.0 490.85 5.3 490.55 3.45 491.0 1.25 453.3 4.95 436.15 14.2 424.3 20.6 419.25 32.5 416.85 38.05 410.6 54.6 L407.45 62.9 407.6 63.0 Q410.05 64.25 416.3 65.3 L424.45 66.45 424.25 65.9 Q424.0 65.2 424.0 63.75 424.0 56.75 452.95 42.05 468.4 34.3 493.0 23.5 L509.75 15.65 Q520.85 10.7 527.6 9.25 535.4 7.6 540.3 5.9 544.6 4.4 546.15 4.15 550.55 3.4 588.1 4.0 596.5 6.65 605.9 8.5 611.1 9.85 611.1 12.85 611.1 15.45 609.4 16.3 607.9 17.0 603.6 17.0 L596.15 16.3 Q596.05 16.25 593.35 14.75 589.35 12.5 571.5 12.5 531.65 12.5 476.0 40.25 458.75 48.85 441.65 59.35 L429.6 67.05 Q451.4 69.4 495.85 72.0 521.85 77.7 536.9 88.35 547.55 95.85 553.6 106.75 565.6 128.4 569.7 147.2 572.8 161.45 572.85 184.35 577.5 182.6 582.55 180.2 594.1 174.75 596.85 173.9 603.9 171.65 609.65 173.8 616.4 176.3 624.1 185.5 626.9 188.85 628.7 193.25 L631.6 201.25 Q633.7 206.9 640.9 216.4 L653.1 232.0 676.55 263.15 Q696.1 289.8 696.1 293.5 696.1 295.5 629.65 326.65 551.75 363.2 527.6 376.75 506.55 388.55 482.85 404.95 L446.9 430.45 Q428.5 443.35 417.1 448.9 402.45 456.0 390.5 456.0 387.55 456.0 386.5 454.0 386.0 453.05 386.0 451.75 386.0 448.75 402.65 442.85 421.75 436.05 423.25 435.0 L436.9 425.2 Q445.15 419.2 451.75 414.75 482.7 393.85 516.6 374.25 572.45 342.1 686.6 293.25 680.45 282.45 669.7 267.0 L650.85 240.75 Q645.3 233.1 629.65 209.85 L615.6 189.25 Q596.8 189.25 572.6 195.1 571.5 213.45 566.3 227.6 556.6 253.9 533.35 264.25 509.1 276.3 495.65 281.4 472.8 290.0 443.35 292.25 425.65 293.65 421.15 294.75 418.95 295.95 417.0 296.6 412.3 298.1 378.55 300.35 L377.95 312.1 Q377.6 319.5 378.0 322.5 L378.0 357.35 378.0 392.25 Q377.35 426.0 374.0 426.0 370.65 426.0 370.0 391.75 L370.0 357.25 Q370.0 351.3 368.65 339.2 367.0 324.8 366.7 319.6 366.05 308.5 367.7 301.05 L333.85 303.0 Q329.35 303.2 325.2 305.25 L319.35 307.75 311.0 309.4 294.25 310.75 Q266.1 312.0 174.35 312.0 L106.95 312.05 106.3 330.3 Q105.4 354.8 104.05 375.25 99.75 440.0 93.0 440.0 90.1 440.0 89.25 437.85 89.0 437.15 89.0 435.35 89.0 429.1 92.7 418.6 96.25 408.35 96.0 400.5 95.75 393.75 95.85 383.65 L96.0 315.0 Q96.2 313.45 96.55 312.05 41.35 311.85 21.85 311.0 L18.25 310.3 12.85 309.0 Q8.95 308.3 3.9 306.75 L-3.25 304.25 Q-8.7 301.9 -12.7 298.45 -15.45 296.1 -19.25 291.5 L-30.25 278.35 Q-36.75 270.4 -39.75 265.5 -48.0 252.15 -55.0 244.15 L-63.15 235.95 Q-65.8 233.3 -66.4 229.65 -67.0 226.2 -67.0 214.1 -67.0 195.9 -64.3 184.6 -59.4 167.7 -55.0 149.25 -52.9 131.35 -45.3 117.4 -35.6 99.5 -15.5 84.75 L-17.2 83.55 Q-18.0 82.65 -18.0 81.0 -18.0 77.25 -4.1 72.75 -0.05 71.45 4.35 70.35 -6.0 61.75 -18.1 53.15 -45.95 33.25 -58.5 33.25 -88.0 33.25 -99.75 46.65 -102.7 49.95 -106.45 55.8 -109.7 60.0 -114.0 60.0 -116.85 60.0 -117.7 57.25 -118.15 55.95 -118.0 55.35 -118.0 52.35 -109.8 45.0 L-98.5 35.5 -93.05 30.35 Q-88.65 26.3 -87.5 25.75 -76.15 20.4 -62.85 21.9 -51.65 23.2 -39.75 29.25 -22.55 39.6 -10.9 47.65 11.3 62.95 12.0 68.65 19.85 67.05 28.85 66.0 44.5 64.1 60.25 64.25 51.9 57.3 50.5 56.75 42.95 53.75 34.3 48.0 29.9 45.05 22.75 39.5 17.25 35.3 8.85 31.45 L-8.0 23.5 Q-10.85 22.0 -17.45 19.55 -23.45 17.35 -25.0 17.0 -49.2 11.05 -60.9 11.25 L-64.7 11.4 Q-65.0 11.35 -65.0 9.75 -65.0 -2.15 -42.35 3.35 -23.4 7.95 7.5 23.55 34.45 37.1 57.35 52.05 69.6 60.05 75.25 64.85 L112.65 68.95 147.35 70.15 150.45 55.25 155.0 33.0 Q155.0 27.9 159.2 19.25 163.2 11.1 168.5 4.5 174.1 -2.45 177.8 -3.25 182.0 -4.2 182.0 3.85 182.0 4.25 175.55 11.1 168.4 18.6 166.25 23.0 164.5 26.6 163.55 32.2 162.45 38.5 161.5 41.0 160.6 43.45 159.7 50.05 L158.15 62.05 Q157.5 66.3 156.6 69.4 178.0 67.0 202.6 59.0 208.8 57.0 210.05 56.7 215.5 55.3 220.85 55.25 L243.9 55.6 243.5 55.0 Q243.0 54.05 243.0 52.75 243.0 47.7 263.65 27.0 281.5 9.1 286.75 5.5 310.7 -11.45 331.75 -22.2 327.4 -28.4 324.75 -33.25 320.4 -41.15 307.25 -50.65 300.85 -55.2 299.25 -56.65 M334.35 -13.8 Q326.8 -11.4 322.75 -9.0 312.2 -2.65 305.05 2.4 297.7 7.55 290.75 13.5 284.2 19.15 265.15 39.05 L248.95 55.7 313.05 56.85 Q313.45 51.75 321.75 40.4 329.7 29.55 341.0 18.05 347.7 11.2 353.15 6.65 L347.25 -1.75 337.25 -14.7 334.35 -13.8 M491.85 80.0 Q479.9 76.9 469.8 75.8 L451.9 74.9 Q425.15 74.3 398.35 69.5 L390.65 68.0 385.35 66.5 Q363.85 60.05 353.3 58.6 344.0 57.35 330.5 58.5 L319.8 59.45 Q317.75 62.0 317.0 62.0 L314.9 61.65 313.5 60.75 313.35 60.0 293.6 61.6 Q262.15 63.5 219.35 63.25 L210.55 65.0 Q205.9 65.85 201.35 68.5 146.15 101.15 130.55 106.0 123.0 108.3 119.85 106.2 117.65 104.75 116.1 99.2 114.05 91.9 112.15 88.7 108.45 82.35 100.95 78.55 92.75 74.4 79.35 72.95 L79.3 73.0 Q78.2 75.0 76.0 75.0 74.35 75.0 70.4 72.3 52.8 71.55 28.1 74.5 11.85 76.45 1.3 82.45 -2.65 84.7 -12.0 92.75 -23.0 102.2 -31.45 112.85 -40.25 124.0 -43.75 133.25 -45.45 138.0 -52.05 171.8 -59.0 207.35 -59.0 214.6 -59.0 224.75 -57.35 228.65 -56.2 231.35 -52.2 234.15 -46.9 237.9 -43.4 242.15 -37.15 249.75 -30.75 263.75 -28.65 268.2 -21.45 276.15 -12.65 285.85 -10.75 288.5 -8.4 291.8 -4.9 294.3 -0.55 297.35 4.85 298.5 14.05 300.3 53.8 301.6 119.85 303.75 253.35 303.75 265.7 303.75 335.3 295.9 L371.6 291.85 Q372.65 290.35 374.0 289.25 377.0 286.7 378.05 291.1 L446.1 283.5 Q475.7 280.45 495.9 271.75 L512.1 264.0 Q522.1 259.15 530.35 256.25 544.95 251.15 552.7 240.9 558.6 233.05 560.85 221.5 564.6 203.1 564.9 200.3 L564.9 197.05 Q546.45 201.95 525.15 210.05 519.55 212.2 485.5 225.95 464.85 234.3 455.75 236.5 441.65 239.9 421.7 248.85 403.75 256.9 393.75 263.5 349.35 293.0 349.0 293.0 346.55 293.0 345.55 291.0 345.0 289.95 345.0 288.75 345.0 281.05 389.55 257.1 400.1 251.45 410.45 246.35 389.75 253.3 374.35 259.65 L361.5 265.05 Q356.2 267.25 352.45 268.15 345.4 269.8 324.7 269.6 L249.0 269.0 Q181.65 269.0 109.4 269.55 68.25 269.55 54.75 266.5 L50.4 265.25 Q47.35 264.3 46.5 264.25 L41.5 262.95 35.5 261.25 Q21.35 257.85 13.25 249.75 1.75 238.15 0.3 235.45 -0.8 233.5 -0.95 231.0 L-1.0 224.6 -0.65 218.5 -7.0 228.0 Q-9.6 228.0 -10.55 226.0 -11.0 225.05 -11.0 223.75 -11.0 222.65 -4.3 210.55 3.1 197.3 10.5 185.65 32.0 151.8 32.0 165.6 32.0 166.45 22.85 181.2 L23.2 182.65 Q24.9 190.35 25.95 193.4 31.7 209.9 48.0 214.5 67.0 219.8 97.05 222.75 L139.5 227.25 157.95 229.8 173.5 232.25 185.0 234.0 188.1 234.75 191.0 235.5 Q195.0 236.1 261.6 236.5 330.95 236.5 358.55 230.25 363.85 229.05 372.7 225.95 378.25 224.0 383.5 224.0 387.75 224.0 387.75 229.0 387.95 229.2 388.2 229.2 L390.35 229.25 Q400.3 229.25 406.45 225.45 410.85 222.75 415.1 216.6 421.0 207.95 422.45 206.35 427.45 200.85 434.75 198.5 440.15 196.8 450.4 191.3 459.55 186.45 463.75 183.5 465.85 182.05 465.75 179.05 L465.8 178.45 454.0 163.75 Q454.0 156.5 460.9 161.25 466.65 165.25 476.0 176.65 480.9 182.55 485.35 188.7 L485.5 188.6 Q491.0 185.45 491.0 190.85 491.0 191.65 489.1 194.1 L491.15 197.15 Q498.0 207.6 498.0 210.0 L497.95 210.8 499.35 210.15 Q536.65 193.95 563.6 187.25 L564.85 186.95 564.85 185.1 Q564.85 162.65 562.15 149.55 558.6 132.65 547.85 112.75 541.9 101.55 533.55 95.95 521.25 87.65 491.85 80.0 M354.3 18.15 L339.0 32.0 Q336.15 34.8 326.8 49.3 L321.65 57.0 Q352.6 57.7 369.55 58.3 L372.3 58.4 371.8 55.75 Q370.55 48.2 368.8 41.8 364.9 27.55 357.9 14.7 L354.3 18.15 M379.0 130.75 L383.2 130.75 399.5 129.75 429.2 126.4 441.0 123.75 Q444.05 123.15 460.25 116.0 L476.0 109.0 Q479.35 109.0 480.0 112.85 480.0 117.95 475.8 121.05 468.05 126.8 444.8 131.0 L438.3 132.1 439.75 135.65 Q441.0 139.2 441.0 141.1 L441.05 160.45 Q440.5 171.85 437.0 179.0 435.8 181.4 427.35 187.05 416.95 194.0 414.5 196.25 413.25 197.35 410.75 201.0 408.35 204.5 407.75 206.0 L406.95 208.3 406.0 210.5 Q405.5 211.25 402.5 212.75 401.0 213.5 359.0 214.0 305.2 214.0 286.1 205.85 279.6 203.1 276.95 199.3 L274.5 194.25 Q273.55 192.65 272.75 183.65 L272.45 180.3 261.5 195.25 258.65 199.5 Q256.75 202.2 254.75 203.5 245.85 209.25 209.5 209.2 159.95 208.0 130.0 208.0 107.15 208.0 99.85 207.65 82.45 206.8 71.05 203.5 41.0 194.7 41.0 165.1 41.0 149.6 44.5 139.6 L46.9 132.15 47.7 127.65 Q29.0 120.5 29.0 111.0 29.0 102.2 42.85 110.65 L53.1 117.45 Q55.0 117.9 55.95 119.35 61.75 123.2 64.5 124.25 L92.3 127.35 104.0 129.25 125.5 131.5 128.05 132.15 131.5 133.25 189.05 134.15 247.5 134.75 255.75 133.9 264.0 133.0 Q295.0 132.35 318.1 134.05 L319.25 134.15 Q319.75 133.7 320.45 133.35 324.7 131.3 337.0 130.5 L376.5 132.0 379.0 130.75 M367.8 140.45 L356.55 139.6 332.3 140.7 324.7 141.0 323.85 141.0 283.15 142.15 283.0 143.5 Q283.0 150.45 281.5 156.0 280.0 161.55 280.0 172.75 280.0 175.9 280.85 182.2 281.85 189.7 283.0 191.5 286.25 196.7 300.45 201.55 312.9 205.75 319.5 205.75 398.75 205.5 399.25 204.75 L401.25 200.25 402.9 197.65 405.25 194.25 Q406.6 192.3 412.8 188.55 L422.0 183.0 Q428.9 178.4 431.0 172.0 432.35 167.9 432.0 160.5 431.8 156.4 432.35 149.25 L433.0 138.0 433.2 132.9 396.0 137.0 395.85 139.0 Q395.55 139.85 394.3 140.25 L380.0 141.0 367.8 140.45 M380.0 166.75 L380.05 160.65 Q380.3 157.0 381.75 154.75 L383.55 150.95 Q384.65 148.75 386.7 147.55 392.4 144.2 412.0 145.0 417.35 146.8 418.6 150.75 419.0 152.0 419.0 157.5 419.0 161.55 418.4 162.95 417.95 163.95 416.6 164.55 412.55 166.2 409.5 172.5 409.1 176.65 407.4 179.5 404.15 185.0 395.0 185.0 381.25 185.0 375.05 182.05 371.0 180.1 371.0 177.75 371.0 177.0 371.8 176.95 L373.95 177.0 Q377.6 176.8 380.0 172.75 L380.0 166.75 M474.0 188.8 L472.3 186.65 Q470.75 188.8 467.85 190.85 463.65 193.85 453.55 198.15 441.3 203.35 437.4 205.45 428.95 210.05 425.75 215.0 421.05 222.35 406.1 232.65 388.15 245.0 375.5 245.0 368.0 245.0 368.15 241.6 368.2 240.5 369.1 238.7 L370.25 236.25 Q357.45 235.95 354.7 237.2 354.0 237.5 353.0 238.6 L350.55 240.25 Q339.6 245.0 262.0 245.0 211.65 245.0 132.55 235.35 68.0 227.5 42.0 221.5 30.8 218.9 23.25 204.35 19.2 196.5 17.75 189.4 L16.6 191.25 Q17.0 192.05 17.0 192.85 17.0 194.35 15.45 197.5 L12.0 204.3 Q7.0 214.75 7.0 224.6 7.0 231.65 9.15 234.85 11.65 238.6 22.5 246.75 23.3 247.35 28.9 249.55 35.9 252.35 42.0 255.5 43.55 256.3 47.25 256.75 L53.25 257.5 Q71.4 261.6 88.9 262.75 104.6 263.8 134.45 263.35 L210.4 261.8 Q271.65 260.75 337.25 260.75 342.55 260.75 385.1 247.05 427.1 233.55 434.5 229.75 442.15 225.85 453.3 216.35 L471.6 199.85 478.2 194.05 474.0 188.8 M454.7 228.3 Q462.75 225.65 472.25 221.8 L493.1 212.9 483.4 200.65 468.0 216.75 Q461.7 223.35 454.7 228.3 M381.75 234.75 Q381.0 234.75 380.25 235.5 L380.25 235.75 Q382.0 235.25 384.0 233.25 L384.25 233.0 Q381.75 233.0 381.75 234.75 M272.35 142.35 Q235.2 143.0 191.5 143.0 160.05 143.0 134.4 141.6 139.0 146.35 139.0 154.35 139.0 156.5 137.4 160.45 135.5 165.0 132.5 169.0 124.3 180.0 113.0 180.0 96.7 180.0 93.25 171.75 92.15 169.15 92.45 165.85 L93.0 162.75 Q93.0 151.6 100.2 144.15 102.95 141.3 106.3 139.4 81.45 136.85 63.8 132.55 L56.1 130.5 Q55.1 135.1 53.0 141.65 49.0 154.2 49.0 164.75 49.0 193.2 84.0 199.0 95.4 200.9 111.25 200.4 L130.35 199.5 Q148.2 199.5 176.15 200.3 202.4 201.05 211.95 201.0 228.45 200.85 237.8 198.9 248.55 196.7 253.75 191.5 L256.8 188.0 260.0 183.25 Q262.5 179.4 264.8 174.6 266.9 170.2 268.0 166.75 269.35 162.25 271.7 146.35 L272.35 142.35 M118.25 144.5 Q114.25 144.35 113.0 144.5 112.15 144.65 111.5 145.25 L110.75 146.0 111.75 145.95 115.0 145.5 118.25 144.5" fill="#000000" fill-rule="evenodd" stroke="none"/>
  </g>
</svg>
