<?xml version="1.0" encoding="UTF-8" standalone="no"?>
<svg xmlns:xlink="http://www.w3.org/1999/xlink" height="505.25px" width="783.1px" xmlns="http://www.w3.org/2000/svg">
  <g transform="matrix(1.0, 0.0, 0.0, 1.0, 108.0, 2.15)">
    <path d="M672.85 179.25 Q675.1 191.3 675.1 200.1 675.1 213.6 667.75 224.05 658.7 236.9 638.35 245.5 621.25 252.7 606.35 258.0 L609.45 264.15 Q621.1 287.8 621.1 301.5 621.1 304.4 617.4 311.35 612.65 320.2 605.15 327.75 583.0 350.0 548.1 350.0 534.75 350.0 531.65 348.0 530.65 347.35 530.75 346.55 L531.1 345.75 Q531.1 345.45 543.9 343.15 560.25 340.2 572.1 336.6 613.1 324.1 613.1 301.75 613.1 297.05 609.2 284.85 605.05 271.9 598.9 260.6 582.65 266.0 569.15 268.95 555.2 272.0 539.6 273.2 541.1 280.15 542.05 286.8 544.1 300.5 544.1 314.35 544.1 328.7 513.4 364.85 497.35 383.75 474.0 408.5 464.8 419.45 433.1 465.3 407.6 502.1 404.0 502.1 L401.9 501.75 400.5 500.85 400.25 499.85 Q400.0 498.95 400.0 497.5 400.0 493.9 421.25 465.85 434.05 449.05 468.05 405.95 502.1 362.85 514.85 346.0 536.1 317.95 536.1 314.35 L533.0 296.65 Q529.95 280.1 530.1 275.75 L530.2 273.75 518.1 274.0 Q516.15 274.0 515.15 272.75 509.2 277.7 500.85 282.0 L495.95 284.3 491.85 286.0 Q490.4 286.25 488.2 287.25 486.4 288.05 485.85 288.5 L477.2 288.15 Q460.75 287.95 423.85 289.5 420.95 289.6 414.5 293.05 406.75 297.1 400.35 298.75 389.35 302.35 372.3 305.6 356.75 308.55 340.35 310.15 325.65 323.05 313.95 344.3 311.75 348.35 306.1 359.95 307.9 367.8 309.0 375.75 329.0 375.75 343.0 375.4 L354.5 375.0 Q375.75 375.0 384.0 399.3 388.15 411.45 388.0 423.85 L387.0 440.1 Q385.05 455.1 380.0 455.1 376.6 455.1 376.0 452.0 L376.0 448.6 Q376.0 446.75 378.0 439.15 380.0 431.55 380.0 424.1 380.0 404.5 375.65 394.7 371.8 386.0 363.75 383.5 357.85 381.6 346.0 382.55 L324.0 384.0 307.65 383.9 Q303.2 383.6 302.1 381.4 301.65 380.6 300.2 373.15 L298.95 367.65 Q297.45 366.95 297.05 365.1 L297.0 361.85 297.05 361.2 295.0 355.75 Q294.5 354.4 293.7 342.55 293.0 331.55 293.0 328.0 293.0 318.5 293.75 312.0 L258.7 310.25 208.75 308.5 Q163.6 308.5 155.0 310.25 L153.6 310.55 Q154.0 314.25 154.0 325.0 L153.8 337.15 Q153.3 351.0 152.05 362.5 148.0 399.0 137.5 399.0 132.75 399.0 125.5 394.65 118.2 390.25 116.75 390.25 89.4 390.25 83.75 446.7 83.05 453.35 81.55 485.45 80.7 503.1 78.0 503.1 74.7 503.1 74.05 489.15 L74.0 474.85 Q73.0 450.4 77.05 427.5 85.15 382.0 110.5 382.0 123.25 382.0 130.2 386.05 133.75 388.1 135.5 390.75 139.9 379.1 142.55 364.25 144.5 353.4 146.0 337.25 L146.0 311.7 130.35 312.0 Q114.65 312.0 69.4 306.4 20.0 300.25 9.85 295.5 3.3 292.45 -2.4 285.0 -8.4 276.05 -12.0 271.75 -15.9 267.05 -18.25 248.1 -20.0 233.95 -20.0 223.35 L-19.85 189.7 Q-19.35 183.8 -12.75 146.5 -10.6 134.15 -8.6 127.35 -5.5 116.9 -0.25 108.25 1.05 105.05 3.0 102.05 6.75 96.3 13.25 91.8 19.9 87.25 29.05 84.25 L25.15 81.4 Q17.1 75.35 9.95 71.25 -15.85 56.5 -44.6 56.5 -62.55 56.5 -75.9 69.8 -84.4 78.3 -89.0 89.5 -91.1 94.7 -91.2 105.3 -91.3 118.35 -92.0 122.5 -95.7 144.35 -97.1 154.4 -100.0 175.05 -100.0 187.75 -100.0 243.65 -53.0 265.9 -39.95 272.1 -20.7 276.3 L-10.05 278.7 Q-6.0 279.8 -6.0 280.85 -6.0 283.55 -7.7 284.25 L-16.5 285.0 Q-43.0 285.0 -68.65 264.95 -85.55 251.8 -95.0 237.25 -104.75 222.3 -106.95 210.8 -108.0 205.5 -108.0 187.35 -108.0 166.7 -104.5 146.05 -99.85 118.75 -98.0 93.25 -98.35 83.6 -85.1 70.6 -78.35 63.95 -58.0 48.25 -26.15 44.4 7.35 60.6 19.5 66.5 28.2 73.35 36.0 79.5 36.0 82.1 L36.0 82.2 Q52.9 78.0 76.85 78.0 80.4 78.0 81.3 79.65 L82.1 81.25 84.05 81.25 Q80.2 78.5 73.15 72.95 57.85 60.95 54.0 59.0 40.05 51.6 29.5 46.15 9.05 35.5 9.0 36.75 9.0 29.5 22.15 33.2 33.4 36.4 51.0 46.45 67.35 55.8 79.9 65.6 93.0 75.9 93.0 79.85 L92.85 81.2 Q114.1 80.85 151.1 79.5 L151.0 79.15 151.0 75.0 Q151.0 70.8 153.35 66.3 155.45 62.3 158.5 59.55 161.5 56.8 163.65 56.95 166.0 57.1 166.0 60.85 166.0 62.8 162.8 65.55 159.4 68.45 159.0 72.5 L159.4 78.25 159.3 79.25 Q195.45 78.0 220.85 79.0 L235.0 79.35 Q235.25 65.15 249.2 51.0 261.0 39.1 280.5 29.0 297.05 20.45 311.8 16.65 326.0 13.05 326.0 16.85 326.0 17.85 318.15 21.4 L299.9 29.4 Q271.35 42.15 263.25 50.5 256.65 57.35 247.75 72.45 L243.8 79.6 291.35 81.55 Q292.7 74.6 299.3 63.2 306.95 50.05 317.5 37.8 328.45 25.1 335.7 21.35 344.0 17.15 344.0 26.85 344.0 27.8 335.25 33.35 325.9 39.25 324.5 41.75 321.85 46.55 319.2 50.25 316.45 54.0 312.5 58.25 307.85 63.25 301.1 77.7 L299.25 82.0 316.05 83.0 355.85 86.0 372.4 87.25 372.0 82.4 372.0 71.5 Q372.0 44.25 358.0 23.5 355.75 20.15 348.4 11.05 344.0 5.6 344.0 3.25 344.0 -2.5 347.35 -2.15 350.45 -1.8 355.3 3.4 366.5 15.3 372.25 32.5 374.5 45.95 377.95 55.45 380.0 61.1 380.0 72.25 L380.05 82.75 379.3 87.8 407.35 90.0 Q406.35 87.65 405.95 83.35 L406.0 73.35 Q406.0 54.45 413.8 40.65 420.55 28.75 431.0 23.75 440.8 19.05 448.2 22.7 456.0 26.55 456.0 37.6 L456.3 40.6 Q456.4 42.65 455.75 44.0 453.8 48.0 444.0 48.0 437.3 48.0 435.5 46.0 435.0 45.45 435.0 43.75 435.0 42.55 441.5 40.6 448.0 38.65 448.0 36.5 448.0 35.0 447.6 32.7 L447.0 29.25 Q420.4 33.6 415.3 56.2 413.6 63.65 414.1 74.45 L415.0 89.1 414.65 90.65 434.4 92.55 439.85 93.35 Q442.35 86.9 452.35 78.45 465.05 67.7 485.65 57.1 506.7 46.25 528.65 39.4 552.5 31.9 571.1 31.25 589.75 25.4 608.7 33.75 625.0 40.95 639.15 57.35 651.7 71.9 658.6 88.65 665.25 104.9 663.1 114.25 661.6 129.1 668.05 157.4 L672.85 179.25 M655.1 118.75 Q655.5 107.8 652.9 97.55 650.0 86.05 643.85 78.25 L625.0 54.45 Q617.95 46.05 613.4 43.0 608.9 40.0 602.65 39.45 600.55 39.25 586.35 39.25 560.35 39.25 531.85 47.05 506.7 53.9 488.75 64.0 L471.65 74.0 Q460.0 81.25 456.75 85.0 L449.8 95.2 449.75 95.3 451.15 95.6 474.85 101.0 Q513.0 109.4 524.6 126.05 529.05 132.45 530.25 140.95 530.85 145.1 530.85 155.6 L530.55 188.35 530.4 203.05 Q544.15 203.05 555.55 207.25 570.85 212.85 589.1 230.25 595.7 239.25 601.65 249.55 L629.1 240.5 Q647.75 234.1 657.9 222.55 667.1 212.15 667.1 200.5 667.1 188.0 660.75 159.7 654.6 132.4 655.1 118.75 M514.75 128.85 Q499.95 114.6 447.85 104.25 L443.7 103.55 443.0 104.0 Q441.1 104.0 440.05 103.0 423.75 100.8 384.65 97.5 L301.85 91.0 295.35 90.5 295.0 91.0 Q293.35 91.0 292.4 90.3 191.75 82.85 144.0 85.45 L106.35 88.45 58.6 90.25 Q38.55 90.25 27.15 93.6 15.85 96.95 9.6 104.65 4.05 111.5 0.45 124.75 -1.5 131.85 -6.0 155.25 -10.85 180.85 -11.65 192.4 -12.0 197.2 -12.0 223.1 L-11.7 232.7 Q-11.55 241.35 -12.0 246.0 -12.55 251.65 -10.35 257.15 -8.15 262.55 -3.0 268.5 -0.2 271.8 4.85 279.55 10.25 286.45 18.6 290.0 26.15 293.15 48.55 294.5 72.15 295.85 75.85 297.0 L83.5 299.65 Q87.5 301.1 91.3 301.8 101.95 303.75 131.35 303.75 L150.6 303.15 155.8 301.9 Q162.65 300.0 208.35 300.0 L241.15 301.9 272.1 303.75 295.45 303.65 Q295.85 302.55 296.3 302.1 L282.0 302.0 Q218.6 302.0 164.85 291.1 119.35 281.85 84.0 265.55 54.65 252.0 37.1 236.1 29.2 228.95 25.45 223.15 L23.5 224.75 Q22.7 225.8 21.45 229.6 L19.05 236.75 Q15.65 246.0 12.0 246.0 9.1 246.0 8.25 243.85 8.0 243.15 8.0 241.35 8.0 233.0 14.4 223.35 17.65 218.45 22.0 213.95 L22.0 213.6 Q22.0 205.25 23.5 204.4 24.7 203.75 27.15 208.0 L27.55 208.75 28.5 207.95 Q36.5 201.4 42.6 199.4 49.0 197.3 49.0 201.85 49.0 204.75 37.1 214.0 L32.25 217.8 Q34.85 222.55 36.25 223.75 41.4 226.45 45.85 230.7 L53.15 238.35 Q62.7 248.0 78.25 252.75 80.05 253.3 89.15 260.0 101.5 267.9 119.0 273.9 175.85 293.5 282.35 293.5 310.2 293.5 332.2 286.85 348.85 281.85 364.1 272.25 372.25 267.15 384.55 258.3 364.85 263.0 330.0 263.0 285.6 263.0 266.0 252.55 261.6 250.2 258.85 247.5 245.55 269.0 214.0 269.0 171.1 269.0 162.2 268.8 145.3 268.4 137.25 266.5 130.45 264.85 120.65 259.55 101.75 249.25 94.0 245.5 82.8 240.05 76.9 230.05 72.0 221.7 72.0 212.85 72.0 206.6 76.05 198.95 79.65 192.2 85.0 186.75 87.25 184.45 89.25 183.0 82.0 179.8 75.75 176.8 62.0 170.25 62.0 168.75 62.0 160.85 75.65 166.65 82.7 169.6 91.5 174.75 100.45 179.2 114.0 181.5 142.5 186.5 166.65 186.0 180.45 185.7 206.15 182.45 231.15 179.3 247.7 179.1 274.2 178.85 306.5 184.25 307.2 184.35 310.15 185.6 312.85 186.75 314.25 186.75 L385.4 185.3 Q386.55 184.75 388.1 184.8 L390.3 185.15 409.5 184.25 417.8 183.2 428.0 182.0 Q429.1 181.75 434.0 179.3 438.7 177.0 439.0 177.0 441.2 177.0 442.3 178.8 443.0 179.9 443.0 180.85 L443.35 182.85 Q443.65 184.2 443.2 185.15 441.9 187.9 433.5 189.75 422.75 192.15 398.9 193.45 L401.6 196.75 Q404.8 200.8 405.75 202.75 406.9 205.0 408.05 214.65 409.0 223.05 409.0 227.1 409.0 229.4 410.15 236.6 410.35 243.65 405.5 248.5 L402.5 251.05 403.5 251.0 Q406.05 251.0 407.25 252.8 L407.35 252.95 408.25 252.25 Q409.5 251.25 416.85 247.95 425.2 244.2 433.65 241.0 445.6 236.5 453.05 235.0 L453.0 234.25 Q453.0 227.4 476.1 216.75 493.9 208.55 502.75 206.5 512.85 204.1 522.0 203.4 L522.25 186.5 522.85 155.85 Q522.85 145.5 522.15 142.05 520.65 134.5 514.75 128.85 M460.65 243.05 Q459.1 241.25 458.5 241.25 438.15 241.25 397.05 268.6 384.3 277.05 367.55 289.6 L351.65 301.5 Q365.65 300.35 374.25 298.7 382.85 297.05 388.8 294.2 396.6 290.45 398.1 290.0 413.35 285.05 426.3 284.0 432.8 283.45 446.8 283.95 L467.55 283.15 Q480.5 281.25 496.6 274.75 512.95 268.2 518.55 256.15 L519.55 253.7 516.7 252.55 Q509.15 249.55 508.0 249.5 485.6 247.35 472.3 248.85 468.8 249.25 467.6 248.85 466.25 248.4 462.75 245.5 L460.65 243.05 M464.25 235.65 Q474.9 244.7 481.65 247.0 486.9 248.85 492.7 247.15 502.85 244.15 504.25 243.95 511.7 242.95 521.35 245.3 521.9 240.65 521.85 235.0 L521.9 212.55 Q501.3 212.9 491.05 218.25 488.05 219.8 484.0 223.05 480.25 226.0 478.0 227.0 473.1 229.15 465.1 235.0 L464.25 235.65 M380.0 215.25 Q384.0 215.0 384.0 218.85 384.0 220.25 383.05 221.5 381.85 223.0 380.0 223.0 L377.9 222.65 376.5 221.75 376.25 220.9 Q376.0 220.2 376.0 218.75 376.0 215.5 380.0 215.25 M401.0 227.5 Q401.0 212.15 392.0 198.9 390.2 196.25 388.25 193.95 361.8 195.0 322.5 195.0 L315.05 194.25 308.0 193.0 Q307.0 192.65 284.65 192.55 L267.55 192.5 268.3 200.9 Q269.0 216.95 266.05 229.5 264.75 235.0 262.8 239.75 266.0 243.4 270.4 245.75 286.85 254.5 330.75 254.5 385.95 254.5 398.5 243.25 402.65 239.5 402.25 234.25 401.0 229.0 401.0 227.5 M385.5 268.85 Q368.9 277.05 364.5 279.5 L337.8 294.35 Q328.5 299.4 323.1 300.8 317.8 302.25 308.5 302.25 L297.9 302.1 298.65 303.6 336.2 302.45 Q346.75 295.05 369.15 279.95 L385.5 268.85 M529.85 240.0 Q529.8 244.3 529.25 248.15 531.85 249.7 533.35 251.95 534.6 253.85 536.1 259.25 L537.8 265.55 Q562.2 261.35 593.75 251.95 569.55 214.95 530.25 212.65 L529.85 240.0 M519.95 268.1 L530.15 266.75 530.0 265.3 Q529.3 260.0 526.8 257.4 L525.2 260.75 Q523.1 264.55 519.95 268.1 M257.7 192.45 L133.0 192.0 124.4 190.95 112.0 189.5 Q104.55 188.9 99.35 187.25 L97.0 186.45 89.0 195.05 Q80.0 205.65 80.0 213.85 80.0 219.55 87.5 227.95 94.45 235.75 101.75 239.5 103.1 240.2 113.3 246.5 122.25 252.05 124.25 252.75 L133.25 256.1 Q137.2 257.5 139.5 257.75 147.3 258.65 150.5 259.5 L182.05 260.1 214.75 260.5 Q238.6 260.5 249.25 248.1 257.35 238.6 258.3 220.75 258.65 214.85 258.25 206.15 L257.7 193.4 257.7 192.45 M110.05 214.5 Q108.85 216.0 107.0 216.0 L104.9 215.65 103.5 214.75 103.25 213.9 Q103.0 213.2 103.0 211.75 103.0 208.55 107.0 208.25 111.0 207.9 111.0 211.85 111.0 213.25 110.05 214.5 M300.3 312.0 Q301.0 318.65 301.0 328.5 301.0 337.65 302.35 344.65 305.3 338.65 310.0 331.45 318.35 318.5 325.35 311.3 313.3 312.0 300.85 312.0 L300.3 312.0" fill="#000000" fill-rule="evenodd" stroke="none"/>
  </g>
</svg>
