<?xml version="1.0" encoding="UTF-8" standalone="no"?>
<svg xmlns:xlink="http://www.w3.org/1999/xlink" height="636.75px" width="893.15px" xmlns="http://www.w3.org/2000/svg">
  <g transform="matrix(1.0, 0.0, 0.0, 1.0, 119.05, 151.75)">
    <path d="M8.55 -14.0 Q13.85 -14.05 23.3 -9.05 43.55 1.8 68.5 26.75 75.85 36.35 94.05 66.55 109.0 62.3 119.85 62.0 L207.5 59.5 Q209.35 52.05 218.65 29.05 229.65 1.85 233.25 -4.5 237.4 -11.7 240.2 -21.55 L244.75 -38.25 247.65 -46.45 Q249.7 -52.15 250.0 -54.75 250.5 -58.95 252.45 -62.9 254.3 -66.6 256.5 -68.4 258.85 -70.25 260.3 -68.9 262.0 -67.4 262.0 -62.1 262.0 -58.95 252.75 -33.4 244.0 -9.45 238.5 3.5 L222.55 42.7 215.6 59.25 304.95 56.05 310.3 48.8 Q319.75 35.95 328.25 23.0 L340.65 5.05 Q348.85 -6.7 353.0 -13.75 356.8 -20.25 361.15 -26.4 357.95 -33.7 355.25 -40.5 337.6 -84.95 303.75 -151.5 L312.5 -151.75 313.5 -150.25 315.25 -146.5 318.75 -139.75 325.5 -126.25 332.2 -112.3 338.75 -98.5 351.1 -71.05 Q358.65 -54.15 362.5 -43.75 364.15 -39.3 366.6 -33.9 380.25 -51.75 398.3 -66.9 409.75 -76.5 417.25 -79.75 425.0 -83.1 425.0 -78.1 425.0 -77.25 417.75 -70.95 L400.05 -55.25 Q382.8 -39.4 370.9 -24.8 380.5 -5.4 398.0 23.55 L400.15 27.15 Q416.2 12.25 421.25 6.75 425.95 1.6 431.5 -6.15 436.95 -13.65 439.75 -18.75 446.1 -30.35 451.95 -35.95 459.0 -42.75 459.0 -33.1 459.0 -30.65 445.15 -11.25 431.3 8.15 424.5 15.25 415.25 24.95 404.9 34.95 L415.5 52.35 418.2 56.9 Q444.0 60.95 470.05 68.15 474.65 62.1 486.4 53.15 504.3 39.45 529.05 26.05 554.65 12.15 571.7 7.3 591.1 1.8 591.1 10.85 591.1 12.1 586.15 13.4 L574.0 16.1 Q553.45 20.6 543.85 26.25 538.25 29.55 529.15 35.55 L515.35 44.25 Q506.7 49.3 488.0 64.7 L480.45 71.1 Q506.35 78.8 526.95 88.25 532.4 85.2 548.4 79.65 569.5 72.35 577.85 70.5 L585.95 68.05 Q590.85 66.3 593.95 65.65 604.6 63.4 623.85 66.0 637.6 68.0 665.8 70.2 671.9 70.65 673.85 71.5 676.1 72.4 676.1 74.85 L676.0 77.0 Q675.75 77.85 674.4 78.25 L658.6 79.0 Q644.05 79.0 632.85 76.15 621.7 73.25 602.6 73.25 595.3 73.25 563.2 84.15 L536.6 92.95 Q554.7 102.25 563.85 111.5 572.45 125.75 583.4 139.65 L598.9 159.1 Q606.1 168.7 609.15 177.05 612.85 187.15 612.85 200.75 612.85 208.5 611.8 212.5 610.6 217.05 607.1 220.9 603.95 224.35 596.4 229.75 594.9 230.8 593.5 231.8 L595.7 239.45 601.95 237.15 Q624.8 228.75 636.1 224.0 638.75 222.9 644.9 220.7 L654.1 217.25 Q666.1 212.25 678.45 211.6 687.05 211.1 700.3 212.9 L722.55 215.45 Q735.85 216.15 748.1 213.5 765.9 209.65 771.15 211.35 773.2 212.05 773.8 213.75 774.1 214.6 774.1 217.1 774.1 229.5 770.6 255.0 767.1 280.5 767.1 294.75 L767.1 371.75 759.1 371.5 759.1 260.5 Q763.55 235.5 765.85 219.5 L765.85 219.25 Q738.7 221.3 723.15 219.15 718.25 218.45 705.85 214.8 698.95 212.75 690.15 214.5 678.95 216.7 652.35 226.5 647.7 228.15 636.95 232.8 L623.35 238.5 Q611.55 243.1 597.9 247.7 L605.45 278.35 Q614.1 314.65 614.1 318.1 614.1 319.55 612.85 320.75 611.6 322.0 610.1 322.0 606.65 322.0 603.5 312.8 601.05 305.7 597.85 289.9 L592.05 260.25 589.9 250.35 581.3 253.05 Q579.1 261.6 574.3 269.15 565.1 283.75 541.35 302.5 518.9 320.5 495.7 334.15 472.55 347.75 452.5 354.7 L455.85 359.85 Q464.7 374.05 467.5 384.5 469.65 392.5 481.85 432.1 493.0 470.1 493.0 480.85 493.0 482.3 492.0 483.55 490.8 485.0 489.0 485.0 483.85 485.0 475.15 448.85 465.5 405.4 461.25 390.75 457.8 378.95 451.2 366.85 448.45 361.8 445.35 357.05 428.5 362.0 414.0 362.0 402.55 362.0 385.35 356.55 380.0 354.9 352.05 344.65 329.9 336.5 314.5 332.7 292.5 327.25 273.0 327.25 L147.0 327.5 Q147.0 329.4 148.15 336.5 149.1 343.95 148.05 349.05 144.75 365.0 122.0 365.0 109.65 365.0 92.35 359.7 L84.75 384.25 Q83.4 390.55 80.1 402.6 76.2 416.7 75.0 421.75 73.5 427.95 70.0 445.0 66.7 459.0 64.0 459.0 L61.9 458.65 60.5 457.75 60.25 456.7 Q60.0 455.8 60.0 454.35 60.0 440.25 67.45 414.9 L73.45 394.95 Q76.7 383.8 78.0 376.75 79.0 371.3 83.95 357.65 L84.2 357.0 Q61.6 348.05 54.5 345.75 32.4 338.6 23.55 328.25 20.3 324.5 18.1 319.45 L15.0 311.25 Q14.05 312.3 13.55 313.4 L7.0 314.0 Q-2.15 314.0 -12.7 303.1 -34.55 299.75 -46.55 294.75 -53.8 291.7 -59.5 287.2 L-68.75 279.0 Q-83.25 265.95 -94.0 249.95 -101.55 258.25 -106.0 264.75 -109.8 270.4 -111.6 287.3 L-112.85 297.65 Q-113.6 302.0 -115.0 302.0 -118.45 302.0 -119.05 295.5 L-119.0 288.75 Q-119.0 276.4 -116.95 269.35 -114.95 262.5 -109.6 255.9 -106.9 252.5 -98.1 243.6 -110.0 224.0 -110.0 210.25 -110.0 206.75 -107.2 187.45 L-104.0 166.75 Q-101.6 155.75 -96.15 139.25 -91.5 125.05 -91.5 124.0 -91.5 122.75 -92.75 122.15 -94.0 121.5 -94.0 120.25 -94.0 117.25 -67.0 94.0 -64.15 94.0 -62.8 95.8 -62.0 96.9 -62.0 97.85 -62.0 100.0 -64.15 101.4 L-69.0 104.5 -70.0 105.75 Q-63.8 103.85 -43.55 96.8 -33.05 93.15 -21.9 89.8 -21.65 88.4 -20.5 87.75 -19.15 87.0 -16.0 87.0 L-13.95 87.45 -10.1 86.35 Q-108.0 29.0 -108.0 25.25 -108.0 16.75 -85.85 29.85 -78.95 33.9 -56.75 49.25 L-25.45 69.15 Q-5.0 82.05 -5.0 82.25 -5.0 83.9 -5.7 85.15 12.85 80.3 29.85 78.3 L64.35 74.0 Q71.45 72.75 84.85 69.1 81.5 64.6 76.75 56.05 65.05 34.95 62.5 32.25 46.3 15.05 23.05 1.7 11.4 -5.0 3.0 -8.25 3.0 -13.95 8.55 -14.0 M357.75 -6.5 Q340.35 21.85 331.65 34.9 323.1 47.75 317.55 54.75 L320.0 54.35 346.85 52.5 Q359.2 51.7 373.05 52.25 378.5 47.0 389.7 36.75 L392.05 34.65 388.65 28.6 Q374.95 3.85 365.2 -17.45 361.05 -11.85 357.75 -6.5 M554.55 135.1 Q556.85 136.1 560.7 142.2 564.2 147.8 567.5 154.7 572.65 150.35 575.05 149.95 578.1 149.4 578.1 154.75 L577.55 181.2 583.7 200.7 590.65 222.65 592.45 220.85 Q604.85 208.1 604.85 201.1 604.85 189.2 599.25 179.25 597.35 175.9 592.3 168.4 L582.6 153.5 Q579.95 149.2 575.8 140.8 571.75 132.6 569.25 128.7 560.8 115.25 545.1 107.25 507.55 87.95 503.65 86.15 494.3 81.85 485.0 78.45 L485.0 78.85 Q485.0 80.15 482.75 81.85 L484.5 86.25 Q485.3 88.7 486.3 94.2 487.25 99.4 488.25 102.0 489.8 106.0 490.5 117.0 491.0 124.6 491.0 133.1 491.0 148.75 489.45 156.15 485.7 174.4 472.55 188.25 433.75 229.0 318.5 229.0 286.35 229.0 276.75 230.15 277.1 229.1 274.25 227.0 L271.0 224.75 267.25 221.0 264.8 217.75 Q263.8 227.85 262.45 234.55 260.0 246.8 255.5 252.9 251.75 258.0 245.5 260.35 257.35 260.0 270.0 260.0 298.9 260.0 305.25 261.8 308.5 262.7 306.0 263.85 306.0 267.1 301.75 268.25 L300.75 268.75 Q337.15 256.75 383.45 237.35 409.55 226.45 460.25 204.75 468.95 201.2 499.15 187.8 523.4 177.1 536.1 172.5 547.3 168.4 554.2 164.55 L559.5 161.25 Q552.1 141.4 552.1 139.25 552.1 134.0 554.55 135.1 M562.2 168.45 Q490.7 203.9 401.7 240.8 290.5 287.0 263.0 287.0 252.95 287.0 250.5 285.0 249.7 284.35 249.8 283.55 L250.0 282.75 Q250.0 280.3 252.45 278.85 254.35 277.7 259.3 276.4 275.95 272.0 283.75 268.5 L234.75 268.25 175.2 276.85 Q119.5 285.0 110.5 285.0 L96.75 285.45 Q90.65 285.6 88.0 284.5 84.7 283.15 83.35 278.8 82.0 274.45 82.0 265.0 81.85 256.15 82.0 253.35 82.2 249.25 83.6 246.25 84.9 243.45 89.2 237.65 L91.65 234.4 Q88.4 233.1 85.65 231.8 75.45 227.05 68.6 221.3 L1.7 220.75 Q-5.3 220.4 -6.85 219.25 -8.0 217.4 -10.0 215.75 -11.4 214.6 -12.75 211.9 -14.0 209.4 -14.0 208.25 -13.75 205.5 -13.85 200.0 L-14.0 193.25 Q-14.6 183.75 -13.75 176.05 -12.05 161.0 -4.5 161.0 -1.95 161.0 -0.75 162.8 0.0 163.9 0.0 164.85 L-3.0 178.15 Q-6.0 191.5 -6.0 193.0 L-6.35 199.4 Q-6.6 204.55 -6.0 207.25 L-6.1 209.55 Q-6.15 210.45 -4.8 210.8 L19.0 212.5 Q28.55 212.95 44.3 208.55 L57.15 204.95 Q54.0 195.7 53.15 180.95 52.65 172.7 52.75 160.95 L53.0 143.6 Q53.0 118.4 53.65 109.75 L53.65 109.65 Q19.5 105.05 4.5 102.35 -9.9 99.75 -16.5 96.55 -23.65 98.5 -30.45 100.7 -41.2 104.15 -53.95 109.15 L-74.25 117.25 Q-91.75 124.0 -102.0 210.35 -102.0 223.05 -93.3 238.8 -81.25 226.6 -71.75 216.0 L-61.3 204.9 Q-65.0 192.0 -65.0 187.1 -65.0 182.85 -64.7 180.8 -64.2 176.75 -62.5 174.75 -59.0 170.6 -56.65 170.1 -55.15 169.75 -52.95 171.15 -50.35 172.75 -48.65 172.9 -45.5 173.2 -41.0 170.5 -39.5 169.6 -37.55 168.9 -35.2 168.0 -33.5 168.0 -31.05 168.0 -29.8 169.8 -29.0 170.95 -29.0 171.85 L-29.2 172.7 -25.95 168.65 -15.75 156.15 Q-4.0 142.6 -4.0 151.85 -4.0 160.25 -37.4 194.1 L-52.05 208.65 Q-42.7 236.35 -29.45 262.95 -19.9 282.15 -11.7 292.7 7.15 297.2 27.85 299.5 L65.65 302.35 102.35 304.75 208.15 311.65 Q223.45 312.75 246.1 312.75 301.65 312.75 344.75 305.9 367.9 302.25 385.05 297.05 385.4 289.75 394.2 294.05 408.65 288.95 415.35 287.3 425.35 284.85 448.35 281.5 479.3 277.05 491.9 274.15 L506.35 270.75 Q513.95 269.45 521.15 265.25 L524.2 263.35 519.0 263.6 Q501.45 264.35 474.3 262.45 L430.1 260.15 Q404.1 259.95 379.5 264.25 375.95 264.85 359.1 273.15 343.1 281.0 338.5 281.0 335.55 281.0 334.5 279.0 334.0 278.05 334.0 276.75 334.0 273.7 355.8 265.1 373.9 257.95 381.5 256.0 404.25 249.85 430.2 249.5 445.55 249.3 476.1 251.8 L522.55 254.0 537.8 253.25 Q543.6 248.95 547.6 246.5 554.15 242.6 561.25 239.95 L561.1 238.25 Q561.1 234.15 562.35 230.6 L565.1 224.35 Q569.1 215.65 569.1 204.1 L568.45 184.95 565.35 176.8 562.2 168.45 M436.65 90.15 Q448.65 87.65 454.0 86.0 457.2 85.05 468.75 78.4 467.95 77.9 467.5 77.0 467.0 76.0 467.0 74.75 467.0 73.8 467.4 72.7 461.95 71.15 456.5 69.9 441.0 66.3 422.25 64.35 L423.0 66.5 Q423.0 68.25 422.05 69.55 420.9 71.0 419.0 71.0 416.05 71.0 410.1 63.3 360.0 59.65 288.85 66.5 247.9 66.0 211.8 67.15 L211.0 68.0 Q209.45 68.0 208.5 67.25 L145.55 70.85 Q106.5 74.2 90.35 78.0 84.75 79.35 63.05 82.4 L38.35 85.75 Q19.15 88.35 1.95 92.1 16.15 96.25 23.0 97.0 42.55 99.25 49.95 99.15 L55.15 99.8 Q56.55 95.7 58.75 100.45 L69.5 102.5 102.5 109.5 120.25 113.5 133.0 115.0 285.5 116.75 Q300.55 116.75 355.25 106.4 L408.5 95.75 436.65 90.15 M462.1 90.65 Q438.35 98.55 402.0 106.0 332.45 120.3 265.7 123.85 266.45 124.45 266.8 125.55 267.2 126.85 267.0 128.35 L266.0 135.65 Q266.7 136.1 267.2 137.05 268.0 138.4 268.0 139.25 268.0 167.2 266.0 202.25 L265.85 204.6 Q270.5 220.75 280.25 220.75 326.2 220.75 345.0 219.8 384.3 217.85 411.0 211.0 483.0 192.4 483.0 133.25 483.0 118.65 479.5 102.95 476.35 88.75 476.05 85.45 470.65 87.8 462.1 90.65 M404.2 54.9 L396.7 42.75 385.3 53.0 404.2 54.9 M335.8 194.05 Q327.85 203.0 312.5 203.0 292.45 203.0 285.75 190.3 283.65 186.3 283.1 181.4 L283.0 177.1 Q283.0 163.4 292.05 156.2 300.25 149.75 312.0 150.85 323.8 152.0 331.95 160.15 341.0 169.15 341.0 183.1 341.0 188.15 335.8 194.05 M329.1 185.35 L330.25 187.75 332.4 184.7 333.0 183.1 Q333.0 173.45 326.45 166.9 320.55 161.05 312.0 159.8 303.5 158.55 297.55 162.65 291.0 167.1 291.0 176.25 291.0 180.05 293.0 183.75 296.65 190.5 305.25 190.5 318.35 190.5 321.4 187.25 L322.95 185.0 Q323.85 184.0 326.0 184.0 328.4 184.0 329.1 185.35 M425.7 295.05 Q412.4 298.5 404.5 300.8 420.3 313.0 439.25 335.75 L447.6 347.55 Q463.85 341.9 483.0 331.3 499.95 321.95 529.85 301.0 548.65 287.85 560.35 273.95 568.3 264.5 572.1 255.75 L571.1 256.0 Q555.35 259.95 539.65 261.9 L529.9 269.7 Q522.15 275.0 513.35 277.25 508.35 278.55 505.2 280.4 501.5 282.5 499.75 283.1 491.05 286.05 453.85 288.5 450.2 288.7 425.7 295.05 M392.3 304.9 Q378.9 309.75 348.45 314.25 311.9 319.6 269.0 320.75 290.5 322.05 307.6 324.45 336.85 328.5 356.75 336.4 362.6 338.7 370.95 342.75 379.4 346.85 383.0 348.3 396.55 353.75 415.0 353.75 426.5 353.75 440.3 349.85 L435.25 343.5 Q414.7 319.35 396.75 307.65 L392.3 304.9 M576.55 213.95 Q575.8 222.3 574.6 224.5 580.9 220.95 582.6 228.7 L582.8 229.55 584.15 228.45 Q581.8 221.05 577.0 207.9 L576.55 213.95 M575.1 245.5 L575.1 244.4 Q571.35 246.5 564.55 249.25 L572.85 247.25 574.9 246.65 575.1 245.5 M583.1 239.0 L582.85 244.05 588.0 242.25 586.55 236.65 Q584.75 237.85 583.1 239.0 M203.0 187.85 Q202.7 183.35 202.75 180.2 202.9 174.45 204.95 170.3 211.0 158.1 234.0 158.5 246.15 157.4 253.75 160.15 253.5 152.3 254.05 144.55 255.2 127.9 259.95 124.15 240.85 125.0 222.0 125.0 132.0 123.5 124.5 122.75 L114.0 121.0 Q112.0 120.65 105.4 118.75 L99.0 117.0 76.8 113.5 60.95 110.85 60.65 134.9 Q60.4 151.75 61.0 163.0 61.2 166.7 60.65 177.2 60.15 186.15 60.9 191.45 61.75 197.45 64.6 202.8 L70.55 201.1 Q85.15 197.7 94.1 199.95 105.35 202.8 111.25 215.0 L111.75 215.85 112.0 218.0 Q112.0 220.4 105.05 231.05 120.75 237.05 143.3 243.15 186.15 254.75 206.5 254.75 L234.5 254.6 Q245.0 253.8 249.3 249.35 253.85 244.65 255.6 231.85 256.65 224.0 257.7 202.5 L256.45 199.35 Q247.7 207.0 232.5 207.0 L217.65 206.2 204.0 204.75 Q203.0 203.75 203.0 202.5 202.9 201.6 202.95 199.9 L203.0 197.25 203.0 187.85 M211.0 197.5 L227.0 197.5 Q232.35 196.2 235.9 194.35 238.45 193.0 240.0 193.0 241.25 193.0 242.25 194.15 243.25 195.25 244.5 195.25 251.05 195.25 254.7 189.6 254.35 186.05 254.15 182.1 L254.0 170.55 Q252.5 169.1 250.45 168.1 238.1 162.1 211.0 175.0 L211.0 197.5 M237.9 188.65 L236.5 187.75 236.25 186.9 Q236.0 186.2 236.0 184.75 236.0 180.7 240.0 180.95 244.0 181.2 244.0 184.85 244.0 186.2 243.0 187.5 241.8 189.0 240.0 189.0 L237.9 188.65 M298.9 182.65 L297.5 181.75 297.25 180.9 Q297.0 180.2 297.0 178.75 297.0 174.7 301.0 174.95 305.0 175.2 305.0 178.85 305.0 180.25 304.05 181.5 302.85 183.0 301.0 183.0 L298.9 182.65 M84.0 221.4 Q89.4 224.5 96.7 227.65 L101.25 221.5 84.0 221.4 M100.55 237.7 Q90.2 252.8 90.0 253.25 L90.0 276.5 131.25 276.75 140.25 274.15 Q151.4 270.9 164.5 268.4 184.4 264.6 208.05 262.5 183.0 260.9 155.6 254.15 144.4 251.35 132.1 247.55 L119.25 243.5 Q108.8 240.55 100.55 237.7 M22.75 307.9 L26.75 318.5 Q29.8 323.0 35.55 327.25 42.95 332.65 53.5 336.5 L86.05 348.05 87.0 348.4 Q88.65 342.55 89.0 338.5 93.15 326.0 95.0 319.0 L95.7 314.0 95.95 312.35 22.35 306.95 22.75 307.9 M6.45 305.5 L3.55 305.2 6.0 305.5 6.45 305.5 M139.1 328.85 L138.0 323.5 Q138.0 321.85 138.2 321.35 L138.75 320.5 139.25 320.05 140.5 319.25 199.85 319.05 134.35 314.95 104.7 312.95 Q103.25 323.45 95.1 350.65 L95.0 351.1 Q111.75 356.75 114.0 356.75 135.65 356.75 139.0 340.25 140.0 335.1 139.1 328.85 M283.5 277.5 L282.25 278.0 Q287.75 276.15 289.5 275.0 288.9 275.0 283.5 277.5 M-57.0 193.0 L-55.2 198.85 -53.3 196.95 -35.0 179.25 -31.4 175.3 Q-33.35 177.05 -36.25 178.55 -45.25 183.2 -57.0 182.0 L-57.0 193.0 M-71.75 227.25 L-88.95 244.5 -89.55 245.15 Q-77.85 263.55 -61.25 274.5 -51.75 280.85 -30.55 287.5 L-23.55 289.6 -23.75 289.3 Q-33.15 275.7 -45.5 250.5 -48.7 243.95 -56.3 221.0 L-58.3 214.7 -71.75 227.25" fill="#000000" fill-rule="evenodd" stroke="none"/>
  </g>
</svg>
