<?xml version="1.0" encoding="UTF-8" standalone="no"?>
<svg xmlns:xlink="http://www.w3.org/1999/xlink" height="636.75px" width="929.1px" xmlns="http://www.w3.org/2000/svg">
  <g transform="matrix(1.0, 0.0, 0.0, 1.0, 155.0, 151.75)">
    <path d="M8.55 -14.0 Q13.85 -14.05 23.3 -9.05 43.55 1.8 68.5 26.75 75.85 36.35 94.05 66.55 109.0 62.3 119.85 62.0 L207.5 59.5 Q209.35 52.05 218.65 29.05 229.65 1.85 233.25 -4.5 237.4 -11.7 240.2 -21.55 L244.75 -38.25 247.65 -46.45 Q249.7 -52.15 250.0 -54.75 250.5 -58.95 252.45 -62.9 254.3 -66.6 256.5 -68.4 258.85 -70.25 260.3 -68.9 262.0 -67.4 262.0 -62.1 262.0 -58.95 252.75 -33.4 244.0 -9.45 238.5 3.5 L222.55 42.7 215.6 59.25 304.95 56.05 310.3 48.8 Q319.75 35.95 328.25 23.0 L340.65 5.05 Q348.85 -6.7 353.0 -13.75 356.8 -20.25 361.15 -26.4 357.95 -33.7 355.25 -40.5 337.6 -84.95 303.75 -151.5 L312.5 -151.75 313.5 -150.25 315.25 -146.5 318.75 -139.75 325.5 -126.25 332.2 -112.3 338.75 -98.5 351.1 -71.05 Q358.65 -54.15 362.5 -43.75 364.15 -39.3 366.6 -33.9 380.25 -51.75 398.3 -66.9 409.75 -76.5 417.25 -79.75 425.0 -83.1 425.0 -78.1 425.0 -77.25 417.75 -70.95 L400.05 -55.25 Q382.8 -39.4 370.9 -24.8 380.5 -5.4 398.0 23.55 L400.15 27.15 Q416.2 12.25 421.25 6.75 425.95 1.6 431.5 -6.15 436.95 -13.65 439.75 -18.75 446.1 -30.35 451.95 -35.95 459.0 -42.75 459.0 -33.1 459.0 -30.65 445.15 -11.25 431.3 8.15 424.5 15.25 415.25 24.95 404.9 34.95 L415.5 52.35 418.2 56.9 Q444.0 60.95 470.05 68.15 474.65 62.1 486.4 53.15 504.3 39.45 529.05 26.05 554.65 12.15 571.7 7.3 591.1 1.8 591.1 10.85 591.1 12.1 586.15 13.4 L574.0 16.1 Q553.45 20.6 543.85 26.25 538.25 29.55 529.15 35.55 L515.35 44.25 Q506.7 49.3 488.0 64.7 L480.45 71.1 Q492.95 74.85 504.25 79.0 L518.1 78.0 Q521.9 78.0 523.35 79.8 524.1 80.7 524.1 81.85 524.1 83.0 518.1 84.4 L526.95 88.25 Q532.4 85.2 548.4 79.65 569.5 72.35 577.85 70.5 L585.95 68.05 Q590.85 66.3 593.95 65.65 604.6 63.4 623.85 66.0 637.6 68.0 665.8 70.2 671.9 70.65 673.85 71.5 676.1 72.4 676.1 74.85 L676.0 77.0 Q675.75 77.85 674.4 78.25 L658.6 79.0 Q644.05 79.0 632.85 76.15 621.7 73.25 602.6 73.25 595.3 73.25 563.2 84.15 L536.6 92.95 Q554.7 102.25 563.85 111.5 572.45 125.75 583.4 139.65 L598.9 159.1 Q606.1 168.7 609.15 177.05 612.85 187.15 612.85 200.75 612.85 208.5 611.8 212.5 610.6 217.05 607.1 220.9 603.95 224.35 596.4 229.75 L577.35 243.0 Q573.65 245.55 564.55 249.25 L572.85 247.25 Q578.9 245.65 601.95 237.15 624.8 228.75 636.1 224.0 638.75 222.9 644.9 220.7 L654.1 217.25 Q666.1 212.25 678.45 211.6 687.05 211.1 700.3 212.9 L722.55 215.45 Q735.85 216.15 748.1 213.5 765.9 209.65 771.15 211.35 773.2 212.05 773.8 213.75 774.1 214.6 774.1 217.1 774.1 229.5 770.6 255.0 767.1 280.5 767.1 294.75 L767.1 371.75 759.1 371.5 759.1 260.5 Q763.55 235.5 765.85 219.5 L765.85 219.25 Q738.7 221.3 723.15 219.15 718.25 218.45 705.85 214.8 698.95 212.75 690.15 214.5 678.95 216.7 652.35 226.5 647.7 228.15 636.95 232.8 L623.35 238.5 Q608.3 244.35 590.25 250.2 575.75 254.9 571.1 256.0 555.35 259.95 539.65 261.9 L529.9 269.7 Q522.15 275.0 513.35 277.25 508.35 278.55 505.2 280.4 501.5 282.5 499.75 283.1 491.05 286.05 453.85 288.5 450.2 288.7 425.7 295.05 412.4 298.5 404.5 300.8 420.3 313.0 439.25 335.75 451.3 352.55 455.85 359.85 464.7 374.05 467.5 384.5 469.65 392.5 481.85 432.1 493.0 470.1 493.0 480.85 493.0 482.3 492.0 483.55 490.8 485.0 489.0 485.0 483.85 485.0 475.15 448.85 465.5 405.4 461.25 390.75 457.8 378.95 451.2 366.85 444.35 354.25 435.25 343.5 414.7 319.35 396.75 307.65 L392.3 304.9 Q378.9 309.75 348.45 314.25 302.45 321.0 246.35 321.0 226.0 321.0 134.35 314.95 L104.7 312.95 Q103.25 323.45 95.1 350.65 L84.75 384.25 Q83.4 390.55 80.1 402.6 76.2 416.7 75.0 421.75 73.5 427.95 70.0 445.0 66.7 459.0 64.0 459.0 L61.9 458.65 60.5 457.75 60.25 456.7 Q60.0 455.8 60.0 454.35 60.0 440.25 67.45 414.9 L73.45 394.95 Q76.7 383.8 78.0 376.75 79.0 371.3 83.95 357.65 88.4 345.45 89.0 338.5 93.15 326.0 95.0 319.0 L95.7 314.0 95.95 312.35 14.35 306.25 Q-27.95 302.5 -46.55 294.75 -53.8 291.7 -59.5 287.2 L-68.75 279.0 Q-85.55 263.85 -97.4 244.75 -110.0 224.4 -110.0 210.25 -110.0 206.75 -107.2 187.45 L-104.0 166.75 Q-101.6 155.75 -96.15 139.25 -91.5 125.05 -91.5 124.0 -91.5 122.75 -92.75 122.15 -94.0 121.5 -94.0 120.25 -94.0 117.25 -67.0 94.0 -64.15 94.0 -62.8 95.8 -62.0 96.9 -62.0 97.85 -62.0 100.0 -64.15 101.4 L-69.0 104.5 -70.0 105.75 Q-63.8 103.85 -43.55 96.8 -27.55 91.2 -10.1 86.35 -108.0 29.0 -108.0 25.25 -108.0 16.75 -85.85 29.85 -78.95 33.9 -56.75 49.25 L-25.45 69.15 Q-5.0 82.05 -5.0 82.25 -5.0 83.9 -5.7 85.15 12.85 80.3 29.85 78.3 L43.0 76.75 43.0 75.75 Q43.0 72.75 71.7 72.45 L84.85 69.1 Q81.5 64.6 76.75 56.05 65.05 34.95 62.5 32.25 46.3 15.05 23.05 1.7 11.4 -5.0 3.0 -8.25 3.0 -13.95 8.55 -14.0 M357.75 -6.5 Q340.35 21.85 331.65 34.9 323.1 47.75 317.55 54.75 L320.0 54.35 346.85 52.5 Q359.2 51.7 373.05 52.25 378.5 47.0 389.7 36.75 L392.05 34.65 388.65 28.6 Q374.95 3.85 365.2 -17.45 361.05 -11.85 357.75 -6.5 M558.15 194.2 Q566.15 194.9 566.15 198.6 566.15 205.1 551.6 208.1 540.25 210.45 517.2 211.05 L476.75 211.6 Q454.1 212.0 444.3 213.85 L436.65 216.65 Q428.9 219.35 413.7 221.35 365.3 227.6 240.55 227.6 160.25 227.6 65.9 222.6 -69.95 215.45 -69.95 202.45 -69.95 200.55 -66.7 199.15 -63.35 197.6 -58.1 197.6 L-25.3 202.35 18.45 208.1 32.05 209.55 71.4 212.65 Q142.1 217.1 239.15 217.1 368.5 217.1 411.0 211.25 424.05 209.4 432.65 206.35 441.95 203.05 445.95 202.35 466.65 198.8 496.6 199.6 510.4 199.95 516.85 199.7 527.55 199.2 536.5 196.85 549.65 193.45 558.15 194.2 M569.25 128.7 Q560.8 115.25 545.1 107.25 511.3 89.9 504.8 86.7 L469.45 90.75 Q423.6 95.35 397.35 95.95 418.0 116.85 418.0 147.6 418.0 165.7 389.75 177.25 361.15 189.0 315.5 189.0 294.15 189.0 289.5 187.0 288.0 186.35 288.35 185.55 L289.0 184.75 Q289.0 183.2 307.9 181.75 L349.5 177.8 Q410.0 169.75 410.0 147.35 410.0 113.0 387.85 96.0 L317.15 93.5 302.45 92.9 Q303.85 92.3 304.45 91.25 305.1 90.1 305.05 86.85 304.95 83.65 305.85 82.2 307.15 80.05 311.1 79.35 291.7 80.25 279.55 90.25 L288.4 92.25 277.85 91.75 Q273.3 95.9 269.9 101.45 L272.8 105.2 Q281.0 116.75 281.0 129.1 281.0 140.1 274.1 151.4 270.45 157.35 265.3 162.7 275.25 191.7 308.5 198.9 319.85 201.35 341.15 201.7 L351.9 202.3 Q356.0 202.95 356.0 204.85 L355.85 207.15 Q355.45 208.2 353.5 208.75 349.1 210.0 330.5 210.0 287.35 210.0 268.25 186.5 262.1 178.95 258.45 168.95 L250.75 174.55 Q212.05 200.0 139.5 200.0 106.65 200.0 87.0 192.25 80.2 189.6 76.15 186.45 73.0 184.0 73.0 182.75 73.0 181.6 73.75 180.55 74.8 179.0 77.0 179.0 78.0 179.0 81.25 181.0 85.65 183.65 90.15 185.4 107.0 191.75 138.85 191.75 209.1 191.75 245.75 168.0 251.35 164.4 255.9 160.4 253.0 148.45 253.0 133.6 253.0 116.4 259.8 103.3 250.4 94.95 235.75 91.25 L224.85 88.45 215.0 87.5 Q210.1 87.0 200.05 84.45 191.9 82.4 183.0 82.25 L89.7 80.7 Q77.7 86.05 67.3 93.5 51.25 105.05 42.25 119.3 33.0 133.9 33.0 148.6 33.0 177.55 52.5 193.55 62.25 201.5 72.0 203.85 72.0 206.4 70.3 207.25 68.7 208.0 64.0 208.0 38.95 208.0 29.5 178.75 26.5 169.55 25.45 158.45 L25.0 148.75 Q25.0 134.6 27.7 125.35 31.2 113.45 40.3 103.9 51.95 91.7 76.0 80.55 L63.05 82.4 38.35 85.75 Q-0.05 90.9 -30.45 100.7 -41.2 104.15 -53.95 109.15 L-74.25 117.25 Q-91.75 124.0 -102.0 210.35 -102.0 224.9 -90.55 243.5 -78.55 263.05 -61.25 274.5 -51.75 280.85 -30.55 287.5 -3.45 296.05 27.85 299.5 L65.65 302.35 102.35 304.75 208.15 311.65 Q223.45 312.75 246.1 312.75 301.65 312.75 344.75 305.9 367.9 302.25 385.05 297.05 385.4 289.75 394.2 294.05 408.65 288.95 415.35 287.3 425.35 284.85 448.35 281.5 479.3 277.05 491.9 274.15 L506.35 270.75 Q513.95 269.45 521.15 265.25 L524.2 263.35 519.0 263.6 Q509.6 264.0 497.5 263.65 L487.5 265.25 478.7 266.0 Q470.25 266.7 459.5 269.25 449.7 271.55 441.1 274.65 L428.85 279.4 Q416.35 284.0 398.5 284.0 385.5 284.0 379.75 280.85 375.3 278.4 375.0 273.75 L357.9 273.75 Q342.9 281.0 338.5 281.0 335.55 281.0 334.5 279.0 334.0 278.05 334.0 276.75 334.0 275.65 336.95 273.75 L330.25 273.75 Q304.0 281.6 270.1 288.45 213.35 300.0 172.0 300.0 L148.75 301.05 Q150.0 300.25 149.5 298.0 149.1 297.25 149.0 296.5 L149.0 294.7 Q149.05 293.5 149.25 293.5 36.8 291.65 17.15 289.65 12.1 289.15 7.95 287.85 4.0 286.6 -5.5 285.75 -12.55 285.15 -19.1 281.35 -27.75 276.25 -25.0 269.25 -32.4 265.45 -45.35 244.65 -58.0 224.3 -58.0 217.35 -58.0 214.05 -57.7 213.25 -57.0 211.0 -54.0 211.0 -53.7 211.0 -48.1 223.95 -41.95 238.2 -40.0 241.5 L-35.15 249.9 Q-32.35 254.45 -30.0 257.25 -27.85 259.75 -24.3 260.8 L-18.05 261.9 Q-14.45 262.4 -13.05 263.3 -11.0 264.65 -11.0 267.75 -11.0 268.35 -12.1 269.65 L-16.0 273.75 Q-10.05 276.85 -0.35 278.75 8.6 280.5 26.25 282.25 L70.65 283.75 Q122.35 284.65 162.5 286.0 165.0 286.1 167.35 287.0 L171.95 288.95 Q179.2 291.75 192.75 291.75 195.9 291.75 230.8 286.85 269.4 281.4 285.5 278.0 298.75 275.15 324.35 265.0 346.95 256.0 351.0 256.0 355.55 256.0 357.2 258.35 358.0 259.45 358.0 261.0 358.0 262.2 356.7 263.65 354.7 265.8 350.5 266.75 L351.8 266.75 355.8 265.1 Q373.9 257.95 381.5 256.0 404.25 249.85 430.2 249.5 445.55 249.3 476.1 251.8 L500.05 253.45 Q502.95 251.45 504.0 248.75 507.8 239.2 510.5 235.65 515.7 228.65 526.35 224.0 542.4 216.85 550.35 214.3 566.1 209.2 566.1 215.0 566.1 219.55 561.2 221.75 558.15 223.15 549.3 224.7 539.55 226.4 534.75 228.1 526.55 230.95 521.85 236.25 519.2 239.3 515.2 248.5 L512.7 253.95 522.55 254.0 537.8 253.25 Q543.6 248.95 547.6 246.5 556.45 241.2 566.35 238.25 579.2 234.45 592.45 220.85 604.85 208.1 604.85 201.1 604.85 189.2 599.25 179.25 597.35 175.9 592.3 168.4 L582.6 153.5 Q579.95 149.2 575.8 140.8 571.75 132.6 569.25 128.7 M410.1 63.3 Q360.0 59.65 288.85 66.5 247.9 66.0 211.8 67.15 L211.0 68.0 Q209.45 68.0 208.5 67.25 L172.85 68.9 Q181.95 71.75 183.5 72.5 189.2 75.1 200.8 76.2 L217.0 77.5 Q220.1 77.95 225.95 79.95 L232.3 79.65 Q242.8 79.4 256.0 83.5 L271.4 88.1 Q274.8 84.95 278.8 82.15 290.2 74.25 305.2 70.75 319.75 67.4 335.5 68.65 366.05 71.05 387.95 87.75 L389.85 87.75 Q416.6 87.75 464.15 82.9 L489.95 80.3 Q482.75 77.5 475.65 75.2 L471.0 79.0 Q468.5 79.0 467.5 77.0 467.0 76.0 467.0 74.75 467.0 73.8 467.4 72.7 461.95 71.15 456.5 69.9 441.0 66.3 422.25 64.35 L423.0 66.5 Q423.0 68.25 422.05 69.55 420.9 71.0 419.0 71.0 416.05 71.0 410.1 63.3 M404.2 54.9 L396.7 42.75 385.3 53.0 404.2 54.9 M371.85 87.1 Q359.25 82.1 342.25 80.3 L321.75 79.3 Q334.4 80.5 357.5 86.25 L371.85 87.1 M432.95 269.45 Q442.15 265.5 445.75 264.35 451.45 262.5 458.3 261.4 L430.1 260.15 Q404.5 259.95 380.3 264.15 382.65 264.45 382.85 265.85 383.0 266.95 382.15 269.9 381.55 275.75 399.0 275.75 411.05 275.75 419.65 273.85 425.6 272.55 432.95 269.45 M268.25 91.25 L256.5 90.6 Q260.75 93.0 264.35 96.0 266.15 93.55 268.25 91.25 M220.9 171.25 Q222.45 172.65 222.45 175.05 222.45 176.65 221.5 178.05 220.15 180.05 217.45 180.05 214.2 180.05 213.0 177.3 L212.45 175.05 Q212.45 172.65 214.0 171.25 215.4 170.0 217.45 170.0 219.5 170.0 220.9 171.25 M273.0 129.35 Q273.0 119.5 265.7 109.75 260.85 121.3 261.0 133.85 261.0 144.4 262.8 153.3 265.1 150.5 267.0 147.5 273.0 137.95 273.0 129.35 M291.45 169.0 Q293.5 169.0 294.9 170.25 296.45 171.65 296.45 174.05 296.45 175.6 295.45 177.05 294.05 179.05 291.45 179.05 288.1 179.05 286.95 176.3 L286.45 174.05 Q286.45 171.65 288.0 170.25 289.4 169.0 291.45 169.0 M145.55 70.85 L121.1 73.25 178.45 76.25 155.2 70.1 145.55 70.85 M-148.0 112.5 Q-149.2 114.0 -151.0 114.0 L-153.1 113.65 -154.5 112.75 -154.75 111.9 -155.0 109.75 Q-155.0 106.55 -151.0 106.25 -147.0 105.9 -147.0 109.85 -147.0 111.2 -148.0 112.5" fill="#000000" fill-rule="evenodd" stroke="none"/>
  </g>
</svg>
