<?xml version="1.0" encoding="UTF-8" standalone="no"?>
<svg xmlns:xlink="http://www.w3.org/1999/xlink" height="520.0px" width="835.1px" xmlns="http://www.w3.org/2000/svg">
  <g transform="matrix(1.0, 0.0, 0.0, 1.0, 83.0, 58.4)">
    <path d="M214.6 -24.0 Q208.2 -18.7 204.0 -14.65 187.35 1.25 180.25 18.25 176.8 26.45 169.55 46.2 L165.2 58.05 172.85 57.25 Q221.8 57.6 260.05 58.25 L260.0 57.75 Q260.0 49.15 282.4 24.05 301.6 2.55 310.25 -3.75 L347.15 -30.1 347.0 -30.75 Q347.0 -41.05 353.45 -34.45 361.1 -39.7 367.0 -43.4 402.0 -65.45 402.0 -55.1 402.0 -55.6 366.6 -32.25 L358.95 -27.2 Q362.95 -20.95 367.5 -11.25 L370.9 -3.6 380.1 -14.6 Q393.0 -28.85 393.0 -19.1 393.0 -15.6 377.3 1.6 L374.2 4.9 Q377.75 14.15 380.25 18.75 390.0 36.6 393.25 49.45 394.9 56.05 395.55 64.9 L397.25 65.4 Q399.0 66.0 401.65 67.2 407.15 69.2 426.1 70.0 L473.05 74.75 520.85 79.25 Q538.05 81.4 549.05 85.9 558.4 89.7 561.35 94.25 577.35 118.5 583.35 131.4 591.25 148.45 591.8 164.2 L597.15 163.15 Q610.85 160.2 632.1 151.5 646.25 145.7 651.0 155.0 652.5 157.85 653.5 163.45 654.65 169.55 655.1 170.75 658.55 181.25 668.7 194.85 674.85 203.05 689.2 219.4 703.7 235.9 709.7 243.85 719.75 257.25 723.1 267.5 730.2 289.1 740.4 322.25 752.1 360.25 752.1 363.1 L751.85 368.05 Q751.1 371.0 748.1 371.0 745.15 371.0 743.05 363.4 742.55 361.55 738.55 341.9 730.0 300.05 713.85 264.0 708.9 252.9 696.45 237.65 L673.05 210.7 Q658.75 194.35 652.05 183.95 642.85 169.55 642.1 158.25 L591.8 171.7 Q591.6 176.75 591.0 179.55 590.4 182.3 588.6 185.55 583.85 194.2 580.85 212.0 580.15 216.1 581.2 223.35 582.4 231.5 582.2 234.7 581.5 248.0 562.85 256.5 537.4 268.95 524.3 275.0 501.1 285.75 487.35 288.25 L444.25 292.45 Q408.05 296.1 403.1 299.5 L399.0 302.35 399.0 320.75 Q399.0 336.85 397.15 350.25 395.35 363.0 390.5 383.0 388.2 392.35 389.2 421.65 389.6 433.5 389.15 438.15 388.55 445.0 386.0 445.0 382.6 445.0 382.0 428.95 L382.0 412.6 Q382.0 405.35 382.5 393.25 383.1 377.35 384.0 375.5 387.75 368.1 388.95 357.35 L391.0 339.5 391.25 321.15 391.2 307.7 Q366.0 324.85 359.6 327.7 355.2 329.7 353.5 328.45 352.45 327.7 351.5 323.8 350.35 319.05 348.75 316.35 346.05 311.75 340.5 308.7 325.5 300.5 288.35 303.25 L282.85 304.15 276.85 305.0 Q178.45 306.05 125.35 308.15 L77.35 310.0 75.5 310.0 70.4 340.1 Q64.3 374.3 63.25 384.25 59.0 423.4 51.25 461.6 L43.0 461.6 Q45.85 445.25 49.5 420.6 L55.5 379.0 58.15 358.4 60.75 337.75 Q63.2 320.95 67.95 309.95 2.25 308.9 -33.25 293.45 -83.0 271.8 -83.0 219.75 -83.0 199.05 -81.65 191.55 L-73.0 155.25 Q-69.3 139.35 -59.7 119.5 -52.55 104.65 -43.75 90.75 L-43.75 90.0 -45.65 90.7 -48.5 91.0 Q-52.25 91.0 -53.5 89.0 -54.0 88.2 -54.0 86.75 L-50.15 84.35 Q-45.5 81.65 -40.55 79.3 -25.3 72.0 -16.0 72.0 -11.8 72.0 -12.55 72.6 L-14.45 73.9 Q-14.7 75.75 17.85 75.75 L35.25 73.65 0.1 50.75 Q-42.95 22.8 -43.0 23.75 -43.0 10.15 2.5 41.1 23.65 55.55 44.85 72.5 L89.4 67.05 93.45 66.55 93.3 64.95 94.0 55.5 Q93.85 47.15 86.4 44.75 L81.3 43.55 Q79.0 42.95 79.0 41.75 79.0 38.65 82.6 38.1 86.1 37.5 90.5 39.6 95.35 41.95 98.4 46.3 102.0 51.45 102.0 58.1 L102.0 65.25 102.0 65.55 159.05 58.75 159.0 54.85 Q159.0 38.85 168.4 20.75 176.15 5.75 189.0 -8.3 200.0 -20.3 209.65 -26.5 219.0 -32.55 219.0 -28.1 219.0 -27.65 214.6 -24.0 M350.8 -21.75 Q325.65 -5.0 314.25 3.5 300.65 13.7 282.75 39.7 L271.75 55.45 269.35 58.4 Q361.55 60.05 386.5 63.2 380.6 37.7 376.0 27.75 373.75 22.9 367.9 11.5 L360.25 19.5 Q355.6 24.3 343.35 41.25 L332.0 57.0 Q328.6 57.0 328.0 54.1 L328.0 50.85 Q328.0 44.75 340.35 29.7 349.4 18.6 357.75 10.75 L364.1 4.15 358.05 -7.5 Q353.45 -16.3 350.8 -21.75 M514.1 -14.1 Q514.1 -11.3 483.3 3.05 448.95 19.05 445.0 22.0 L431.4 31.5 Q421.6 38.75 418.25 43.5 417.75 44.2 412.7 55.05 408.55 64.0 407.0 64.0 404.1 64.0 403.25 61.45 L403.0 58.6 Q403.0 47.15 420.35 31.05 435.25 17.25 458.55 3.7 480.1 -8.85 496.75 -14.4 514.1 -20.2 514.1 -14.1 M507.0 45.0 Q520.95 39.65 555.55 35.55 590.1 31.5 590.1 35.25 590.1 40.65 557.55 45.7 L516.35 51.25 478.7 60.95 Q447.5 69.0 437.5 69.0 432.05 69.0 430.5 67.0 430.0 66.35 430.0 64.75 430.0 60.25 463.7 53.8 L489.6 49.0 Q503.05 46.5 507.0 45.0 M542.25 92.6 L510.85 86.0 Q498.6 83.2 462.8 80.45 L459.0 80.15 459.0 80.85 Q459.0 82.45 442.85 89.85 445.15 92.35 446.0 95.25 L449.0 103.6 Q450.85 108.95 451.0 112.5 451.25 116.7 452.75 129.95 454.0 141.2 454.0 147.35 L453.9 158.9 Q453.6 164.2 452.2 168.1 449.3 176.4 436.0 190.5 427.0 200.1 390.2 208.55 353.35 217.0 320.5 217.0 291.75 217.0 279.55 189.25 276.6 182.55 274.85 174.9 272.25 181.7 270.0 186.5 267.3 192.35 261.6 198.6 254.85 205.95 249.25 207.25 L208.65 216.9 Q195.55 219.8 188.1 220.4 L182.05 220.7 209.1 220.75 Q330.85 220.75 364.95 216.3 372.9 215.25 382.25 212.75 389.85 210.7 400.0 210.0 410.05 209.4 425.65 206.25 L451.0 201.0 Q452.65 200.7 464.2 194.8 L475.5 189.0 Q478.05 189.0 479.25 190.8 480.0 191.9 480.0 192.85 480.0 199.85 458.5 206.45 437.6 212.9 400.0 218.0 318.8 229.0 208.5 229.0 176.15 229.7 155.5 229.6 117.65 229.4 91.5 225.25 24.3 214.55 16.15 175.95 2.75 192.1 -6.0 209.25 L-18.45 235.5 Q-14.55 236.65 -6.85 240.85 L11.0 250.75 Q14.7 252.65 21.45 254.9 28.65 257.3 32.5 257.75 L41.0 258.95 62.25 260.65 Q102.4 262.75 194.0 262.75 201.75 262.75 235.4 258.35 270.15 253.8 281.0 253.5 L368.4 249.95 Q379.9 244.0 391.0 240.25 412.9 232.7 438.65 219.15 469.45 202.9 479.25 198.75 L482.9 197.3 Q478.0 184.3 465.9 169.3 L458.2 160.15 Q455.0 156.3 455.0 155.5 455.0 145.65 463.3 154.05 470.35 161.25 481.5 179.4 L490.35 194.5 Q503.25 189.9 525.3 183.05 543.75 177.35 574.35 168.25 579.0 166.85 583.85 165.8 583.7 149.85 575.15 133.25 572.05 127.25 565.7 116.95 L554.1 98.0 Q552.35 95.0 542.25 92.6 M583.55 173.95 Q558.85 180.7 543.45 185.2 515.15 193.5 494.2 201.6 L499.7 212.45 Q508.0 229.35 508.0 234.0 508.0 236.5 507.5 237.75 506.6 240.0 504.0 240.0 503.0 240.0 495.35 224.65 488.35 232.05 467.95 239.2 457.15 242.95 440.35 247.4 L414.75 254.0 Q406.8 256.15 391.55 257.05 L376.5 257.75 369.55 258.85 Q361.0 264.6 351.25 273.35 L338.1 285.0 Q331.95 290.0 329.0 290.0 L326.9 289.65 325.5 288.75 325.25 287.7 Q325.0 286.8 325.0 285.35 325.0 284.05 336.8 273.1 346.5 264.05 350.25 261.0 L350.8 260.6 308.1 261.95 276.15 262.25 260.5 263.25 Q255.75 265.55 238.8 266.0 220.45 266.5 216.0 267.75 L212.45 268.55 207.5 269.5 Q204.0 270.0 145.0 271.0 71.4 271.0 46.3 268.6 37.65 267.75 33.1 266.45 L27.0 264.5 Q20.05 262.85 15.15 260.6 9.0 257.8 4.75 256.5 -4.6 253.5 -12.2 249.9 -19.1 246.55 -22.25 243.6 -30.85 262.0 -31.0 262.0 -34.0 262.0 -34.8 259.25 L-35.0 256.25 Q-35.0 245.3 -23.9 224.2 -14.15 205.65 0.5 185.75 8.4 175.05 15.1 167.5 L15.0 164.75 Q15.0 161.7 18.05 160.95 19.55 160.6 20.8 161.35 L24.9 157.45 Q36.0 147.6 36.0 155.85 36.0 155.3 31.7 159.25 28.05 162.6 24.1 166.95 L24.85 169.15 Q25.7 171.65 26.0 173.5 26.9 178.05 29.5 182.9 32.65 188.85 37.0 192.25 40.2 194.75 46.05 202.15 52.35 208.7 61.0 210.5 66.85 211.75 71.55 214.3 75.65 216.6 82.6 217.6 100.6 220.2 174.2 220.65 L170.7 220.55 Q152.55 220.0 139.5 220.0 105.7 220.0 86.7 215.5 67.35 210.85 57.75 200.25 48.7 190.25 45.5 171.75 43.0 157.2 43.0 127.5 L43.0 111.75 43.4 109.85 38.8 108.15 Q9.0 97.2 9.0 94.75 9.0 92.6 10.5 91.75 11.85 91.0 15.0 91.0 20.55 91.0 37.25 97.05 L48.55 101.2 Q52.05 97.9 52.8 102.8 L73.35 110.4 Q128.15 129.75 164.5 129.75 197.45 129.75 243.75 130.05 L295.55 128.45 Q317.0 126.6 337.15 121.3 356.25 116.3 386.0 105.0 404.8 97.9 436.6 82.4 441.1 80.4 444.65 79.15 L425.1 78.0 Q408.55 76.95 403.15 74.85 399.55 73.45 395.95 72.55 L396.0 78.0 396.0 82.5 Q395.4 86.0 392.0 86.0 391.75 86.0 388.35 71.2 352.85 66.9 170.35 65.25 159.1 66.55 140.95 71.0 126.75 74.5 109.85 75.0 L60.7 76.95 44.75 78.85 43.65 79.0 34.85 80.25 19.45 81.05 4.35 80.5 Q-14.05 79.95 -25.75 85.25 -29.65 87.0 -33.4 90.85 -36.3 93.8 -38.0 96.75 -40.25 100.7 -45.8 109.0 -50.55 116.55 -51.75 121.5 -56.1 138.75 -66.65 171.6 -75.0 200.4 -75.0 220.1 L-75.05 228.8 Q-74.9 235.1 -73.65 240.5 -70.0 256.1 -56.75 267.75 -22.55 297.65 73.05 301.3 73.65 300.75 74.2 300.7 74.85 300.65 75.3 301.35 87.35 301.75 100.35 301.75 101.75 301.75 104.15 301.0 L107.85 300.0 159.8 298.05 277.35 296.75 282.95 296.1 288.85 295.0 Q304.85 290.35 319.2 291.95 325.1 292.65 342.4 297.3 356.25 301.0 366.7 300.55 378.65 300.0 392.65 294.55 393.5 293.3 394.75 293.25 L395.6 293.35 400.35 291.25 Q403.6 289.75 441.75 285.55 L484.35 280.75 Q497.9 278.45 520.75 267.65 L558.35 249.25 Q567.5 245.05 571.1 239.55 573.95 235.15 573.7 229.0 L572.25 218.15 Q571.4 211.65 572.85 207.5 575.85 193.85 580.8 183.55 582.45 180.0 583.05 177.25 L583.55 173.95 M426.9 96.85 L384.75 115.0 Q375.35 119.6 371.65 121.05 360.35 125.5 344.5 128.7 320.1 133.65 284.65 135.95 285.6 136.9 286.0 138.85 286.0 142.05 280.7 158.15 281.35 164.85 282.15 169.25 289.3 208.5 320.25 208.5 354.8 208.5 390.4 200.4 423.5 192.9 429.5 185.5 L440.45 171.85 Q444.1 167.1 445.2 164.4 446.2 161.9 446.2 158.05 L446.0 147.6 Q446.0 132.8 439.5 109.1 437.35 101.2 435.05 94.5 L434.7 93.5 426.9 96.85 M394.25 137.95 Q387.35 137.15 371.25 142.5 357.25 145.95 343.6 143.65 L335.6 143.0 Q331.6 143.4 327.25 146.5 324.6 148.35 323.65 150.9 323.0 152.65 323.0 155.5 323.0 174.75 333.0 178.5 336.85 179.95 343.95 179.9 L357.35 179.5 Q378.8 179.5 394.75 175.0 385.15 174.95 384.45 174.75 L383.9 174.1 Q383.5 173.45 381.25 172.75 L356.3 172.25 330.0 170.75 329.2 170.05 329.0 167.75 Q329.0 164.2 346.65 163.95 336.2 163.65 333.5 162.0 332.45 161.35 332.65 160.55 L333.0 159.75 Q333.0 158.3 346.6 156.65 L376.5 154.25 Q406.05 152.8 415.55 154.55 L415.15 153.1 Q413.35 148.15 407.0 144.0 L400.6 140.0 Q397.4 138.3 394.25 137.95 M336.35 187.25 Q327.85 186.25 323.5 183.3 318.8 180.15 316.85 173.55 315.0 167.25 315.0 155.5 315.0 152.6 315.5 150.75 316.8 145.8 321.1 142.1 334.5 130.5 372.0 134.5 408.7 129.05 419.9 143.65 423.45 148.35 424.1 154.8 424.4 158.1 424.0 161.35 424.0 166.55 422.9 169.6 L422.85 169.75 423.0 169.85 Q423.0 173.2 420.55 174.0 L420.35 174.05 Q418.45 176.4 415.5 178.3 400.5 188.0 357.0 188.0 L336.35 187.25 M376.0 164.95 L408.3 167.75 413.1 168.3 Q414.75 167.2 415.45 165.6 415.85 164.75 415.95 162.65 405.75 163.95 355.3 164.0 L376.0 164.95 M458.95 233.35 Q464.2 230.6 468.5 228.75 469.9 228.15 475.5 223.85 482.4 218.55 485.75 216.35 488.15 214.8 490.1 213.8 L486.05 204.85 Q473.35 210.1 463.75 215.25 454.25 220.3 428.5 232.1 402.2 244.2 390.1 248.7 L396.85 248.15 411.4 246.4 418.0 245.0 Q442.1 240.8 451.35 237.05 454.1 235.95 458.95 233.35 M199.55 164.6 Q196.85 162.25 193.75 160.5 189.65 158.1 185.65 153.65 182.35 150.0 179.65 149.15 171.8 146.8 136.0 157.0 107.5 157.55 100.3 159.65 97.5 160.45 97.0 161.7 L97.0 164.0 Q97.0 165.15 98.0 169.15 99.0 173.15 99.0 175.0 L106.4 175.55 Q105.0 174.3 105.0 172.75 105.0 168.55 152.5 174.5 170.6 176.8 185.15 179.35 L196.35 181.55 201.75 180.55 Q206.35 179.4 207.1 177.75 L207.0 175.25 Q207.0 172.45 203.0 168.0 L202.95 168.05 Q202.75 168.9 201.25 169.3 L183.0 170.0 Q168.95 170.0 146.75 167.5 118.0 164.25 118.0 159.75 118.0 155.5 160.5 159.5 L189.7 162.9 199.55 164.6 M214.75 180.7 Q213.85 183.9 210.0 186.05 199.35 192.0 163.5 192.0 107.7 192.0 93.75 181.5 88.85 177.8 88.45 172.15 L89.0 163.5 Q88.6 160.8 88.8 159.15 89.2 156.2 92.45 154.15 101.85 148.35 137.0 148.5 184.35 141.25 204.25 157.05 214.35 165.05 215.0 175.75 L214.75 180.7 M172.7 137.9 L142.35 136.25 Q117.3 133.45 72.0 119.75 64.5 117.4 52.25 113.05 L52.0 115.5 Q51.0 125.5 51.0 128.0 51.0 137.55 51.4 142.9 52.5 158.7 56.25 171.5 68.1 211.75 102.0 211.75 177.0 211.5 179.0 211.0 L180.25 210.55 183.0 210.0 201.0 208.0 Q205.8 206.8 211.8 206.55 L224.5 205.25 235.05 202.6 Q243.8 200.2 245.5 199.25 252.75 195.15 258.1 189.0 263.0 183.4 265.0 177.75 265.95 175.05 267.7 166.75 269.8 156.95 271.0 152.55 L272.0 149.1 272.0 148.35 Q272.0 140.65 272.3 138.25 L272.55 136.65 Q245.85 138.0 213.5 138.0 L172.7 137.9 M141.0 183.75 L148.65 183.75 136.75 181.25 131.7 180.45 131.8 180.9 Q132.15 182.3 133.4 182.85 135.45 183.75 141.0 183.75" fill="#000000" fill-rule="evenodd" stroke="none"/>
  </g>
</svg>
